<?xml version="1.0" standalone="no"?>
   <!DOCTYPE svg PUBLIC "-//W3C//DTD SVG 1.1//EN" 
   "http://www.w3.org/Graphics/SVG/1.1/DTD/svg11.dtd"><svg id="svg" version="1.1" width="1761" height="984" xmlns="http://www.w3.org/2000/svg"><path d="M835.252 165.171 C 797.088 168.874,733.314 181.960,698.600 193.212 C 630.260 215.362,572.567 245.918,464.073 317.421 C 395.333 362.725,365.376 378.221,312.272 395.943 C 268.948 410.400,257.301 415.911,231.635 434.099 C 195.606 459.630,176.319 491.552,175.807 526.500 C 175.264 563.603,195.118 592.435,236.338 614.405 C 255.698 624.724,287.039 632.849,337.500 640.632 C 391.775 649.003,418.869 660.432,483.000 702.008 C 544.788 742.065,585.734 760.895,656.598 781.841 C 750.841 809.697,897.352 825.355,976.628 816.043 C 1167.689 793.600,1369.512 697.827,1513.500 561.277 C 1525.050 550.323,1543.748 533.968,1555.050 524.931 C 1572.425 511.039,1584.000 497.348,1584.000 490.689 C 1584.000 487.975,1562.451 479.613,1544.010 475.171 C 1516.674 468.586,1465.118 445.305,1438.617 427.579 C 1425.353 418.707,1401.675 399.881,1386.000 385.743 C 1360.421 362.672,1270.382 299.632,1231.500 277.571 C 1223.250 272.890,1208.303 264.002,1198.284 257.821 C 1138.556 220.969,1046.582 185.007,988.500 175.796 C 904.811 162.524,880.147 160.814,835.252 165.171 M946.062 201.080 C 1012.697 206.491,1078.150 226.663,1153.500 265.010 C 1198.793 288.060,1297.356 352.237,1329.000 379.284 C 1388.421 430.071,1439.287 463.767,1479.000 478.651 C 1509.412 490.049,1510.749 492.169,1486.287 490.207 C 1425.878 485.360,1391.973 472.970,1351.834 441.073 C 1339.671 431.408,1318.420 415.998,1304.610 406.829 C 1290.799 397.660,1272.750 385.310,1264.500 379.385 C 1256.250 373.460,1242.750 365.137,1234.500 360.890 C 1226.250 356.644,1212.075 348.181,1203.000 342.083 C 1169.205 319.377,1082.688 283.184,1030.500 269.921 C 919.396 241.684,823.474 246.953,698.969 288.131 C 628.975 311.281,585.848 333.398,518.212 380.831 C 457.159 423.648,416.139 439.866,331.741 454.558 C 281.321 463.334,245.415 486.791,241.030 513.818 C 238.537 529.180,241.610 538.444,253.601 551.717 C 271.903 571.975,286.514 576.198,373.500 586.368 C 437.120 593.806,452.264 599.199,490.648 628.082 C 555.794 677.103,641.089 714.683,718.500 728.470 C 853.017 752.428,867.486 754.205,910.358 752.033 C 966.254 749.200,1070.676 728.237,1147.273 704.471 C 1198.198 688.671,1268.365 660.858,1312.500 638.978 C 1335.600 627.527,1352.007 620.053,1348.960 622.371 C 1330.935 636.083,1163.714 714.000,1152.312 714.000 C 1150.764 714.000,1143.164 716.715,1135.422 720.033 C 1116.487 728.150,1071.333 739.466,1027.500 747.079 C 991.085 753.403,972.082 760.648,1000.621 757.326 C 1071.180 749.113,1098.940 743.679,1158.000 726.518 C 1182.315 719.453,1251.747 688.903,1291.500 667.778 C 1333.572 645.421,1409.205 599.900,1443.000 576.597 C 1482.244 549.537,1467.966 564.394,1420.500 600.010 C 1332.922 665.725,1241.876 713.209,1135.985 748.395 C 995.411 795.107,887.070 800.350,724.500 768.308 C 635.415 750.750,565.663 725.083,523.498 694.345 C 478.846 661.794,456.871 648.025,427.991 634.498 C 397.332 620.138,376.339 614.357,330.000 607.512 C 312.675 604.952,288.375 600.121,276.000 596.775 C 218.537 581.238,192.664 541.508,212.852 499.805 C 220.689 483.617,248.115 457.450,270.396 444.905 C 279.253 439.918,308.100 428.061,334.500 418.558 C 396.663 396.180,400.196 394.299,475.071 343.759 C 547.674 294.753,585.859 271.778,624.996 253.553 C 668.153 233.456,721.467 215.459,763.500 206.798 C 802.975 198.665,884.766 196.103,946.062 201.080 M952.650 227.736 C 954.218 229.241,972.114 233.948,992.420 238.195 C 1048.950 250.019,1091.141 265.335,1151.742 296.033 C 1182.125 311.424,1207.404 323.596,1207.918 323.082 C 1208.432 322.568,1199.773 314.405,1188.676 304.942 C 1155.750 276.863,1075.782 241.427,1018.770 229.651 C 994.162 224.568,947.957 223.230,952.650 227.736 M734.718 234.200 C 682.002 241.952,596.048 280.722,535.500 324.060 C 522.300 333.508,501.375 347.311,489.000 354.733 C 476.625 362.155,453.675 376.053,438.000 385.619 C 422.325 395.184,400.050 408.163,388.500 414.463 C 364.767 427.406,368.593 429.489,396.682 418.916 C 430.702 406.110,502.546 367.385,552.841 334.743 C 587.310 312.373,637.681 283.848,655.500 276.607 C 697.032 259.731,722.963 251.642,749.408 247.312 C 783.206 241.778,798.000 237.654,798.000 233.767 C 798.000 230.459,758.311 230.730,734.718 234.200 M687.663 389.250 C 686.199 430.512,690.701 464.315,702.547 501.000 C 719.183 552.522,742.352 581.054,784.939 602.467 C 876.267 648.385,960.317 635.006,1033.238 562.943 C 1043.502 552.799,1057.454 537.075,1064.242 528.000 C 1077.875 509.775,1100.000 466.590,1108.816 441.000 L 1114.500 424.500 1115.501 439.500 C 1119.423 498.275,1071.377 570.334,1000.152 612.503 C 954.615 639.462,914.012 650.089,868.576 646.939 C 834.308 644.564,814.656 639.256,784.500 624.232 C 727.639 595.902,688.152 545.906,671.982 481.770 C 665.304 455.278,663.650 396.655,669.168 381.945 C 671.876 374.724,686.634 351.000,688.418 351.000 C 688.749 351.000,688.409 368.213,687.663 389.250 M805.643 364.938 C 809.689 369.304,813.156 375.717,813.346 379.188 C 813.536 382.660,813.985 386.850,814.343 388.500 C 818.019 405.430,820.446 411.018,824.607 412.132 C 827.298 412.853,833.302 414.291,837.949 415.328 C 850.464 418.122,847.023 426.253,830.412 433.138 C 816.787 438.784,815.954 438.797,802.297 433.582 C 776.893 423.880,755.626 394.850,760.295 376.248 C 762.546 367.282,778.325 357.027,789.893 357.011 C 795.126 357.004,801.056 359.989,805.643 364.938 M1004.034 367.369 C 1023.119 383.705,1030.528 403.579,1030.366 438.000 C 1030.244 463.831,1029.294 468.527,1020.221 488.142 C 1014.716 500.045,1007.689 512.067,1004.606 514.857 C 996.367 522.313,997.386 514.781,1006.787 498.740 L 1014.574 485.452 1003.787 475.571 C 997.854 470.137,993.000 463.720,993.000 461.310 C 993.000 455.946,1000.225 449.384,1013.593 442.607 C 1023.223 437.726,1023.597 436.919,1021.758 424.996 C 1018.070 401.082,1010.414 383.414,998.639 371.639 C 992.238 365.238,987.000 359.325,987.000 358.500 C 987.000 354.756,992.867 357.811,1004.034 367.369 M1152.899 373.862 C 1171.155 383.106,1173.011 386.251,1172.875 407.715 C 1172.806 418.597,1170.243 453.150,1167.178 484.500 C 1164.113 515.850,1162.054 541.973,1162.603 542.550 C 1165.928 546.051,1170.967 536.245,1179.015 510.612 C 1189.942 475.810,1197.000 437.739,1197.000 413.607 C 1197.000 403.923,1197.742 396.000,1198.649 396.000 C 1202.624 396.000,1216.993 404.915,1222.083 410.539 C 1230.702 420.063,1226.813 453.632,1206.823 542.250 C 1205.005 550.311,1209.282 551.035,1215.685 543.750 C 1231.400 525.872,1248.513 481.473,1252.976 447.000 L 1255.500 427.500 1269.887 441.000 L 1284.273 454.500 1276.620 480.852 C 1272.411 495.346,1264.924 516.120,1259.984 527.017 C 1244.932 560.212,1248.580 566.986,1269.009 543.778 C 1281.589 529.486,1305.000 485.419,1305.000 476.031 C 1305.000 468.958,1309.058 469.753,1320.015 478.973 C 1331.256 488.431,1330.881 494.356,1316.824 529.462 C 1307.150 553.623,1305.757 564.000,1312.189 564.000 C 1320.755 564.000,1347.177 527.300,1351.627 509.222 C 1352.748 504.669,1354.850 500.211,1356.298 499.316 C 1359.486 497.346,1384.419 508.015,1387.220 512.548 C 1388.317 514.323,1385.792 522.531,1381.608 530.788 C 1372.576 548.611,1372.028 555.000,1379.533 555.000 C 1384.896 555.000,1410.000 532.265,1410.000 527.408 C 1410.000 526.084,1413.375 525.000,1417.500 525.000 C 1426.057 525.000,1426.641 527.077,1420.405 535.323 C 1417.982 538.526,1415.970 543.251,1415.932 545.823 C 1415.847 551.713,1361.819 584.039,1302.870 613.470 C 1203.462 663.101,1006.293 718.463,915.783 722.159 C 874.342 723.851,864.261 722.569,729.000 698.418 C 689.147 691.302,638.525 674.236,579.551 648.034 C 547.138 633.632,533.206 625.511,515.600 610.757 C 489.818 589.149,472.614 578.582,452.127 571.768 C 431.073 564.766,391.461 558.413,365.869 557.935 C 338.346 557.422,311.647 552.786,294.618 545.563 C 282.652 540.488,281.987 539.616,285.266 533.300 C 292.588 519.196,293.902 518.982,304.191 530.209 C 316.803 543.971,322.291 541.413,316.339 524.545 C 310.700 508.561,310.701 508.555,319.641 504.482 C 333.580 498.130,338.805 500.059,344.745 513.750 C 351.286 528.827,364.739 542.461,368.934 538.266 C 370.739 536.461,369.774 528.904,366.307 517.699 C 359.603 496.033,360.840 489.998,372.328 488.312 C 382.570 486.809,384.659 488.990,389.635 506.382 C 394.177 522.260,409.079 539.997,413.893 535.256 C 416.284 532.902,415.927 527.175,412.594 514.376 C 405.820 488.371,406.413 484.868,418.571 479.070 L 429.142 474.029 432.301 482.265 C 445.896 517.710,462.653 540.608,466.899 529.542 C 467.869 527.015,465.813 513.778,462.331 500.127 C 458.849 486.475,456.000 473.593,456.000 471.500 C 456.000 468.475,472.698 459.000,478.029 459.000 C 478.700 459.000,480.107 463.286,481.155 468.523 C 484.849 486.997,495.702 512.566,504.053 522.474 C 511.670 531.511,512.722 531.945,514.717 526.874 C 515.973 523.682,514.177 510.052,510.567 495.374 C 500.012 452.458,499.818 450.278,505.960 443.491 C 510.838 438.102,527.829 427.499,528.105 429.673 C 534.531 480.453,556.528 533.431,566.939 523.202 C 569.413 520.772,568.678 510.421,564.148 483.869 C 560.767 464.049,558.000 440.972,558.000 432.587 C 558.000 417.877,558.442 417.076,570.569 409.845 C 577.482 405.722,584.027 402.898,585.112 403.569 C 586.198 404.241,587.935 416.740,588.972 431.347 C 591.090 461.185,599.946 493.281,610.810 510.491 C 624.863 532.753,627.074 523.133,619.482 472.761 C 617.017 456.405,615.000 431.141,615.000 416.620 L 615.000 390.216 626.196 382.608 C 632.354 378.424,638.092 374.999,638.946 374.997 C 639.801 374.995,640.037 388.477,639.470 404.957 C 636.439 493.139,680.613 578.582,753.846 626.189 C 795.718 653.408,838.913 666.391,887.604 666.391 C 953.579 666.391,1011.179 643.610,1058.246 598.902 C 1097.182 561.916,1120.512 522.714,1134.482 470.800 C 1139.837 450.899,1141.312 437.337,1141.395 407.250 C 1141.453 386.213,1141.905 369.000,1142.399 369.000 C 1142.893 369.000,1147.618 371.188,1152.899 373.862 M1082.033 403.893 C 1086.896 411.315,1086.909 413.220,1082.238 435.810 C 1070.441 492.858,1030.277 552.660,982.129 584.863 C 910.701 632.637,824.737 623.641,763.030 561.934 C 746.243 545.147,738.297 534.028,727.408 512.095 C 705.880 468.728,711.342 466.507,738.657 507.522 C 776.874 564.909,803.318 585.506,852.000 595.804 C 880.154 601.759,903.714 599.878,931.500 589.457 C 960.473 578.590,976.530 568.739,997.102 549.210 C 1036.816 511.507,1068.000 450.417,1068.000 410.317 C 1068.000 393.908,1073.763 391.270,1082.033 403.893 M769.402 485.417 C 802.580 548.556,879.530 581.695,941.718 559.627 C 948.988 557.047,955.593 555.593,956.395 556.395 C 959.585 559.585,949.973 566.585,929.355 576.089 C 891.125 593.710,848.670 591.018,813.370 568.733 C 795.859 557.679,772.340 531.946,761.976 512.501 C 748.727 487.643,746.603 478.902,751.955 471.261 C 754.367 467.818,756.865 465.000,757.507 465.000 C 758.148 465.000,763.501 474.188,769.402 485.417 M1448.750 528.849 C 1448.063 529.316,1444.800 531.678,1441.500 534.099 C 1435.950 538.170,1435.809 538.106,1439.617 533.250 C 1441.882 530.363,1445.144 528.000,1446.867 528.000 C 1448.590 528.000,1449.438 528.382,1448.750 528.849 M628.536 546.750 C 630.993 558.650,641.607 575.453,657.690 592.901 C 681.399 618.622,678.300 607.275,649.366 562.425 C 631.952 535.431,625.141 530.305,628.536 546.750 M466.457 543.069 C 463.776 547.408,469.680 556.281,480.986 564.905 C 494.884 575.505,496.760 571.932,485.516 556.274 C 475.816 542.768,469.394 538.318,466.457 543.069 M528.020 549.094 C 527.999 557.156,547.552 591.000,552.231 591.000 C 553.754 591.000,555.000 590.280,555.000 589.400 C 555.000 586.764,540.758 560.164,534.173 550.500 L 528.040 541.500 528.020 549.094 M578.192 549.579 C 580.335 558.198,590.454 573.000,594.204 573.000 C 598.976 573.000,597.298 565.326,590.250 554.925 C 581.902 542.605,575.785 539.892,578.192 549.579 M1197.369 577.888 C 1195.393 582.226,1194.611 586.611,1195.633 587.633 C 1197.938 589.938,1206.000 579.278,1206.000 573.927 C 1206.000 567.330,1201.170 569.546,1197.369 577.888 M1233.401 590.675 C 1220.044 613.158,1218.297 617.978,1225.745 611.797 C 1231.115 607.340,1249.086 573.086,1247.097 571.097 C 1246.385 570.385,1240.221 579.195,1233.401 590.675 M1142.171 586.446 C 1133.501 599.123,1131.564 607.312,1137.723 605.259 C 1143.236 603.421,1152.630 585.957,1151.405 579.822 C 1150.588 575.730,1148.453 577.261,1142.171 586.446 M486.107 649.251 C 531.155 692.845,594.069 726.771,658.500 742.215 C 711.039 754.809,731.547 758.552,755.074 759.840 C 777.132 761.048,777.217 757.968,755.259 753.131 C 746.592 751.222,730.050 747.567,718.500 745.009 C 694.943 739.792,639.255 724.477,625.500 719.432 C 607.358 712.779,533.711 674.786,519.812 664.910 C 497.813 649.279,475.353 638.844,486.107 649.251 " stroke="none" fill="black" fill-rule="evenodd"/></svg>