<?xml version="1.0" encoding="UTF-8"?>
<svg id="Layer_2" data-name="Layer 2" xmlns="http://www.w3.org/2000/svg" viewBox="0 0 1408.2 655.71">
  <defs>
    <style>
      .cls-1 {
        fill: #fff;
      }

      .cls-1, .cls-2 {
        fill-rule: evenodd;
      }
    </style>
  </defs>
  <g id="svg">
    <g>
      <path class="cls-1" d="M659.46,2.14c-38.16,3.7-101.94,16.79-136.65,28.04-68.34,22.15-126.03,52.71-234.53,124.21-68.74,45.3-98.7,60.8-151.8,78.52-43.32,14.46-54.97,19.97-80.64,38.16C19.81,296.6.52,328.52.01,363.47c-.54,37.1,19.31,65.93,60.53,87.91,19.36,10.32,50.7,18.44,101.16,26.23,54.27,8.37,81.37,19.8,145.5,61.38,61.79,40.06,102.73,58.89,173.6,79.83,94.24,27.86,240.75,43.51,320.03,34.2,191.06-22.44,392.88-118.22,536.87-254.77,11.55-10.95,30.25-27.31,41.55-36.35,17.38-13.89,28.95-27.58,28.95-34.24,0-2.71-21.55-11.08-39.99-15.52-27.34-6.58-78.89-29.87-105.39-47.59-13.26-8.87-36.94-27.7-52.62-41.84-25.58-23.07-115.62-86.11-154.5-108.17-8.25-4.68-23.2-13.57-33.22-19.75-59.73-36.85-151.7-72.81-209.78-82.03-83.69-13.27-108.35-14.98-153.25-10.62"/>
      <path class="cls-1" d="M770.27,38.05c66.64,5.41,132.09,25.58,207.44,63.93,45.29,23.05,143.86,87.23,175.5,114.27,59.42,50.79,110.29,84.48,150,99.37,30.41,11.4,31.75,13.52,7.29,11.56-60.41-4.85-94.31-17.24-134.45-49.13-12.16-9.67-33.41-25.08-47.22-34.24-13.81-9.17-31.86-21.52-40.11-27.44-8.25-5.93-21.75-14.25-30-18.49-8.25-4.25-22.43-12.71-31.5-18.81-33.8-22.71-120.31-58.9-172.5-72.16-111.1-28.24-207.03-22.97-331.53,18.21-69.99,23.15-113.12,45.27-180.76,92.7-61.05,42.82-102.07,59.04-186.47,73.73-50.42,8.78-86.33,32.23-90.71,59.26-2.49,15.36.58,24.63,12.57,37.9,18.3,20.26,32.91,24.48,119.9,34.65,63.62,7.44,78.76,12.83,117.15,41.71,65.15,49.02,150.44,86.6,227.85,100.39,134.52,23.96,148.99,25.74,191.86,23.56,55.9-2.83,160.32-23.8,236.91-47.56,50.93-15.8,121.09-43.61,165.23-65.49,23.1-11.45,39.51-18.93,36.46-16.61-18.02,13.71-185.25,91.63-196.65,91.63-1.55,0-9.15,2.72-16.89,6.03-18.93,8.12-64.09,19.43-107.92,27.05-36.41,6.32-55.42,13.57-26.88,10.25,70.56-8.21,98.32-13.65,157.38-30.81,24.31-7.07,93.75-37.61,133.5-58.74,42.07-22.36,117.7-67.88,151.5-91.18,39.24-27.06,24.97-12.2-22.5,23.41-87.58,65.71-178.62,113.2-284.52,148.39-140.57,46.71-248.91,51.95-411.48,19.91-89.09-17.56-158.84-43.22-201-73.96-44.65-32.55-66.63-46.32-95.51-59.85-30.66-14.36-51.65-20.14-97.99-26.99-17.33-2.56-41.62-7.39-54-10.74-57.46-15.54-83.34-55.27-63.15-96.97,7.84-16.19,35.26-42.35,57.54-54.9,8.86-4.99,37.7-16.84,64.1-26.35,62.16-22.38,65.7-24.26,140.57-74.8,72.6-49.01,110.79-71.98,149.92-90.21,43.16-20.1,96.47-38.09,138.5-46.75,39.47-8.13,121.27-10.7,182.56-5.72"/>
      <path class="cls-1" d="M776.85,64.7c1.57,1.51,19.46,6.21,39.77,10.46,56.53,11.82,98.72,27.14,159.32,57.84,30.38,15.39,55.66,27.56,56.18,27.05.51-.51-8.15-8.68-19.24-18.14-32.93-28.08-112.89-63.51-169.91-75.29-24.61-5.08-70.81-6.42-66.12-1.92"/>
      <path class="cls-1" d="M558.92,71.17c-52.72,7.75-138.67,46.52-199.22,89.86-13.2,9.45-34.12,23.25-46.5,30.67s-35.33,21.32-51,30.89c-15.67,9.57-37.95,22.54-49.5,28.84-23.73,12.94-19.91,15.03,8.18,4.45,34.02-12.81,105.86-51.53,156.16-84.17,34.47-22.37,84.84-50.9,102.66-58.14,41.53-16.88,67.46-24.96,93.91-29.29,33.8-5.53,48.59-9.66,48.59-13.54,0-3.31-39.69-3.04-63.28.43"/>
      <path class="cls-1" d="M511.87,226.22c-1.46,41.26,3.04,75.07,14.88,111.75,16.64,51.52,39.8,80.05,82.39,101.47,91.33,45.92,175.38,32.54,248.3-39.52,10.26-10.14,24.22-25.87,31-34.94,13.63-18.23,35.76-61.41,44.57-87l5.68-16.5,1,15c3.92,58.77-44.12,130.83-115.35,173-45.54,26.96-86.14,37.59-131.58,34.44-34.27-2.38-53.92-7.68-84.08-22.71-56.86-28.33-96.35-78.33-112.52-142.46-6.68-26.49-8.33-85.11-2.81-99.82,2.71-7.22,17.47-30.95,19.25-30.95.33,0,0,17.21-.76,38.25"/>
      <path class="cls-1" d="M629.85,201.91c4.05,4.37,7.51,10.78,7.7,14.25.19,3.47.64,7.66,1,9.31,3.68,16.93,6.1,22.52,10.26,23.63,2.69.72,8.7,2.16,13.34,3.2,12.52,2.79,9.07,10.92-7.54,17.81-13.62,5.65-14.46,5.66-28.11.44-25.4-9.7-46.67-38.73-42-57.33,2.25-8.97,18.03-19.22,29.6-19.24,5.23,0,11.16,2.98,15.75,7.93"/>
      <path class="cls-1" d="M828.24,204.34c19.09,16.34,26.49,36.21,26.33,70.63-.12,25.83-1.07,30.53-10.14,50.14-5.51,11.9-12.53,23.93-15.61,26.71-8.24,7.46-7.22-.08,2.18-16.12l7.79-13.29-10.79-9.88c-5.93-5.43-10.79-11.85-10.79-14.26,0-5.36,7.22-11.93,20.59-18.7,9.63-4.88,10-5.69,8.16-17.61-3.69-23.91-11.34-41.58-23.12-53.36-6.4-6.4-11.64-12.31-11.64-13.14,0-3.74,5.87-.69,17.03,8.87"/>
      <path class="cls-1" d="M977.1,210.83c18.26,9.24,20.11,12.39,19.98,33.85-.07,10.88-2.63,45.43-5.7,76.79-3.06,31.35-5.12,57.47-4.57,58.05,3.32,3.5,8.36-6.3,16.41-31.94,10.93-34.8,17.98-72.87,17.98-97.01,0-9.68.74-17.61,1.65-17.61,3.97,0,18.34,8.92,23.43,14.54,8.62,9.52,4.73,43.09-15.26,131.71-1.82,8.06,2.46,8.78,8.86,1.5,15.71-17.88,32.83-62.28,37.29-96.75l2.52-19.5,14.39,13.5,14.39,13.5-7.65,26.35c-4.21,14.49-11.7,35.27-16.64,46.17-15.05,33.19-11.4,39.97,9.03,16.76,12.58-14.29,35.99-58.36,35.99-67.75,0-7.07,4.06-6.28,15.02,2.94,11.24,9.46,10.87,15.38-3.19,50.49-9.67,24.16-11.07,34.54-4.64,34.54,8.57,0,34.99-36.7,39.44-54.78,1.12-4.55,3.22-9.01,4.67-9.91,3.19-1.97,28.12,8.7,30.92,13.23,1.1,1.78-1.43,9.98-5.61,18.24-9.03,17.82-9.58,24.21-2.08,24.21,5.36,0,30.47-22.73,30.47-27.59,0-1.32,3.38-2.41,7.5-2.41,8.56,0,9.14,2.08,2.91,10.32-2.42,3.2-4.44,7.93-4.47,10.5-.08,5.89-54.11,38.22-113.06,67.65-99.41,49.63-296.58,104.99-387.09,108.69-41.44,1.69-51.52.41-186.78-23.74-39.85-7.12-90.47-24.18-149.45-50.38-32.41-14.4-46.35-22.52-63.95-37.28-25.78-21.61-42.99-32.18-63.47-38.99-21.05-7-60.67-13.35-86.26-13.83-27.52-.51-54.22-5.15-71.25-12.37-11.97-5.08-12.63-5.95-9.35-12.26,7.32-14.1,8.64-14.32,18.93-3.09,12.61,13.76,18.1,11.2,12.15-5.66q-5.64-15.98,3.3-20.06c13.94-6.35,19.16-4.42,25.1,9.27,6.54,15.08,19.99,28.71,24.19,24.52,1.81-1.8.84-9.36-2.63-20.57-6.7-21.67-5.47-27.7,6.02-29.39,10.24-1.5,12.33.68,17.31,18.07,4.54,15.88,19.44,33.62,24.26,28.87,2.39-2.35,2.03-8.08-1.3-20.88-6.77-26-6.18-29.51,5.98-35.31l10.57-5.04,3.16,8.24c13.6,35.45,30.35,58.34,34.6,47.28.97-2.53-1.09-15.76-4.57-29.41-3.48-13.65-6.33-26.53-6.33-28.63,0-3.02,16.7-12.5,22.03-12.5.67,0,2.08,4.29,3.13,9.52,3.69,18.47,14.55,44.04,22.9,53.95,7.62,9.04,8.67,9.47,10.66,4.4,1.26-3.19-.54-16.82-4.15-31.5-10.55-42.92-10.75-45.1-4.61-51.88,4.88-5.39,21.87-15.99,22.14-13.82,6.43,50.78,28.42,103.76,38.83,93.53,2.47-2.43,1.74-12.78-2.79-39.33-3.38-19.82-6.15-42.9-6.15-51.28,0-14.71.44-15.51,12.57-22.74,6.91-4.12,13.46-6.95,14.54-6.28,1.09.67,2.82,13.17,3.86,27.78,2.12,29.84,10.97,61.93,21.84,79.14,14.05,22.26,16.26,12.64,8.67-37.73-2.46-16.36-4.48-41.62-4.48-56.14v-26.4l11.2-7.61c6.16-4.18,11.9-7.61,12.75-7.61.86,0,1.09,13.48.52,29.96-3.03,88.18,41.14,173.62,114.38,221.23,41.87,27.22,85.07,40.2,133.76,40.2,65.97,0,123.58-22.78,170.64-67.49,38.94-36.99,62.27-76.19,76.24-128.1,5.35-19.9,6.83-33.46,6.91-63.55.06-21.04.51-38.25,1-38.25s5.22,2.19,10.5,4.86"/>
      <path class="cls-1" d="M906.24,240.86c4.86,7.42,4.88,9.33.21,31.92-11.8,57.05-51.96,116.85-100.11,149.05-71.43,47.77-157.39,38.78-219.1-22.93-16.79-16.79-24.73-27.91-35.62-49.84-21.53-43.37-16.07-45.59,11.25-4.57,38.22,57.39,64.66,77.98,113.34,88.28,28.15,5.95,51.71,4.07,79.5-6.35,28.97-10.87,45.03-20.72,65.6-40.25,39.71-37.7,70.9-98.79,70.9-138.89,0-16.41,5.76-19.05,14.03-6.42"/>
      <path class="cls-1" d="M593.61,322.39c33.18,63.14,110.13,96.28,172.32,74.21,7.27-2.58,13.88-4.03,14.68-3.23,3.19,3.19-6.42,10.19-27.04,19.69-38.23,17.62-80.68,14.93-115.98-7.36-17.51-11.05-41.03-36.79-51.39-56.23-13.25-24.86-15.37-33.6-10.02-41.24,2.41-3.44,4.91-6.26,5.55-6.26s5.99,9.19,11.89,20.42"/>
      <path class="cls-1" d="M1272.95,365.82c-.69.47-3.95,2.83-7.25,5.25-5.55,4.07-5.69,4.01-1.88-.85,2.27-2.89,5.53-5.25,7.25-5.25s2.57.38,1.88.85"/>
      <path class="cls-1" d="M452.74,383.72c2.46,11.9,13.07,28.7,29.15,46.15,23.71,25.72,20.61,14.37-8.32-30.48-17.41-26.99-24.23-32.12-20.83-15.67"/>
      <path class="cls-1" d="M290.66,380.04c-2.68,4.34,3.22,13.21,14.53,21.84,13.9,10.6,15.77,7.03,4.53-8.63-9.7-13.51-16.12-17.96-19.06-13.21"/>
      <path class="cls-1" d="M352.22,386.06c-.02,8.06,19.53,41.91,24.21,41.91,1.52,0,2.77-.72,2.77-1.6,0-2.64-14.24-29.24-20.83-38.9l-6.13-9-.02,7.59"/>
      <path class="cls-1" d="M402.4,386.55c2.14,8.62,12.26,23.42,16.01,23.42,4.77,0,3.09-7.67-3.95-18.08-8.35-12.32-14.47-15.03-12.06-5.35"/>
      <path class="cls-1" d="M1021.57,414.86c-1.98,4.34-2.76,8.72-1.74,9.74,2.3,2.3,10.37-8.35,10.37-13.71,0-6.6-4.83-4.38-8.63,3.96"/>
      <path class="cls-1" d="M1057.6,427.64c-13.36,22.48-15.1,27.3-7.66,21.12,5.37-4.46,23.34-38.71,21.35-40.7-.71-.71-6.88,8.1-13.7,19.58"/>
      <path class="cls-1" d="M966.37,423.41c-8.67,12.68-10.61,20.87-4.45,18.81,5.51-1.84,14.91-19.3,13.68-25.44-.82-4.09-2.95-2.56-9.23,6.62"/>
      <path class="cls-1" d="M310.31,486.22c45.05,43.59,107.96,77.52,172.39,92.96,52.54,12.59,73.05,16.34,96.57,17.62,22.06,1.21,22.14-1.87.18-6.71-8.67-1.91-25.21-5.56-36.76-8.12-23.56-5.22-79.24-20.53-93-25.58-18.14-6.65-91.79-44.65-105.69-54.52-22-15.63-44.46-26.07-33.71-15.66"/>
    </g>
    <path class="cls-2" d="M659.46,2.14c-38.16,3.7-101.94,16.79-136.65,28.04-68.34,22.15-126.03,52.71-234.53,124.21-68.74,45.3-98.7,60.8-151.8,78.52-43.32,14.46-54.97,19.97-80.64,38.16C19.81,296.6.52,328.52.01,363.47c-.54,37.1,19.31,65.93,60.53,87.91,19.36,10.32,50.7,18.44,101.16,26.23,54.27,8.37,81.37,19.8,145.5,61.38,61.79,40.06,102.73,58.89,173.6,79.83,94.24,27.86,240.75,43.51,320.03,34.2,191.06-22.44,392.88-118.22,536.87-254.77,11.55-10.95,30.25-27.31,41.55-36.35,17.38-13.89,28.95-27.58,28.95-34.24,0-2.71-21.55-11.08-39.99-15.52-27.34-6.58-78.89-29.87-105.39-47.59-13.26-8.87-36.94-27.7-52.62-41.84-25.58-23.07-115.62-86.11-154.5-108.17-8.25-4.68-23.2-13.57-33.22-19.75-59.73-36.85-151.7-72.81-209.78-82.03-83.69-13.27-108.35-14.98-153.25-10.62M770.27,38.05c66.64,5.41,132.09,25.58,207.44,63.93,45.29,23.05,143.86,87.23,175.5,114.27,59.42,50.79,110.29,84.48,150,99.37,30.41,11.4,31.75,13.52,7.29,11.56-60.41-4.85-94.31-17.24-134.45-49.13-12.16-9.67-33.41-25.08-47.22-34.24-13.81-9.17-31.86-21.52-40.11-27.44-8.25-5.93-21.75-14.25-30-18.49-8.25-4.25-22.43-12.71-31.5-18.81-33.8-22.71-120.31-58.9-172.5-72.16-111.1-28.24-207.03-22.97-331.53,18.21-69.99,23.15-113.12,45.27-180.76,92.7-61.05,42.82-102.07,59.04-186.47,73.73-50.42,8.78-86.33,32.23-90.71,59.26-2.49,15.36.58,24.63,12.57,37.9,18.3,20.26,32.91,24.48,119.9,34.65,63.62,7.44,78.76,12.83,117.15,41.71,65.15,49.02,150.44,86.6,227.85,100.39,134.52,23.96,148.99,25.74,191.86,23.56,55.9-2.83,160.32-23.8,236.91-47.56,50.93-15.8,121.09-43.61,165.23-65.49,23.1-11.45,39.51-18.93,36.46-16.61-18.02,13.71-185.25,91.63-196.65,91.63-1.55,0-9.15,2.72-16.89,6.03-18.93,8.12-64.09,19.43-107.92,27.05-36.41,6.32-55.42,13.57-26.88,10.25,70.56-8.21,98.32-13.65,157.38-30.81,24.31-7.07,93.75-37.61,133.5-58.74,42.07-22.36,117.7-67.88,151.5-91.18,39.24-27.06,24.97-12.2-22.5,23.41-87.58,65.71-178.62,113.2-284.52,148.39-140.57,46.71-248.91,51.95-411.48,19.91-89.09-17.56-158.84-43.22-201-73.96-44.65-32.55-66.63-46.32-95.51-59.85-30.66-14.36-51.65-20.14-97.99-26.99-17.33-2.56-41.62-7.39-54-10.74-57.46-15.54-83.34-55.27-63.15-96.97,7.84-16.19,35.26-42.35,57.54-54.9,8.86-4.99,37.7-16.84,64.1-26.35,62.16-22.38,65.7-24.26,140.57-74.8,72.6-49.01,110.79-71.98,149.92-90.21,43.16-20.1,96.47-38.09,138.5-46.75,39.47-8.13,121.27-10.7,182.56-5.72M776.85,64.7c1.57,1.51,19.46,6.21,39.77,10.46,56.53,11.82,98.72,27.14,159.32,57.84,30.38,15.39,55.66,27.56,56.18,27.05.51-.51-8.15-8.68-19.24-18.14-32.93-28.08-112.89-63.51-169.91-75.29-24.61-5.08-70.81-6.42-66.12-1.92M558.92,71.17c-52.72,7.75-138.67,46.52-199.22,89.86-13.2,9.45-34.12,23.25-46.5,30.67s-35.33,21.32-51,30.89c-15.67,9.57-37.95,22.54-49.5,28.84-23.73,12.94-19.91,15.03,8.18,4.45,34.02-12.81,105.86-51.53,156.16-84.17,34.47-22.37,84.84-50.9,102.66-58.14,41.53-16.88,67.46-24.96,93.91-29.29,33.8-5.53,48.59-9.66,48.59-13.54,0-3.31-39.69-3.04-63.28.43M511.87,226.22c-1.46,41.26,3.04,75.07,14.88,111.75,16.64,51.52,39.8,80.05,82.39,101.47,91.33,45.92,175.38,32.54,248.3-39.52,10.26-10.14,24.22-25.87,31-34.94,13.63-18.23,35.76-61.41,44.57-87l5.68-16.5,1,15c3.92,58.77-44.12,130.83-115.35,173-45.54,26.96-86.14,37.59-131.58,34.44-34.27-2.38-53.92-7.68-84.08-22.71-56.86-28.33-96.35-78.33-112.52-142.46-6.68-26.49-8.33-85.11-2.81-99.82,2.71-7.22,17.47-30.95,19.25-30.95.33,0,0,17.21-.76,38.25M629.85,201.91c4.05,4.37,7.51,10.78,7.7,14.25.19,3.47.64,7.66,1,9.31,3.68,16.93,6.1,22.52,10.26,23.63,2.69.72,8.7,2.16,13.34,3.2,12.52,2.79,9.07,10.92-7.54,17.81-13.62,5.65-14.46,5.66-28.11.44-25.4-9.7-46.67-38.73-42-57.33,2.25-8.97,18.03-19.22,29.6-19.24,5.23,0,11.16,2.98,15.75,7.93M828.24,204.34c19.09,16.34,26.49,36.21,26.33,70.63-.12,25.83-1.07,30.53-10.14,50.14-5.51,11.9-12.53,23.93-15.61,26.71-8.24,7.46-7.22-.08,2.18-16.12l7.79-13.29-10.79-9.88c-5.93-5.43-10.79-11.85-10.79-14.26,0-5.36,7.22-11.93,20.59-18.7,9.63-4.88,10-5.69,8.16-17.61-3.69-23.91-11.34-41.58-23.12-53.36-6.4-6.4-11.64-12.31-11.64-13.14,0-3.74,5.87-.69,17.03,8.87M977.1,210.83c18.26,9.24,20.11,12.39,19.98,33.85-.07,10.88-2.63,45.43-5.7,76.79-3.06,31.35-5.12,57.47-4.57,58.05,3.32,3.5,8.36-6.3,16.41-31.94,10.93-34.8,17.98-72.87,17.98-97.01,0-9.68.74-17.61,1.65-17.61,3.97,0,18.34,8.92,23.43,14.54,8.62,9.52,4.73,43.09-15.26,131.71-1.82,8.06,2.46,8.78,8.86,1.5,15.71-17.88,32.83-62.28,37.29-96.75l2.52-19.5,14.39,13.5,14.39,13.5-7.65,26.35c-4.21,14.49-11.7,35.27-16.64,46.17-15.05,33.19-11.4,39.97,9.03,16.76,12.58-14.29,35.99-58.36,35.99-67.75,0-7.07,4.06-6.28,15.02,2.94,11.24,9.46,10.87,15.38-3.19,50.49-9.67,24.16-11.07,34.54-4.64,34.54,8.57,0,34.99-36.7,39.44-54.78,1.12-4.55,3.22-9.01,4.67-9.91,3.19-1.97,28.12,8.7,30.92,13.23,1.1,1.78-1.43,9.98-5.61,18.24-9.03,17.82-9.58,24.21-2.08,24.21,5.36,0,30.47-22.73,30.47-27.59,0-1.32,3.38-2.41,7.5-2.41,8.56,0,9.14,2.08,2.91,10.32-2.42,3.2-4.44,7.93-4.47,10.5-.08,5.89-54.11,38.22-113.06,67.65-99.41,49.63-296.58,104.99-387.09,108.69-41.44,1.69-51.52.41-186.78-23.74-39.85-7.12-90.47-24.18-149.45-50.38-32.41-14.4-46.35-22.52-63.95-37.28-25.78-21.61-42.99-32.18-63.47-38.99-21.05-7-60.67-13.35-86.26-13.83-27.52-.51-54.22-5.15-71.25-12.37-11.97-5.08-12.63-5.95-9.35-12.26,7.32-14.1,8.64-14.32,18.93-3.09,12.61,13.76,18.1,11.2,12.15-5.66q-5.64-15.98,3.3-20.06c13.94-6.35,19.16-4.42,25.1,9.27,6.54,15.08,19.99,28.71,24.19,24.52,1.81-1.8.84-9.36-2.63-20.57-6.7-21.67-5.47-27.7,6.02-29.39,10.24-1.5,12.33.68,17.31,18.07,4.54,15.88,19.44,33.62,24.26,28.87,2.39-2.35,2.03-8.08-1.3-20.88-6.77-26-6.18-29.51,5.98-35.31l10.57-5.04,3.16,8.24c13.6,35.45,30.35,58.34,34.6,47.28.97-2.53-1.09-15.76-4.57-29.41-3.48-13.65-6.33-26.53-6.33-28.63,0-3.02,16.7-12.5,22.03-12.5.67,0,2.08,4.29,3.13,9.52,3.69,18.47,14.55,44.04,22.9,53.95,7.62,9.04,8.67,9.47,10.66,4.4,1.26-3.19-.54-16.82-4.15-31.5-10.55-42.92-10.75-45.1-4.61-51.88,4.88-5.39,21.87-15.99,22.14-13.82,6.43,50.78,28.42,103.76,38.83,93.53,2.47-2.43,1.74-12.78-2.79-39.33-3.38-19.82-6.15-42.9-6.15-51.28,0-14.71.44-15.51,12.57-22.74,6.91-4.12,13.46-6.95,14.54-6.28,1.09.67,2.82,13.17,3.86,27.78,2.12,29.84,10.97,61.93,21.84,79.14,14.05,22.26,16.26,12.64,8.67-37.73-2.46-16.36-4.48-41.62-4.48-56.14v-26.4l11.2-7.61c6.16-4.18,11.9-7.61,12.75-7.61.86,0,1.09,13.48.52,29.96-3.03,88.18,41.14,173.62,114.38,221.23,41.87,27.22,85.07,40.2,133.76,40.2,65.97,0,123.58-22.78,170.64-67.49,38.94-36.99,62.27-76.19,76.24-128.1,5.35-19.9,6.83-33.46,6.91-63.55.06-21.04.51-38.25,1-38.25s5.22,2.19,10.5,4.86M906.24,240.86c4.86,7.42,4.88,9.33.21,31.92-11.8,57.05-51.96,116.85-100.11,149.05-71.43,47.77-157.39,38.78-219.1-22.93-16.79-16.79-24.73-27.91-35.62-49.84-21.53-43.37-16.07-45.59,11.25-4.57,38.22,57.39,64.66,77.98,113.34,88.28,28.15,5.95,51.71,4.07,79.5-6.35,28.97-10.87,45.03-20.72,65.6-40.25,39.71-37.7,70.9-98.79,70.9-138.89,0-16.41,5.76-19.05,14.03-6.42M593.61,322.39c33.18,63.14,110.13,96.28,172.32,74.21,7.27-2.58,13.88-4.03,14.68-3.23,3.19,3.19-6.42,10.19-27.04,19.69-38.23,17.62-80.68,14.93-115.98-7.36-17.51-11.05-41.03-36.79-51.39-56.23-13.25-24.86-15.37-33.6-10.02-41.24,2.41-3.44,4.91-6.26,5.55-6.26s5.99,9.19,11.89,20.42M1272.95,365.82c-.69.47-3.95,2.83-7.25,5.25-5.55,4.07-5.69,4.01-1.88-.85,2.27-2.89,5.53-5.25,7.25-5.25s2.57.38,1.88.85M452.74,383.72c2.46,11.9,13.07,28.7,29.15,46.15,23.71,25.72,20.61,14.37-8.32-30.48-17.41-26.99-24.23-32.12-20.83-15.67M290.66,380.04c-2.68,4.34,3.22,13.21,14.53,21.84,13.9,10.6,15.77,7.03,4.53-8.63-9.7-13.51-16.12-17.96-19.06-13.21M352.22,386.06c-.02,8.06,19.53,41.91,24.21,41.91,1.52,0,2.77-.72,2.77-1.6,0-2.64-14.24-29.24-20.83-38.9l-6.13-9-.02,7.59M402.4,386.55c2.14,8.62,12.26,23.42,16.01,23.42,4.77,0,3.09-7.67-3.95-18.08-8.35-12.32-14.47-15.03-12.06-5.35M1021.57,414.86c-1.98,4.34-2.76,8.72-1.74,9.74,2.3,2.3,10.37-8.35,10.37-13.71,0-6.6-4.83-4.38-8.63,3.96M1057.6,427.64c-13.36,22.48-15.1,27.3-7.66,21.12,5.37-4.46,23.34-38.71,21.35-40.7-.71-.71-6.88,8.1-13.7,19.58M966.37,423.41c-8.67,12.68-10.61,20.87-4.45,18.81,5.51-1.84,14.91-19.3,13.68-25.44-.82-4.09-2.95-2.56-9.23,6.62M310.31,486.22c45.05,43.59,107.96,77.52,172.39,92.96,52.54,12.59,73.05,16.34,96.57,17.62,22.06,1.21,22.14-1.87.18-6.71-8.67-1.91-25.21-5.56-36.76-8.12-23.56-5.22-79.24-20.53-93-25.58-18.14-6.65-91.79-44.65-105.69-54.52-22-15.63-44.46-26.07-33.71-15.66"/>
  </g>
</svg>