<?xml version="1.0" encoding="UTF-8"?>
<svg id="Layer_2" data-name="Layer 2" xmlns="http://www.w3.org/2000/svg" viewBox="0 0 1124.4 803.31">
  <g id="Layer_1-2" data-name="Layer 1">
    <g>
      <path d="M1063.67,37.07c.59-1.18-4.61-3.12-5.74-3.99-3.56-2.75-5.37-6.48-3.7-10.95l4.2,1.95-5.75-13.49c-1.22,7.41.16,15.05.74,22.46l-1.5,2.03-1-1.99-4.25,2.98,1.25-3.49-7.75,4.74c.42,1.59,6.08,1.07,7.64,1.36,1.27.23,2.65,1.98,4.55,1.75,1.55-.19,2.57-2.51,4.18-2.78,2.05-.34,4.69,1.43,7.12-.59Z"/>
      <path d="M237.64,63.54c8.5-.36,17.11-.91,25.64-1.11,11.22-.26,22.36.39,33.44.33,7.4-.04,25.11-2.22,31.36-.59,1.03.27,1.7.31,1.97,1.53.35,1.55.33,20.49-.11,21.9-.27.85-.84,1.16-1.66,1.34-1.98.42-8.79.43-11.46.54-8.98.34-18.05-.6-26.96-.46-15.36.23-32.87,2.29-48.08.96-1.36-.12-3.88-.1-4.63-1.37-1.12-1.88-.98-22.05.5-23.06ZM325.2,71.78c.46.48,1.17.73,1.85.66.46-.45-4.98-8.09-7.5-5.99,1.27,1.99-.17,4.32-1.97,2.17l.47-2.17-4,1.25c2.77.05,2.71,2.26,3.65,3.1,1.49,1.33,4.98,1.63,3.35,5.14,2.17-.87,4.82.38,4,3.01h1.5s0-3.5,0-3.5c-3.02,1.75-2.45-1.84-3.1-2.4-.24-.21-6.39-2.24-2.78-4.27,2.81-1.58,3.72,2.16,4.53,3ZM312.55,72.95c-1.23-4.69-5.11-2.4-4.5-6.5l-3.5.5v1.5c3.79-1.58,4.54,3.92,8,4.5.18.68-.35,2.86.26,3.01,2.6-.07,2.52-2.42,4.24-4-1.67.57-2.51,1.33-4.5.99ZM313.05,82.95l2.98-.77.51-1.73h-3.49s0,2.5,0,2.5ZM306.54,75.95c.94-1.54-3.31-3.2-3.49-2.99l.5,3h2.99ZM286.05,75.95c.97-.3,1.97-.52,3-.5-.5-2.08-5.97-3.15-3.99-5.73,2.21-2.88,6.59-.06,4.99,3.24l2.99-1c-.47-2.34-4.71-2.59-3-5.49-4.92.2-8.93-.3-14,1v2.49c1.8.04,8.26-4.55,9-2.24l-.48,1.52-3.01-.27c.79,1.83-.5,4.55-2.75,4.55-2.56,0-2.74-4.06-5.75-3.55.88,1.56-3.26,4.32-4.33,4.38-3.19.17-2.24-5.08-6.17-4.39l.5-2.49c-3.13,1.36-5.35-.85-8.58-.71-1.32.06-7.01,1.12-6.17,2.7l1.99-.99,7.21,7.16-.94,1.33c4.86-1.89,5.31,3.15,9.25,4.5-.31-2.39-.35-3.24,1.76-4.75l3.98,1.24c-3.25-2.75.16-4.5,2.47-6.28l3.52,3.03c.06,1.39-2.87,4.53-4.49,4.27l1.76,1.99c1.43.1-.16-.76.7-2.26,2.06-3.58,6.52-3.02,6.55,1.26,2.05-2.06,4.09.15,4.24,2.5l1.95-.96.3-1.03c-.66.45-3.16-1.71-3.29-1.99-.42-.88.71-1.6.8-2.51-5.02,1.54-5.28.64-2.74-4,1.79.68,2.92,2.07,2.74,4ZM276.55,83.45l4.99-.24-1.24-2.24-3.76.99v1.5ZM268.05,68.95c1.93-.68,4.66.68,5.5-1.5-3.4.35-5.39-2.6-9-1l3.5.49v2.01ZM272.05,84.44c-.87-1.43-1.15-1.66,0-2.99-1.76,1.36-3.75.29-4.67.46-.49.09-.28,1.27-1.56,1.55-1.08.24-2.6-.17-3.77,0,2.9,2.79,6.32-1.75,10,.99ZM261.05,83.44v-2c-2.31,1.44-3.29-.83-5.25-1.51l1.24,3.5-5.51-.23.77-3.76c-.91,1.67-4.16,1.23-4.68,1.58-.2.13-1.45,2.9-3.07,3.41,4.42-2.54,6.73,0,10.28.02,2.1.02,3.98-1.47,6.23-1.02Z"/>
      <path d="M1066.4,133.02l-.54,75.32c-.36,1.15-.86,2.05-2.15,2.35-1.39.32-19.94.32-20.92-.06l-.75-75.61,22.7-2.85,1.66.85ZM1059.97,183.69c.14-2.1.25-3.5.99-5.5l-2.24,1.49c-1.83-.92-.15-5.36,2.24-3.5-.84-2.93.61-5.15.53-8.26-.04-1.62-.96-3.22-.94-4.5.02-2,1.87-5.06,1.96-7.49.1-2.57-1.62-5.88-1.59-7.5s2.72-4.57,1.54-7.24l-1.76,5.5c-1.06.22-4.64-4.52-3.01-6.02,1.06-.97,3.79-.07,2.78-1.24l-7.01,1.75c2.88-.18,1.88,2.44,2.01,4.51l1.72-1c2.13,2.07,1.83,2.92,1.27,5.5.5.14,1.33-.23,2,.24,2.03,1.43.77,9.59-.51,11.76-3.89-.87-2.9-7.11-2.46-10.23.12-.85.9-1.43.97-1.77-.48-.14-1.34.2-1.78-.47l-.72-2.53c-.01,2.93,1.37,7.53-3.03,7.28l-.48-5.28-1.74,1.99c-3.37-2.59-2.05-5,.5-7.49l1.24.99c.89-3.29-1.57-5.35-4.65-5.42l-.84.93c6.1-.15,3.84,2.46,1.22,5.52l-1.27-.31.05-5.21-.99,62.5,1.72-1,2.03,4.03,1.74-.03c-1.39-1.69.84-6.25,2.54-4.69l3.22,4.68,1.49-2.98,1.74.99c-.93-2.61-.06-4.04.5-6.5l-2.23,1.99c-2.92-2.36-1.63-4.24.51-6.47l1.23.23.99,2.24c-1.04-2.08.99-11.01-1.5-11.5-.09,1.44.61,2.48.38,4.09-.09.65-2.11,4.99-2.64,5.4l-1.4.46c-1.99-.47-1.46-4.66-.9-6.16l1.75-.23,1.8,1.43-1.95-3.64,2.95-1.35Z"/>
      <path d="M433.39,79.85c.12,2.28.92,4.16-2.07,4.62-13.96,2.14-31.77.2-46.02.48-13.49.27-26.93,2.28-40.46,1.45-1.16-.21-2.03-1.08-2.28-2.22-.45-2.12-.49-18.59,0-20.97.21-1.02.69-1.6,1.75-1.75,29.26-1.41,58.56-2.3,87.91-2.45,1.94.75-.1,5.54-.17,7.19-.2,5.33,1.07,8.85,1.33,13.64ZM429.04,69.95c.25-1.67-.27-2.35-1.76-2.96l-6.24,6.7-5.99-.23c2.12,1.33,4.68.67,2.19,3.96l-2.69-.46.88,1.24c-2.24,2.7,1.06.37,2.34.32,4.82-.16,5.74,2.34,9.1-3.03l2.17,1.46-4-5.75,1.87-2.19,2.13.94ZM422.04,68.95c.66-3.09,3.09-6.5-1.24-2l-.78-2.47-4.89.06-.58,1.91c4.61-2.51,4.16.63,7.49,2.5ZM400.05,64.95c-1.23.02-2.46-.02-3.69-.03l-.81,1.79c2.06-.27,4.37-.11,4.49,2.48-2.91,1.98-5.84.65-7.99-1.73-2.15,7.53-6.01.21-9.5-1.76l2.99-1.25h-7.99c1.45,1.06,1.03,1.71.99,3.5-.29.36-2.28-.85-2.55-1.23-.84-1.19.87-2.43-.7-2.28-4.74.45-5.69,6.76-9.75,3.24l1.5-2.73c-2.03,1.61-3.72.68-5.99.51l.45,2.44c-3.02.89-3.58,3.58-6.95.79-.61-.51-.43-1.69-.5-1.74-.14-.12-2.24.75-3.49-.49v2.49c1.25-1.04,5.61.92,5.47,2.21-1.75,3.26-5.7,1.34-5.98-1.71-6.21,1.94,3.34,2.18,1.51,5.5,1.76-.47,2.52-.84,3.99.5l.79-3.47,6.72-.54-2.99-1.25c-1.1-2.72,8.56-3.54,4.99.75,2.61-.97,4.86.44,7.2.44,1.74,0,5.99-2.21,7.08.07-.74,6.12-5.36,2.41-8.78,4.25-.04.27,6.06.21,2.79,2.79-2.34,1.84-2.88-1.22-3.82-1.76-.61-.35-4.57-1.57-4.97-1.28l.96,1.67-2.23,1.83-2.5-1.01.27-2.5h-5c2.03,3.94-2.88,2.94-4,5.25,7,2.61,1.19-2.5,5.79-2.74,1.36-.07,2.38.79,3.2,1.75l-1.5,1.74c2.83-1.66,12.43.89,14.5-.5.2-.13-.74-3.02,2.23-3.48,1.04.11,2.68.92,2.25,2.21l-3.99,1.28c1.89,2.7,5.03-1.54,8-.01-1.3-2.06,1.03-3.26,2.36-4.44l2.14.95c-.44-1.48.47-4.57,2.26-4.52,2.9.08-.88,5.95,1.86,7.19,1.46.68,6.48.19,7.55-.64.59-.46.36-3.08,2.15-3.41,2.81-.51,3.69,3.35,3.96,3.42.2.05,3.97-.5,4.14-.62.55-.38.8-4.16,4.57-2.41l.5-2.5c-3.09,2.09-5.44-1.14-9-.5l4.48,1.79-.69,1.75c-1.79,1.35-4.73-.06-6.29-1.3l1.49-2.24-6,.5c2.79,5.26-2.24,3.29-2.5,3.5-.24.19.91,1.11-.28,1.94-4.33,3.03-7.25-6.17-.73-2.95l-.5-1.99,3-.76c-1.59-.98-6.51,1.62-6.51-1.5s5.8-1.61,7.76-1.75c2.69-.2,5.02-1.78,8.24-.51l-1.49-2.24,3.41-.84.58-1.92c-3.79,2.14-5.05-2.94-9,0,2.46-.04,6.8-.66,3.97,2.73l-1.64.65-2.61-1.38.28-2ZM408.05,70.44c2.14-.74,3.18-1.4,5.5-.5l-.5-2.49c-1.79.81-1.69,1.41-3.99.5l-1.01,2.49Z"/>
      <path d="M1067.9,302.12l-23.32-.29c-.37-1.98-.95-4.47-1.05-6.44-.79-14.87.3-30.08.46-44.97.09-7.79-.98-17.36-.54-24.95.35-6.11,11.4-3.44,15.77-3.23,2.02.09,8.32-1.3,9.15,1.32l-.47,78.57ZM1063.47,239.69c-3.88.81-4.02-4.14-1.25-5.99,2.07,1.39,1,3.94,1.25,5.99,1.84-.39.42-9.18-1.75-10,.75,3.13-.89,4.51-2.74,6.75-4.38.07-6.16,1.25-8.74-2.78-.41-.64-.07-1.64-.28-2.09-.39-.87-3.21-2.07-.68-4.35l1.98.45-.28,2c5.89-.23-.23-4.46-2.29-3.03-2.55,1.77-.2,4.09-.22,5.33-.04,3.46.53,7.58.47,9.95-.02,1.11-1.92,2.53-1.4,4.39.77,2.7,4.83.59,6.42.86-.4-5.23,5.92-4.42,4.73-.02-1.06,3.88-3.64.21-4.73.02.12,1.55,2.14,3.47.28,5.06-1.73,1.48-3.53-3.17-6.08-1.11l-.71,1.33c-.31,2.12,1.52,3.98,1.54,5.47.02,1.26-1.08,2.35-1.09,4.01,0,1.84,1.31,3.11,1.33,4.5.02,1.21-1.22,3.08-1.19,4.51.09,5.49,1.61,8.44.42,14.74l1.68-.96c2.17,1.24,1.37,3.39.04,4.98l-1.64-.86-.08-3.17c-.76,4.02.19,3.81,0,6.71-.11,1.52-2.78,5.04,1.01,5.05-1.62-.92-1.22-4.51.75-4.76.72-.09,1.69.59,2.47.48,1.09-.16,2.12-.91,3.09-.95,2.13-.1,4.44,1.11,6.88.02l1.06,3.96.99-10.98-2.01-1.53-3.87.95c-4.8-3.9,1.27-4.05,1.64-4.44.19-.19-.55-1.35-.45-1.77.2-.81.76-1.39.94-2.22-.64.24-1.1,1.21-2.15.95-4.73-1.16,2.98-10.1,3.16-4.15.02.74-.76,2.06-1.01,3.2,1.13-.43,1.11-1.09,2.26-1.04l1.24,1.04-.51-11.22c.13-2.73,1.65-8.75,1.55-11.01-.07-1.7-1.36-2.38-1.54-3.56-.36-2.47-.08-7.31-.5-10.71ZM1060.97,229.18v-1.49s-5-1-5-1l2,1-1,2.99,4-1.5Z"/>
      <path d="M133.09,90.39c1.6-6.06,2.56-12.34,1.92-18.66-.22-2.14-3.2-4.06.38-6.18l89.31-1c-.14,3.93,1.64,21.59-1.51,23.31l-90.11,2.54M221.04,80.94l-.75-1.49c-5.74,5.4-4.55-.36-9.25-1.51l.92,1.65-.92,1.6c-2.9,1.47-3.33-2.39-6-2.25l1.97,3.46c-3.09,2.04-4.72-.54-7.97.54v1.49s10.16-1.33,10.16-1.33c4.12.73,7.94.4,11.84,1.84v-2.5c-3.65,2.76-4.16-1.8,0-1.5ZM211.54,70.44l-.33-1.49-5.16-1,1.01,2.49c1.3-1.45,4.32.17,4.49,0ZM163.51,82.41c1.12-1.27-.63-2.84-2.32-1.32-.48.43-.25,2.34-1.88,2.35l-2.76-2.24,3.49-1.25-6.5.5c-.06,1.75,2.61.83,3.54,2.37.48.79.26,1.35-.03,2.12,2.97.48,3.08-1.11,4.51-2.25.47-.38,1.82-.13,1.96-.29ZM144.54,73.45l.51-2.99h-4s0,1.98,0,1.98l3.49,1.01Z"/>
      <path d="M234.71,725.45c-.07.14-2.6,1.49-2.75,1.51-1.38.16-4.86-1-6.52-1.01-2.41-.02-4.86,1.5-7.22.51-.56-.86,3.2-4.49,4.24-4.49.61,0,1.49.99,2.99,1.05,1.96.08,5.16-1.59,6.93-.98.48.17,2.58,2.9,2.34,3.41Z"/>
      <path d="M241.22,729.45l.62-1.12c2.89-.42,4.27-1.55,4.45,1.43.13,2.13,2.21-.6,2.78-.72.8-.17,2.56.51,3.9.45,2.39-.11,3.98-2.49,5.25,2.19-5.68,3.16-11.79.38-16.99-2.23Z"/>
      <path d="M237.32,723.56c1.27-2.67,13.6-1.38,12.4,2.63-.44,1.47-8.89-.25-10.77,1.06-1.12-.24-2.1-2.69-1.62-3.69Z"/>
      <path d="M202.22,726.96c.05-6.31,2.4-3.32,4.73-3.48s8.86-2.64,8.76,1.28-5.91,1.1-8.24,1.16c-1.9.05-3.35,1.19-5.25,1.04Z"/>
      <path d="M229.72,728.23l-2.44,2.42c-.2.2-.5.25-.75.13l-4.31-2.07c-.41-1.6,6.57-2.59,7.5-.48Z"/>
      <path d="M270.71,727.45l-4.49.5c.1-3.37,3.65-4.15,4.49-.5Z"/>
      <path d="M330.74,729.98c-.38.22-.64,2.5-3.77,1.48l-.24-1.24c3.26-1.67,6.07-5.69,9.98-3.01.16.72-2.78,3.4-3.49,3.56-1.17.26-1.87-1.15-2.48-.8Z"/>
      <path d="M334.92,730.1c-.02.19-1.9,2.79-2.6,2.77-1.69-.53-3.02-2.25-1.79-3.81.87-1.11,2.09-1.76,3.32-.76.33.44,1.12,1.3,1.08,1.79Z"/>
      <path d="M64.79,713.21c1.38.42,2.89-3.49,2.49-3.99-1.74.48-1.68-1.46-2.99-2l.5,6Z"/>
      <path d="M69.79,704.21c.75.73,5.35-3.63,4.49-4.49-2.57-.16-4.1,2.23-4.49,4.49Z"/>
      <polygon points="56.28 699.7 58.27 700.49 59.78 699.95 57.96 697.75 56.28 699.7"/>
      <path d="M68.78,795.71c-.81-2.3-2.94-3.19-3.28-5.96-.28-2.36-.16-7.39-.26-10.28-.06-1.64,1.63-4.2-.45-5.25l-1.37,17.67c.37,2.6,2.07,1.14,2.86,1.56.68.37.99,2.57,2.51,2.27Z"/>
      <polygon points="78.78 782.7 71.79 778.71 73.28 782.49 78.78 782.7"/>
      <path d="M261.55,73.45c1.18-.27,1.59-1.17,3.01-.81,4.12,1.04,2.03,5.34-1.15,5.76l-2.89-2.27c.02-1.02.63-1.81,1.04-2.68-1.29.29-2.12,1.16-3.51.8-.67-.17-6.66-4.78-6.49-5.55l6.5-.76-1.49,3.5c1.32-.41,3.07-2.12,4.51-1.8,3.46.77,1.1,2.52.49,3.8Z"/>
      <path d="M1054.47,183.69c-.09,2.5-.22,11.38.51,13.12.28.68,3.83,3.11,2.95,5.55l-1.21.85c-1.95-1.12-3.27-3.8-2.25-6.02l-4,4.78-2.27-.78c-1.36-2.57,3.24-4,3.31-4.28.17-.64-.47-5.5-2.02-3.93-1.58-1.58-2.41-4.28.23-5.28l1.76,3.5v-7c0-.38-5.49-2.88-1.7-5.97,2.07-.62,3.24,4.06,2.2,5.46,1.04-.63,1.83-.03,2.5,0,.29-8.28,6.53-2.86,1.63.42-.85.23-1.34-.41-1.63-.42Z"/>
      <path d="M1054.97,170.19c-.47,0-1.57.86-2.37-.13.56-4.24-5.09-5.19-2.92-8.91l1.82-.24.97,4.77c.54-1.65-1.87-10.82,1.79-8.03,2.08,1.59.56,4.14.7,6.27.23,3.58,1,1.97.02,6.26.56,0,1.34-.7,2-.28l2.27,4.77c-1.33,3.32-4.88-.2-5.21-1.84-.18-.88.72-1.68.94-2.64Z"/>
      <path d="M1048.04,160.12c-1.45-.74-1.95-10.51.66-9.92,3.49.79,3.37,11.99-.66,9.92Z"/>
      <path d="M1051.97,174.69c-1.71-.23-2.11-.12-3.49-1.5.76,2.26,1.6,3.21-.08,5.42l-1.69-.41c-1.89-2.23,3.36-9.2,5.23-7.99,1.05,1.68.07,3.12.03,4.48.21.03.86-.78,1.97-.27,2.79,1.28,2.19,4.87-.24,6.26-2.7-1.36-1.8-4.07-1.74-5.99Z"/>
      <path d="M1059.96,171.69c-1.3.87-4.19-5.46-.73-6.49,1.75-.48,1.33,5.56.73,6.49Z"/>
      <path d="M1046.98,182.69l1.75.5c1.49,1.83-.12,3.22-1.51,4.49-1.47-1.28-.62-3.39-.24-4.99Z"/>
      <path d="M1046.97,197.19l-.51-3.76,1.25-1.24,1.69,3.64c-.44,1.05-1.3,1.51-2.43,1.36Z"/>
      <path d="M1049.86,167.05c1.35,4.5-3.97,4.09-2.16-.88l1.28-.25c.36.31.74.64.88,1.12Z"/>
      <path d="M1057.93,165.16c-1.6,1.3-2.81-2.96-1.2-3.46,2.16-.67,1.96,2.84,1.2,3.46Z"/>
      <path d="M1044.03,384.46l.54-70.31c.36-1.15.86-2.05,2.15-2.35,1.39-.32,19.94-.32,20.92.06l.75,73.61-22.7-.15-1.66-.85ZM1050.46,336.78c-.14,2.1-.25,3.5-.99,5.5l2.24-1.49c1.83.92.15,5.36-2.24,3.5.84,2.93-.61,5.15-.53,8.26.04,1.62.96,3.22.94,4.5-.02,2-1.87,5.06-1.96,7.49-.1,2.57,1.62,5.88,1.59,7.5s-2.72,4.57-1.54,7.24l1.76-5.5c1.06-.22,4.64,4.52,3.01,6.02-1.06.97-3.79.07-2.78,1.24l7.01-1.75c-2.88.18-1.88-2.44-2.01-4.51l-1.72,1c-2.13-2.07-1.83-2.92-1.27-5.5-.5-.14-1.33.23-2-.24-2.03-1.43-.77-9.59.51-11.76,3.89.87,2.9,7.11,2.46,10.23-.12.85-.9,1.43-.97,1.77.48.14,1.34-.2,1.78.47l.72,2.53c.01-2.93-1.37-7.53,3.03-7.28l.48,5.28,1.74-1.99c3.37,2.59,2.05,5-.5,7.49l-1.24-.99c-.89,3.29,1.57,5.35,4.65,5.42l.84-.93c-6.1.15-3.84-2.46-1.22-5.52l1.27.31-.05,5.21.99-62.5-1.72,1-2.03-4.03-1.74.03c1.39,1.69-.84,6.25-2.54,4.69l-3.22-4.68-1.49,2.98-1.74-.99c.93,2.61.06,4.04-.5,6.5l2.23-1.99c2.92,2.36,1.63,4.24-.51,6.47l-1.23-.23-.99-2.24c1.04,2.08-.99,11.01,1.5,11.5.09-1.44-.61-2.48-.38-4.09.09-.65,2.11-4.99,2.64-5.4l1.4-.46c1.99.47,1.46,4.66.9,6.16l-1.75.23-1.8-1.43,1.95,3.64-2.95,1.35Z"/>
      <path d="M1055.96,336.78c.09-2.5.22-11.38-.51-13.12-.28-.68-3.83-3.11-2.95-5.55l1.21-.85c1.95,1.12,3.27,3.8,2.25,6.02l4-4.78,2.27.78c1.36,2.57-3.24,4-3.31,4.28-.17.64.47,5.5,2.02,3.93,1.58,1.58,2.41,4.28-.23,5.28l-1.76-3.5v7c0,.38,5.49,2.88,1.7,5.97-2.07.62-3.24-4.06-2.2-5.46-1.04.63-1.83.03-2.5,0-.29,8.28-6.53,2.86-1.63-.42.85-.23,1.34.41,1.63.42Z"/>
      <path d="M1055.46,350.28c.47,0,1.57-.86,2.37.13-.56,4.24,5.09,5.19,2.92,8.91l-1.82.24-.97-4.77c-.54,1.65,1.87,10.82-1.79,8.03-2.08-1.59-.56-4.14-.7-6.27-.23-3.58-1-1.97-.02-6.26-.56,0-1.34.7-2,.28l-2.27-4.77c1.33-3.32,4.88.2,5.21,1.84.18.88-.72,1.68-.94,2.64Z"/>
      <path d="M1062.39,360.36c1.45.74,1.95,10.51-.66,9.92-3.49-.79-3.37-11.99.66-9.92Z"/>
      <path d="M1058.46,345.78c1.71.23,2.11.12,3.49,1.5-.76-2.26-1.6-3.21.08-5.42l1.69.41c1.89,2.23-3.36,9.2-5.23,7.99-1.05-1.68-.07-3.12-.03-4.48-.21-.03-.86.78-1.97.27-2.79-1.28-2.19-4.87.24-6.26,2.7,1.36,1.8,4.07,1.74,5.99Z"/>
      <path d="M1050.46,348.79c1.3-.87,4.19,5.46.73,6.49-1.75.48-1.33-5.56-.73-6.49Z"/>
      <path d="M1063.45,337.78l-1.75-.5c-1.49-1.83.12-3.22,1.51-4.49,1.47,1.28.62,3.39.24,4.99Z"/>
      <path d="M1063.45,323.28l.51,3.76-1.25,1.24-1.69-3.64c.44-1.05,1.3-1.51,2.43-1.36Z"/>
      <path d="M1060.56,353.42c-1.35-4.5,3.97-4.09,2.16.88l-1.28.25c-.36-.31-.74-.64-.88-1.12Z"/>
      <path d="M1052.5,355.32c1.6-1.3,2.81,2.96,1.2,3.46-2.16.67-1.96-2.84-1.2-3.46Z"/>
      <path d="M490.08,723.57l-4.03,1.73-.94-2.69c.24-1.1,4.07-1.02,5-.43l-.04,1.39Z"/>
      <path d="M451.33,724.61l-.52-1.11c.96-1.98,3.1-1.32,4.84-.87l-.44,1.76-3.88.23Z"/>
      <path d="M470.3,723.58l-.42-.84.57-.96c7.52-1.31,2.98,4.37-.14,1.81Z"/>
      <path d="M446.06,368.69c-.89-.07-1.88.12-2.76,0-3.84-.52,3.13-4.32,2.76,0Z"/>
      <path d="M418.65,723.15l3.5.65c-.98,2.81-3.45,2.11-3.5-.65Z"/>
      <path d="M384.48,74.3c.4,1.73-3.09,2.27-3.75,4.12l-3.17-2.22,4.35-3.69c.87-.32,2.41,1.07,2.58,1.79Z"/>
      <path d="M387.47,71.3c.51,2.01-1.19,3.29-3.17,1.64-3.46-2.87,2.52-4.23,3.17-1.64Z"/>
      <path d="M370.55,69.94c-.42-2.56,4.15-4.65,4.93-1.67.65,2.48-3.71,1.53-4.93,1.67Z"/>
      <path d="M379.12,67.52c.86-1.65,4.63-.82,4.38,1.1-.42,3.13-5.56,1.17-4.38-1.1Z"/>
      <path d="M365.04,80.44c-.25-2.96,3.5-3.41,5-1.23-.74,2.49-3.21,1.34-5,1.23Z"/>
      <path d="M421.62,77.05c-.19.05-2.17,3.39-2.34-.12,2.52-.45,4.29-7.71,6.78-2.7-.44,3.82-3.23,2.49-4.45,2.82Z"/>
      <path d="M1061.47,263.2c-.19.18,1.53,3.89-1.36,4.44-1.03.2-1.57-1.02-3.24-.87-2.14.2-2.21,2.13-4.1,2.45-.85-1.41-2.32-2.22-1.55-4.02,2.1-4.93,6.59-.9,9.88-2.52.88-.43,1.02-3.3,2.87-2.99l-.21,3.03-2.29.47Z"/>
      <path d="M1059.47,268.7l-2.26,4.48c-.85,1.44-2.85-1.2-3.03-1.97-.64-2.75,3.3-3.64,5.29-2.51Z"/>
      <path d="M1060.88,244.59l-1.9-.15-1.93-3.08,2.17-2.56c2.63,1.42,3.66,3.19,1.66,5.79Z"/>
      <path d="M1062.9,258.03c.07,2.06-3.35,3.85-4.67.13-1.51-4.26,4.56-3.31,4.67-.13Z"/>
      <path d="M1053.86,244.57c-1.68,1.01-4.52-2.41-2.67-4.41,3.22-3.47,4.88,3.08,2.67,4.41Z"/>
      <path d="M1052.48,277.69l-1.97-3.66,3.2-2.35c1.18,1.83,2.13,4.01.03,5.54l-1.26.48Z"/>
      <path d="M1057.9,285.56c.85,2.98-3.68,5.55-3.91,1.35-.17-3.09,3.26-3.63,3.91-1.35Z"/>
      <path d="M1058.42,278.04c.9,3.63-8.3,4.55-2.46-1.61.74-.24,2.3.95,2.46,1.61Z"/>
      <path d="M1063.97,289.69c-.9.61-6.75-5.05-1.73-5,2.19.02,2.7,3.44,1.73,5Z"/>
      <path d="M1058.25,288.46c.49-.46.3-1.23,1.64-.66l2.07,3.15c-.18,1.44-7.61,1.18-3.71-2.49Z"/>
      <path d="M1056.04,256.11c-.13-.07-1.56-2.44-1.54-2.6l2.21-2.3,1.76,3.19c-.09,1.06-1.42,2.24-2.44,1.71Z"/>
      <path d="M1051.92,237.55c.26,1.1-1.11,2.45-2.18,2.64-1.4-1.21-1.62-3.32-1.03-5.01.58-1.04,3.12,1.99,3.2,2.36Z"/>
      <path d="M1061.9,249.06c.77,2.75-3.27,4.22-3.87,1.28-.4-1.97,3.12-3.93,3.87-1.28Z"/>
      <path d="M1054.4,259.62c-2.22,1.17-4.52-4.03-.66-4.45,1.6-.18,2.09,3.7.66,4.45Z"/>
      <path d="M1053.9,280.77c1.65.86.82,4.63-1.1,4.38-3.13-.42-1.17-5.56,1.1-4.38Z"/>
      <path d="M1054.91,290.53c.08,2.36-7.98,2.81-2.14-2.31.79-.13,2.12,1.71,2.14,2.31Z"/>
      <path d="M1052.4,260.27c1.55,2.51-4.34,7.1-2.7-.1l2.7.1Z"/>
      <path d="M1064.37,254.08c.4,4.52-4.27.35-2.67-1.9l1.79-.26c.32.22.83,1.7.87,2.16Z"/>
      <path d="M1051.91,253.03c.64,1.88-1.96,3.33-2.71,2.18-1.82-2.79,1.8-4.85,2.71-2.18Z"/>
      <path d="M1058.39,260.56c.29,2.67-3.11,1.41-3.37.33-.46-1.89,3.03-3.5,3.37-.33Z"/>
      <path d="M1050.4,243.78c1.17.62,1.66,4.49-1.12,3.37-1.67-.67-.83-4.41,1.12-3.37Z"/>
      <path d="M1063.39,245.03c.29.83.27,3.4-1.16,3.17l-1.18-1.36,1.18-2.63,1.16.83Z"/>
      <path d="M1049.47,272.69v-3.74c3.38-.73,3.08,3.31,0,3.74Z"/>
      <path d="M1063.46,270.69c-2.24,1.44-3.13-3.5-.74-3.49,1.15,0,1.46,3.03.74,3.49Z"/>
      <path d="M1057.47,237.96c.5,1.77-2.34,3.22-2.92.89-.52-2.11,2.58-2.11,2.92-.89Z"/>
      <path d="M1049.98,277.19l1.95,1.33-1.21,2.66c-1.68-1.15-1.3-2.31-.74-3.99Z"/>
      <path d="M1069.68,473.99c-.82,2.62-7.13,1.22-9.15,1.32-4.36.2-15.42,2.88-15.77-3.23-.44-7.59.63-17.16.54-24.95-.16-14.89-1.25-30.1-.46-44.97.1-1.97.68-4.46,1.05-6.44l23.32-.29.47,78.57ZM1065.29,447.14c.17-1.18,1.47-1.85,1.54-3.56.09-2.26-1.42-8.28-1.55-11.01l.51-11.22-1.24,1.04c-1.15.05-1.13-.61-2.26-1.04.25,1.14,1.03,2.46,1.01,3.2-.17,5.94-7.89-2.99-3.16-4.15,1.05-.26,1.51.71,2.15.95-.18-.83-.74-1.41-.94-2.22-.11-.42.63-1.58.45-1.77-.37-.39-6.45-.53-1.64-4.44l3.87.95,2.01-1.53-.99-10.98-1.06,3.96c-2.44-1.09-4.74.12-6.88.02-.97-.05-2-.8-3.09-.95-.78-.11-1.75.57-2.47.48-1.97-.25-2.37-3.84-.75-4.76-3.79,0-1.11,3.53-1.01,5.05.2,2.9-.75,2.69,0,6.71l.08-3.17,1.64-.86c1.33,1.59,2.12,3.74-.04,4.98l-1.68-.96c1.19,6.3-.33,9.24-.42,14.74-.02,1.43,1.21,3.3,1.19,4.51-.02,1.39-1.34,2.66-1.33,4.5,0,1.66,1.11,2.74,1.09,4.01-.02,1.48-1.85,3.35-1.54,5.47l.71,1.33c2.55,2.07,4.35-2.59,6.08-1.11,1.86,1.59-.16,3.51-.28,5.06,1.08-.19,3.67-3.86,4.73.02,1.2,4.4-5.13,5.21-4.73-.02-1.59.28-5.65-1.84-6.42.86-.53,1.86,1.37,3.28,1.4,4.39.05,2.37-.51,6.49-.47,9.95.01,1.25-2.33,3.56.22,5.33,2.06,1.43,8.18-2.8,2.29-3.03l.28,2-1.98.45c-2.53-2.28.29-3.47.68-4.35.2-.45-.13-1.45.28-2.09,2.59-4.02,4.36-2.84,8.74-2.78,1.85,2.24,3.49,3.63,2.74,6.75,2.17-.82,3.59-9.61,1.75-10-.25,2.05.82,4.59-1.25,5.99-2.77-1.85-2.63-6.8,1.25-5.99.42-3.39.14-8.24.5-10.71ZM1058.28,466.85l1,2.99-2,1,5-1v-1.49s-4-1.5-4-1.5Z"/>
      <path d="M1062.78,434.34c-.19-.18,1.53-3.89-1.36-4.44-1.03-.2-1.57,1.02-3.24.87-2.14-.2-2.21-2.13-4.1-2.45-.85,1.41-2.32,2.22-1.55,4.02,2.1,4.93,6.59.9,9.88,2.52.88.43,1.02,3.3,2.87,2.99l-.21-3.03-2.29-.47Z"/>
      <path d="M1060.78,428.84l-2.26-4.48c-.85-1.44-2.85,1.2-3.03,1.97-.64,2.75,3.3,3.64,5.29,2.51Z"/>
      <path d="M1062.19,452.95l-1.9.15-1.93,3.08,2.17,2.56c2.63-1.42,3.66-3.19,1.66-5.79Z"/>
      <path d="M1064.21,439.51c.07-2.06-3.35-3.85-4.67-.13-1.51,4.26,4.56,3.31,4.67.13Z"/>
      <path d="M1055.18,452.97c-1.68-1.01-4.52,2.41-2.67,4.41,3.22,3.47,4.88-3.08,2.67-4.41Z"/>
      <path d="M1053.8,419.85l-1.97,3.66,3.2,2.35c1.18-1.83,2.13-4.01.03-5.54l-1.26-.48Z"/>
      <path d="M1059.21,411.98c.85-2.98-3.68-5.55-3.91-1.35-.17,3.09,3.26,3.63,3.91,1.35Z"/>
      <path d="M1059.74,419.5c.9-3.63-8.3-4.55-2.46,1.61.74.24,2.3-.95,2.46-1.61Z"/>
      <path d="M1065.28,407.85c-.9-.61-6.75,5.05-1.73,5,2.19-.02,2.7-3.44,1.73-5Z"/>
      <path d="M1059.56,409.08c.49.46.3,1.23,1.64.66l2.07-3.15c-.18-1.44-7.61-1.18-3.71,2.49Z"/>
      <path d="M1057.36,441.43c-.13.07-1.56,2.44-1.54,2.6l2.21,2.3,1.76-3.19c-.09-1.06-1.42-2.24-2.44-1.71Z"/>
      <path d="M1053.23,459.99c.26-1.1-1.11-2.45-2.18-2.64-1.4,1.21-1.62,3.32-1.03,5.01.58,1.04,3.12-1.99,3.2-2.36Z"/>
      <path d="M1063.21,448.48c.77-2.75-3.27-4.22-3.87-1.28-.4,1.97,3.12,3.93,3.87,1.28Z"/>
      <path d="M1055.71,437.92c-2.22-1.17-4.52,4.03-.66,4.45,1.6.18,2.09-3.7.66-4.45Z"/>
      <path d="M1055.21,416.77c1.65-.86.82-4.63-1.1-4.38-3.13.42-1.17,5.56,1.1,4.38Z"/>
      <path d="M1056.23,407.01c.08-2.36-7.98-2.81-2.14,2.31.79.13,2.12-1.71,2.14-2.31Z"/>
      <path d="M1053.71,437.27c1.55-2.51-4.34-7.1-2.7.1l2.7-.1Z"/>
      <path d="M1065.69,443.46c.4-4.52-4.27-.35-2.67,1.9l1.79.26c.32-.22.83-1.7.87-2.16Z"/>
      <path d="M1053.23,444.51c.64-1.88-1.96-3.33-2.71-2.18-1.82,2.79,1.8,4.85,2.71,2.18Z"/>
      <path d="M1059.71,436.98c.29-2.67-3.11-1.41-3.37-.33-.46,1.89,3.03,3.5,3.37.33Z"/>
      <path d="M1051.71,453.76c1.17-.62,1.66-4.49-1.12-3.37-1.67.67-.83,4.41,1.12,3.37Z"/>
      <path d="M1064.7,452.51c.29-.83.27-3.4-1.16-3.17l-1.18,1.36,1.18,2.63,1.16-.83Z"/>
      <path d="M1050.79,424.85v3.74c3.38.73,3.08-3.31,0-3.74Z"/>
      <path d="M1064.78,426.85c-2.24-1.44-3.13,3.5-.74,3.49,1.15,0,1.46-3.03.74-3.49Z"/>
      <path d="M1058.78,459.58c.5-1.77-2.34-3.22-2.92-.89-.52,2.11,2.58,2.11,2.92.89Z"/>
      <path d="M1051.29,420.35l1.95-1.33-1.21-2.66c-1.68,1.15-1.3,2.31-.74,3.99Z"/>
      <path d="M1069.25,568.82l-23.32-.29c-.37-1.98-.95-4.47-1.05-6.44-.79-14.87.3-30.08.46-44.97.09-7.79-.98-17.36-.54-24.95.35-6.11,11.4-3.44,15.77-3.23,2.02.09,8.32-1.3,9.15,1.32l-.47,78.57ZM1064.82,506.4c-3.88.81-4.02-4.14-1.25-5.99,2.07,1.39,1,3.94,1.25,5.99,1.84-.39.42-9.18-1.75-10,.75,3.13-.89,4.51-2.74,6.75-4.38.07-6.16,1.25-8.74-2.78-.41-.64-.07-1.64-.28-2.09-.39-.87-3.21-2.07-.68-4.35l1.98.45-.28,2c5.89-.23-.23-4.46-2.29-3.03-2.55,1.77-.2,4.09-.22,5.33-.04,3.46.53,7.58.47,9.95-.02,1.11-1.92,2.53-1.4,4.39.77,2.7,4.83.59,6.42.86-.4-5.23,5.92-4.42,4.73-.02-1.06,3.88-3.64.21-4.73.02.12,1.55,2.14,3.47.28,5.06-1.73,1.48-3.53-3.17-6.08-1.11l-.71,1.33c-.31,2.12,1.52,3.98,1.54,5.47.02,1.26-1.08,2.35-1.09,4.01,0,1.84,1.31,3.11,1.33,4.5.02,1.21-1.22,3.08-1.19,4.51.09,5.49,1.61,8.44.42,14.74l1.68-.96c2.17,1.24,1.37,3.39.04,4.98l-1.64-.86-.08-3.17c-.76,4.02.19,3.81,0,6.71-.11,1.52-2.78,5.04,1.01,5.05-1.62-.92-1.22-4.51.75-4.76.72-.09,1.69.59,2.47.48,1.09-.16,2.12-.91,3.09-.95,2.13-.1,4.44,1.11,6.88.02l1.06,3.96.99-10.98-2.01-1.53-3.87.95c-4.8-3.9,1.27-4.05,1.64-4.44.19-.19-.55-1.35-.45-1.77.2-.81.76-1.39.94-2.22-.64.24-1.1,1.21-2.15.95-4.73-1.16,2.98-10.1,3.16-4.15.02.74-.76,2.06-1.01,3.2,1.13-.43,1.11-1.09,2.26-1.04l1.24,1.04-.51-11.22c.13-2.73,1.65-8.75,1.55-11.01-.07-1.7-1.36-2.38-1.54-3.56-.36-2.47-.08-7.31-.5-10.71ZM1062.32,495.89v-1.49s-5-1-5-1l2,1-1,2.99,4-1.5Z"/>
      <path d="M1045.38,660.02l.54-75.32c.36-1.15.86-2.05,2.15-2.35,1.39-.32,19.94-.32,20.92.06l.75,75.61-22.7,2.85-1.66-.85ZM1051.8,609.35c-.14,2.1-.25,3.5-.99,5.5l2.24-1.49c1.83.92.15,5.36-2.24,3.5.84,2.93-.61,5.15-.53,8.26.04,1.62.96,3.22.94,4.5-.02,2-1.87,5.06-1.96,7.49-.1,2.57,1.62,5.88,1.59,7.5s-2.72,4.57-1.54,7.24l1.76-5.5c1.06-.22,4.64,4.52,3.01,6.02-1.06.97-3.79.07-2.78,1.24l7.01-1.75c-2.88.18-1.88-2.44-2.01-4.51l-1.72,1c-2.13-2.07-1.83-2.92-1.27-5.5-.5-.14-1.33.23-2-.24-2.03-1.43-.77-9.59.51-11.76,3.89.87,2.9,7.11,2.46,10.23-.12.85-.9,1.43-.97,1.77.48.14,1.34-.2,1.78.47l.72,2.53c.01-2.93-1.37-7.53,3.03-7.28l.48,5.28,1.74-1.99c3.37,2.59,2.05,5-.5,7.49l-1.24-.99c-.89,3.29,1.57,5.35,4.65,5.42l.84-.93c-6.1.15-3.84-2.46-1.22-5.52l1.27.31-.05,5.21.99-62.5-1.72,1-2.03-4.03-1.74.03c1.39,1.69-.84,6.25-2.54,4.69l-3.22-4.68-1.49,2.98-1.74-.99c.93,2.61.06,4.04-.5,6.5l2.23-1.99c2.92,2.36,1.63,4.24-.51,6.47l-1.23-.23-.99-2.24c1.04,2.08-.99,11.01,1.5,11.5.09-1.44-.61-2.48-.38-4.09.09-.65,2.11-4.99,2.64-5.4l1.4-.46c1.99.47,1.46,4.66.9,6.16l-1.75.23-1.8-1.43,1.95,3.64-2.95,1.35Z"/>
      <path d="M1057.3,609.35c.09-2.5.22-11.38-.51-13.12-.28-.68-3.83-3.11-2.95-5.55l1.21-.85c1.95,1.12,3.27,3.8,2.25,6.02l4-4.78,2.27.78c1.36,2.57-3.24,4-3.31,4.28-.17.64.47,5.5,2.02,3.93,1.58,1.58,2.41,4.28-.23,5.28l-1.76-3.5v7c0,.38,5.49,2.88,1.7,5.97-2.07.62-3.24-4.06-2.2-5.46-1.04.63-1.83.03-2.5,0-.29,8.28-6.53,2.86-1.63-.42.85-.23,1.34.41,1.63.42Z"/>
      <path d="M1056.8,622.85c.47,0,1.57-.86,2.37.13-.56,4.24,5.09,5.19,2.92,8.91l-1.82.24-.97-4.77c-.54,1.65,1.87,10.82-1.79,8.03-2.08-1.59-.56-4.14-.7-6.27-.23-3.58-1-1.97-.02-6.26-.56,0-1.34.7-2,.28l-2.27-4.77c1.33-3.32,4.88.2,5.21,1.84.18.88-.72,1.68-.94,2.64Z"/>
      <path d="M1063.73,632.92c1.45.74,1.95,10.51-.66,9.92-3.49-.79-3.37-11.99.66-9.92Z"/>
      <path d="M1059.8,618.35c1.71.23,2.11.12,3.49,1.5-.76-2.26-1.6-3.21.08-5.42l1.69.41c1.89,2.23-3.36,9.2-5.23,7.99-1.05-1.68-.07-3.12-.03-4.48-.21-.03-.86.78-1.97.27-2.79-1.28-2.19-4.87.24-6.26,2.7,1.36,1.8,4.07,1.74,5.99Z"/>
      <path d="M1051.81,621.35c1.3-.87,4.19,5.46.73,6.49-1.75.48-1.33-5.56-.73-6.49Z"/>
      <path d="M1064.79,610.34l-1.75-.5c-1.49-1.83.12-3.22,1.51-4.49,1.47,1.28.62,3.39.24,4.99Z"/>
      <path d="M1064.8,595.84l.51,3.76-1.25,1.24-1.69-3.64c.44-1.05,1.3-1.51,2.43-1.36Z"/>
      <path d="M1061.91,625.99c-1.35-4.5,3.97-4.09,2.16.88l-1.28.25c-.36-.31-.74-.64-.88-1.12Z"/>
      <path d="M1053.84,627.88c1.6-1.3,2.81,2.96,1.2,3.46-2.16.67-1.96-2.84-1.2-3.46Z"/>
      <path d="M1062.81,529.9c-.19.18,1.53,3.89-1.36,4.44-1.03.2-1.57-1.02-3.24-.87-2.14.2-2.21,2.13-4.1,2.45-.85-1.41-2.32-2.22-1.55-4.02,2.1-4.93,6.59-.9,9.88-2.52.88-.43,1.02-3.3,2.87-2.99l-.21,3.03-2.29.47Z"/>
      <path d="M1060.81,535.41l-2.26,4.48c-.85,1.44-2.85-1.2-3.03-1.97-.64-2.75,3.3-3.64,5.29-2.51Z"/>
      <path d="M1062.22,511.29l-1.9-.15-1.93-3.08,2.17-2.56c2.63,1.42,3.66,3.19,1.66,5.79Z"/>
      <path d="M1064.24,524.74c.07,2.06-3.35,3.85-4.67.13-1.51-4.26,4.56-3.31,4.67-.13Z"/>
      <path d="M1055.21,511.28c-1.68,1.01-4.52-2.41-2.67-4.41,3.22-3.47,4.88,3.08,2.67,4.41Z"/>
      <path d="M1053.83,544.39l-1.97-3.66,3.2-2.35c1.18,1.83,2.13,4.01.03,5.54l-1.26.48Z"/>
      <path d="M1059.24,552.26c.85,2.98-3.68,5.55-3.91,1.35-.17-3.09,3.26-3.63,3.91-1.35Z"/>
      <path d="M1059.77,544.75c.9,3.63-8.3,4.55-2.46-1.61.74-.24,2.3.95,2.46,1.61Z"/>
      <path d="M1065.31,556.4c-.9.61-6.75-5.05-1.73-5,2.19.02,2.7,3.44,1.73,5Z"/>
      <path d="M1059.6,555.17c.49-.46.3-1.23,1.64-.66l2.07,3.15c-.18,1.44-7.61,1.18-3.71-2.49Z"/>
      <path d="M1057.39,522.82c-.13-.07-1.56-2.44-1.54-2.6l2.21-2.3,1.76,3.19c-.09,1.06-1.42,2.24-2.44,1.71Z"/>
      <path d="M1053.26,504.25c.26,1.1-1.11,2.45-2.18,2.64-1.4-1.21-1.62-3.32-1.03-5.01.58-1.04,3.12,1.99,3.2,2.36Z"/>
      <path d="M1063.25,515.76c.77,2.75-3.27,4.22-3.87,1.28-.4-1.97,3.12-3.93,3.87-1.28Z"/>
      <path d="M1055.74,526.32c-2.22,1.17-4.52-4.03-.66-4.45,1.6-.18,2.09,3.7.66,4.45Z"/>
      <path d="M1055.24,547.48c1.65.86.82,4.63-1.1,4.38-3.13-.42-1.17-5.56,1.1-4.38Z"/>
      <path d="M1056.26,557.24c.08,2.36-7.98,2.81-2.14-2.31.79-.13,2.12,1.71,2.14,2.31Z"/>
      <path d="M1053.74,526.97c1.55,2.51-4.34,7.1-2.7-.1l2.7.1Z"/>
      <path d="M1065.72,520.78c.4,4.52-4.27.35-2.67-1.9l1.79-.26c.32.22.83,1.7.87,2.16Z"/>
      <path d="M1053.26,519.73c.64,1.88-1.96,3.33-2.71,2.18-1.82-2.79,1.8-4.85,2.71-2.18Z"/>
      <path d="M1059.74,527.27c.29,2.67-3.11,1.41-3.37.33-.46-1.89,3.03-3.5,3.37-.33Z"/>
      <path d="M1051.75,510.48c1.17.62,1.66,4.49-1.12,3.37-1.67-.67-.83-4.41,1.12-3.37Z"/>
      <path d="M1064.74,511.73c.29.83.27,3.4-1.16,3.17l-1.18-1.36,1.18-2.63,1.16.83Z"/>
      <path d="M1050.82,539.4v-3.74c3.38-.73,3.08,3.31,0,3.74Z"/>
      <path d="M1064.81,537.39c-2.24,1.44-3.13-3.5-.74-3.49,1.15,0,1.46,3.03.74,3.49Z"/>
      <path d="M1058.81,504.67c.5,1.77-2.34,3.22-2.92.89-.52-2.11,2.58-2.11,2.92-.89Z"/>
      <path d="M1051.32,543.9l1.95,1.33-1.21,2.66c-1.68-1.15-1.3-2.31-.74-3.99Z"/>
      <path d="M1064.13,696.04c-.19-.18,1.53-3.89-1.36-4.44-1.03-.2-1.57,1.02-3.24.87-2.14-.2-2.21-2.13-4.1-2.45-.85,1.41-2.32,2.22-1.55,4.02,2.1,4.93,6.59.9,9.88,2.52.88.43,1.02,3.3,2.87,2.99l-.21-3.03-2.29-.47Z"/>
      <path d="M1062.13,690.54l-2.26-4.48c-.85-1.44-2.85,1.2-3.03,1.97-.64,2.75,3.3,3.64,5.29,2.51Z"/>
      <path d="M1071.15,695.07l-1.89.19-1.88,3.11,2.22,2.52c2.61-1.47,3.6-3.26,1.56-5.82Z"/>
      <path d="M1065.55,701.21c.07-2.06-3.35-3.85-4.67-.13-1.51,4.26,4.56,3.31,4.67.13Z"/>
      <path d="M1064.14,695.21c-1.7-.98-4.47,2.49-2.58,4.46,3.28,3.42,4.82-3.17,2.58-4.46Z"/>
      <path d="M1055.14,681.55l-1.97,3.66,3.2,2.35c1.18-1.83,2.13-4.01.03-5.54l-1.26-.48Z"/>
      <path d="M1060.56,673.68c.85-2.98-3.68-5.55-3.91-1.35-.17,3.09,3.26,3.63,3.91,1.35Z"/>
      <path d="M1061.08,681.2c.9-3.63-8.3-4.55-2.46,1.61.74.24,2.3-.95,2.46-1.61Z"/>
      <path d="M1066.62,669.55c-.9-.61-6.75,5.05-1.73,5,2.19-.02,2.7-3.44,1.73-5Z"/>
      <path d="M1060.91,670.78c.49.46.3,1.23,1.64.66l2.07-3.15c-.18-1.44-7.61-1.18-3.71,2.49Z"/>
      <path d="M1058.7,703.13c-.13.07-1.56,2.44-1.54,2.6l2.21,2.3,1.76-3.19c-.09-1.06-1.42-2.24-2.44-1.71Z"/>
      <path d="M1062.32,702.27c.24-1.11-1.16-2.43-2.22-2.6-1.38,1.23-1.56,3.35-.94,5.03.6,1.03,3.08-2.05,3.16-2.42Z"/>
      <path d="M1072.09,690.58c.72-2.76-3.35-4.16-3.89-1.21-.37,1.98,3.2,3.87,3.89,1.21Z"/>
      <path d="M1057.06,699.62c-2.22-1.17-4.52,4.03-.66,4.45,1.6.18,2.09-3.7.66-4.45Z"/>
      <path d="M1056.56,678.47c1.65-.86.82-4.63-1.1-4.38-3.13.42-1.17,5.56,1.1,4.38Z"/>
      <path d="M1057.57,668.71c.08-2.36-7.98-2.81-2.14,2.31.79.13,2.12-1.71,2.14-2.31Z"/>
      <path d="M1055.06,698.97c1.55-2.51-4.34-7.1-2.7.1l2.7-.1Z"/>
      <path d="M1067.03,705.16c.4-4.52-4.27-.35-2.67,1.9l1.79.26c.32-.22.83-1.7.87-2.16Z"/>
      <path d="M1054.57,706.22c.64-1.88-1.96-3.33-2.71-2.18-1.82,2.79,1.8,4.85,2.71,2.18Z"/>
      <path d="M1061.05,698.68c.29-2.67-3.11-1.41-3.37-.33-.46,1.89,3.03,3.5,3.37.33Z"/>
      <path d="M1060.69,696.07c1.15-.64,1.58-4.52-1.19-3.35-1.66.7-.75,4.42,1.19,3.35Z"/>
      <path d="M1073.66,694.58c.28-.84.2-3.4-1.22-3.14l-1.16,1.39,1.23,2.61,1.15-.85Z"/>
      <path d="M1052.13,686.55v3.74c3.38.73,3.08-3.31,0-3.74Z"/>
      <path d="M1066.12,688.55c-2.24-1.44-3.13,3.5-.74,3.49,1.15,0,1.46-3.03.74-3.49Z"/>
      <path d="M1052.64,682.05l1.95-1.33-1.21-2.66c-1.68,1.15-1.3,2.31-.74,3.99Z"/>
      <path d="M84.02,133.67c.35-2.12,4.36-5.06,5.74-7.26,3.4-5.43,3.86-13.18,4.79-19.46,8.95.36,16.6.26,24.15-5.1,6.22-4.41,2.89-4.89,12.59-5.3,23.72-.98,48.61.3,72.52-.09,63.52-1.04,127.03-2.94,190.46-4.04,14.1,1.39,31.08-2.27,45.27-1.32v-15.6c-.7-3.65-.7-7.48,0-11.2v-11.93c-103.94,3.47-208.2,3.87-312.28,6.1-8.18-5.86-16.64-11.51-27.49-10.54-2.35.21-4.01,1.13-6.23,1.51,7.15-21.53-3.92-43.82-28.74-41.98-20.11,1.49-30.52,21.67-26.76,39.99-17.42-3.26-33.1,5.51-37.25,23-4.78,20.15,12.72,40.32,33.75,35.5-.12,11.74,3.67,20.61,12.49,28.26,0,0,17.67,8.03,36.99-.54ZM73.03,31.68h-1.49c-1.73.86-1.07,13.3-1.62,15.92-.27,1.29-1.02,1.85-2.38,1.84l1.01-22.25c-.01-1.72,5.05.68,5.84,1.15,12.17,7.26,6.16,25.9-7.35,26.6v-3c10.08-.85,14.77-14.05,5.98-20.27ZM72.55,46.45l.74-11c2.6,2.94,2.39,8.34-.74,11ZM111.29,74.44c.85-.2,1.17-.29,1.28-1.25-1.85-6.04-8.13-8.35-13.98-6.45-3.87,1.25-4.22,5.21-8.54,3.7,7.45-13.58,25.9-8.52,27,6.5-8.91-.72-18.94-.09-27.6-2.15-1.48-.35-11.84-4.07-12.39-4.61-.71-.69-.62-2.08-1.01-2.98l1.02-.55c5.47,2.71,11.8,5.67,17.85,6.67,2.71.44,14.31,1.6,16.37,1.12ZM97.05,70.2c.73-3.28,12.21-2.59,12,2.24-1.88.64-3.3-.92-4.74-1.04-.96-.08-7.76,1.04-7.26-1.2ZM111.83,81.45c-1.02-2.13-14.18-.4-16.95-1.09l-.85-2.68,22.49,2.05c-4.15,16.75-29.56,14.92-27.97-3.29l3.05.7c-.52,12.21,16.52,15.42,20.23,4.3ZM95.55,83.44l.25-1h12.74c-3,4.65-9.02,4.82-12.99,1ZM66.12,98.38c-1.71-7.23,6.53-2.18,8.92.33,8.24,8.66,2.58,24.27-9.49,24.75l.5-22.51h1.49s-.02,17.28-.02,17.28c10.92-2.24,8.7-18.32-1.41-19.85ZM69.55,114.95l.5-11h1.48c1.46,3.84,1.68,8.35-1.98,11ZM72.54,84.45l-3.06,7.92-1.96-.15c-.99-.7,2.33-8.88,5.02-7.77ZM66.23,83.93c-.58,0-1.05.1-1.46-.45l-.2-2c5.71.23,15.45-4.94,20.28-5.02.74-.01,1.34-.02,1.65.8.13.58.17,1.19-.18,1.71-.57.86-18.75,4.96-20.09,4.96ZM63.55,123.45c-15.67-.81-17.84-24.18-3-28,1.29,4.68-2.89,5.52-4.53,8.72-2.88,5.62-.53,10.84,4.3,14.28l1.14-.83,1.09-21.91c-1.74-8.32-6.77-17.24-3.16-25.77l2.66.02c-2.28,7.8,2.22,15.82,2.51,23.28.11,2.93-.99,6.56-1.02,9.45-.08,6.92.1,13.86.02,20.77ZM59.79,102.94l-.25,12.01c-4.63-2.01-3.48-9.56.25-12.01ZM45.3,72.96c-.47-.13-.35-1.41-.26-1.75.94-3.35,19.32-7.4,23.18-6.18l1.32,2.93h-9.75c-3.11,0-13.75,5.19-14.49,5.01ZM56.54,70.95l-.52,6.48c-.25.19-5.37-1.39-6.06-1.66-.77-.3-2.74-.67-2.42-1.82l9-3ZM68.55,56.95c2.81-2.79,6.5,11.42,6.5,12.75v7.75l-2.96-.32c1.64-7.03-2.42-13.5-3.54-20.18ZM64.18,78.32c-.21-2.99-1.86-8.22,2.11-8.42,6.67-.33,4.74,11.65-2.11,8.42ZM77.05,72.95l4.99,1.75-4.99,1.25v-3ZM66.55,26.45c1.17,1.19-1.34,29.66-2.05,33.21-.42,2.1-.95,3.64-3.45,3.29.38-5.03,2.39-9.78,2.99-14.76.29-2.48.97-14.16.41-15.88-1.54-4.71-7.97,4.18-8.36,6.93-.29,2.06.07,5.05,1.01,6.91,1.45,2.88,6.27,3.58,3.19,7.3-13.4-6.24-8.4-26.68,6.26-27ZM60.54,45.94c-1.16.27-.81-.18-1.12-.64-2.09-3.04-1.59-8.08,1.38-10.35,2.12.01,0,9.33-.26,10.99ZM45.55,32.71c.33,1.53-2.31,3.39-2.92.9-.53-2.17,2.67-2.05,2.92-.9ZM23.71,53.5c.69-.7.04-1.71,1.57-2.06,2.01-.46,8.11.24,10.5.52,1.92.23,5.98,2.23,7.29,1.27,1.52-1.11-.77-4.5-.99-6.07-.52-3.79-1.94-9.74,2.46-11.21.24,2.78-.33,6.03,0,8.75.25,2.06,3.48,12.43,2.94,13.19-2.79,1.1-5.52-1.65-8.31-2.32-6.23-1.49-9.54-.88-15.36-.6-4.42.21-.26-1.3-.09-1.47ZM21.04,52.95c.58,2.87-3.07,4.58-2.97,1.02l2.97-1.02ZM43.05,74.95l-2.93-.08c-1.67-10.76-17.13-13.23-20.07-2.43h16.25l.75,2.5H15.55c1.13-17.02,27.44-17.69,27.5,0ZM34.54,69.7l-10,.24c2.33-3.2,7.44-3.11,10-.24ZM16.3,76.95c1.87-.44,10.21-.43,12.98-.52,4.53-.15,13.68-.31,17.89.65.97.22,9,2.8,9.38,3.12.57.47,1.24,4.01,1,4.25-5.93-.99-11.28-4.32-17.32-4.93-6.45-.65-13.4.63-19.87-.44l-1.22,1.53c3.54,8.76,14.75,9.32,19.26.94l3.15.67c-5.86,13.15-24.76,10.57-26.52-4,.05-.95.46-1.07,1.27-1.26ZM35.05,81.95c-2.05,4.04-10.2,4.78-12,0h12ZM126.38,85.53c-6.16,15.31-19.54,21.09-35.33,16.42v8.75c0,5.54-6.72,15.96-11.25,19.25-11.94,8.66-29.1,4.42-37.45-7.05-5.7-7.82-3.59-12.81-3.77-21.73-6.77.39-14.43,3.62-20.48-1.52l1.25-2.1c9.9,3.14,16.78.22,25.7-3.59-2.97,9.67-4.16,21.9,3.29,29.96,13.14,14.2,37.59,5.09,38.15-14.26.08-2.67-3.44-15.26-2.46-15.97.83-.6,8.68,3.91,10.62,4.42,36.52,9.68,40.48-50.7-1.29-42.59-2.67.52-6.08,2.83-8.58,2.45-.67-1.05,3.02-13.93,3.25-16.78.88-10.63-2.49-21.42-13.02-25.95-.43-.19-6.6-.84-4.73-3.3,2.79-3.68,14,5.53,16.03,8,7.04,8.55,6.61,18.17,3.73,28.24-.43,1.51-3.72,5.17.15,5.69,8.27-4.76,17.27-3.56,25.38.82,10.98,5.93,15.44,19.37,10.82,30.84ZM226.72,91.38l-97.68,2.07c3.44-7.93,4.65-15.02,3.43-23.68-.35-2.46-1.66-4.34-1.42-6.81l97-2.51-1.32,30.93ZM334.04,88.94l-100.15,2.42-1.09-.92.31-29.68,101.4-2.79-.47,30.97ZM438.34,86.48l-98.97,2.4-.74-30.6,98.09-2.75.76,1.07c-2.92,7.67-3.08,15.37-1.08,23.26.4,1.57,1.94,3.47,2.06,4.97.05.55.27,1.15-.11,1.65Z"/>
      <path d="M451.02,59.76c8.5-.36,17.11-.91,25.64-1.11,11.22-.26,22.36.39,33.44.33,7.4-.04,25.11-2.22,31.36-.59,1.03.27,1.7.31,1.97,1.53.35,1.55.33,20.49-.11,21.9-.27.85-.84,1.16-1.66,1.34-1.98.42-8.79.43-11.46.54-8.98.34-18.05-.6-26.96-.46-15.36.23-32.87,2.29-48.08.96-1.36-.12-3.88-.1-4.63-1.37-1.12-1.88-.98-22.05.5-23.06ZM538.58,68c.46.48,1.17.73,1.85.66.46-.45-4.98-8.09-7.5-5.99,1.27,1.99-.17,4.32-1.97,2.17l.47-2.17-4,1.25c2.77.05,2.71,2.26,3.65,3.1,1.49,1.33,4.98,1.63,3.35,5.14,2.17-.87,4.82.38,4,3.01h1.5s0-3.5,0-3.5c-3.02,1.75-2.45-1.84-3.1-2.4-.24-.21-6.39-2.24-2.78-4.27,2.81-1.58,3.72,2.16,4.53,3ZM525.93,69.17c-1.23-4.69-5.11-2.4-4.5-6.5l-3.5.5v1.5c3.79-1.58,4.54,3.92,8,4.5.18.68-.35,2.86.26,3.01,2.6-.07,2.52-2.42,4.24-4-1.67.57-2.51,1.33-4.5.99ZM526.43,79.16l2.98-.77.51-1.73h-3.49s0,2.5,0,2.5ZM519.92,72.16c.94-1.54-3.31-3.2-3.49-2.99l.5,3h2.99ZM499.43,72.17c.97-.3,1.97-.52,3-.5-.5-2.08-5.97-3.15-3.99-5.73,2.21-2.88,6.59-.06,4.99,3.24l2.99-1c-.47-2.34-4.71-2.59-3-5.49-4.92.2-8.93-.3-14,1v2.49c1.8.04,8.26-4.55,9-2.24l-.48,1.52-3.01-.27c.79,1.83-.5,4.55-2.75,4.55-2.56,0-2.74-4.06-5.75-3.55.88,1.56-3.26,4.32-4.33,4.38-3.19.17-2.24-5.08-6.17-4.39l.5-2.49c-3.13,1.36-5.35-.85-8.58-.71-1.32.06-7.01,1.12-6.17,2.7l1.99-.99,7.21,7.16-.94,1.33c4.86-1.89,5.31,3.15,9.25,4.5-.31-2.39-.35-3.24,1.76-4.75l3.98,1.24c-3.25-2.75.16-4.5,2.47-6.28l3.52,3.03c.06,1.39-2.87,4.53-4.49,4.27l1.76,1.99c1.43.1-.16-.76.7-2.26,2.06-3.58,6.52-3.02,6.55,1.26,2.05-2.06,4.09.15,4.24,2.5l1.95-.96.3-1.03c-.66.45-3.16-1.71-3.29-1.99-.42-.88.71-1.6.8-2.51-5.02,1.54-5.28.64-2.74-4,1.79.68,2.92,2.07,2.74,4ZM489.93,79.66l4.99-.24-1.24-2.24-3.76.99v1.5ZM481.43,65.17c1.93-.68,4.66.68,5.5-1.5-3.4.35-5.39-2.6-9-1l3.5.49v2.01ZM485.43,80.66c-.87-1.43-1.15-1.66,0-2.99-1.76,1.36-3.75.29-4.67.46-.49.09-.28,1.27-1.56,1.55-1.08.24-2.6-.17-3.77,0,2.9,2.79,6.32-1.75,10,.99ZM474.43,79.66v-2c-2.31,1.44-3.29-.83-5.25-1.51l1.24,3.5-5.51-.23.77-3.76c-.91,1.67-4.16,1.23-4.68,1.58-.2.13-1.45,2.9-3.07,3.41,4.42-2.54,6.73,0,10.28.02,2.1.02,3.98-1.47,6.23-1.02Z"/>
      <path d="M759.14,73.99c.12,2.28.92,4.16-2.07,4.62-13.96,2.14-31.77.2-46.02.48-13.49.27-26.93,2.28-40.46,1.45-1.16-.21-2.03-1.08-2.28-2.22-.45-2.12-.49-18.59,0-20.97.21-1.02.69-1.6,1.75-1.75,29.26-1.41,58.56-2.3,87.91-2.45,1.94.75-.1,5.54-.17,7.19-.2,5.33,1.07,8.85,1.33,13.64ZM754.79,64.09c.25-1.67-.27-2.35-1.76-2.96l-6.24,6.7-5.99-.23c2.12,1.33,4.68.67,2.19,3.96l-2.69-.46.88,1.24c-2.24,2.7,1.06.37,2.34.32,4.82-.16,5.74,2.34,9.1-3.03l2.17,1.46-4-5.75,1.87-2.19,2.13.94ZM747.79,63.09c.66-3.09,3.09-6.5-1.24-2l-.78-2.47-4.89.06-.58,1.91c4.61-2.51,4.16.63,7.49,2.5ZM725.79,59.09c-1.23.02-2.46-.02-3.69-.03l-.81,1.79c2.06-.27,4.37-.11,4.49,2.48-2.91,1.98-5.84.65-7.99-1.73-2.15,7.53-6.01.21-9.5-1.76l2.99-1.25h-7.99c1.45,1.06,1.03,1.71.99,3.5-.29.36-2.28-.85-2.55-1.23-.84-1.19.87-2.43-.7-2.28-4.74.45-5.69,6.76-9.75,3.24l1.5-2.73c-2.03,1.61-3.72.68-5.99.51l.45,2.44c-3.02.89-3.58,3.58-6.95.79-.61-.51-.43-1.69-.5-1.74-.14-.12-2.24.75-3.49-.49v2.49c1.25-1.04,5.61.92,5.47,2.21-1.75,3.26-5.7,1.34-5.98-1.71-6.21,1.94,3.34,2.18,1.51,5.5,1.76-.47,2.52-.84,3.99.5l.79-3.47,6.72-.54-2.99-1.25c-1.1-2.72,8.56-3.54,4.99.75,2.61-.97,4.86.44,7.2.44,1.74,0,5.99-2.21,7.08.07-.74,6.12-5.36,2.41-8.78,4.25-.04.27,6.06.21,2.79,2.79-2.34,1.84-2.88-1.22-3.82-1.76-.61-.35-4.57-1.57-4.97-1.28l.96,1.67-2.23,1.83-2.5-1.01.27-2.5h-5c2.03,3.94-2.88,2.94-4,5.25,7,2.61,1.19-2.5,5.79-2.74,1.36-.07,2.38.79,3.2,1.75l-1.5,1.74c2.83-1.66,12.43.89,14.5-.5.2-.13-.74-3.02,2.23-3.48,1.04.11,2.68.92,2.25,2.21l-3.99,1.28c1.89,2.7,5.03-1.54,8-.01-1.3-2.06,1.03-3.26,2.36-4.44l2.14.95c-.44-1.48.47-4.57,2.26-4.52,2.9.08-.88,5.95,1.86,7.19,1.46.68,6.48.19,7.55-.64.59-.46.36-3.08,2.15-3.41,2.81-.51,3.69,3.35,3.96,3.42.2.05,3.97-.5,4.14-.62.55-.38.8-4.16,4.57-2.41l.5-2.5c-3.09,2.09-5.44-1.14-9-.5l4.48,1.79-.69,1.75c-1.79,1.35-4.73-.06-6.29-1.3l1.49-2.24-6,.5c2.79,5.26-2.24,3.29-2.5,3.5-.24.19.91,1.11-.28,1.94-4.33,3.03-7.25-6.17-.73-2.95l-.5-1.99,3-.76c-1.59-.98-6.51,1.62-6.51-1.5s5.8-1.61,7.76-1.75c2.69-.2,5.02-1.78,8.24-.51l-1.49-2.24,3.41-.84.58-1.92c-3.79,2.14-5.05-2.94-9,0,2.46-.04,6.8-.66,3.97,2.73l-1.64.65-2.61-1.38.28-2ZM733.79,64.59c2.14-.74,3.18-1.4,5.5-.5l-.5-2.49c-1.79.81-1.69,1.41-3.99.5l-1.01,2.49Z"/>
      <path d="M560.67,81.65c1.6-6.06,2.56-12.34,1.92-18.66-.22-2.14-3.2-4.06.38-6.18l89.31-1c-.14,3.93,1.64,21.59-1.51,23.31l-90.11,2.54M648.62,72.2l-.75-1.49c-5.74,5.4-4.55-.36-9.25-1.51l.92,1.65-.92,1.6c-2.9,1.47-3.33-2.39-6-2.25l1.97,3.46c-3.09,2.04-4.72-.54-7.97.54v1.49s10.16-1.33,10.16-1.33c4.12.73,7.94.4,11.84,1.84v-2.5c-3.65,2.76-4.16-1.8,0-1.5ZM639.11,61.7l-.33-1.49-5.16-1,1.01,2.49c1.3-1.45,4.32.17,4.49,0ZM591.08,73.66c1.12-1.27-.63-2.84-2.32-1.32-.48.43-.25,2.34-1.88,2.35l-2.76-2.24,3.49-1.25-6.5.5c-.06,1.75,2.61.83,3.54,2.37.48.79.26,1.35-.03,2.12,2.97.48,3.08-1.11,4.51-2.25.47-.38,1.82-.13,1.96-.29ZM572.11,64.7l.51-2.99h-4s0,1.98,0,1.98l3.49,1.01Z"/>
      <path d="M781.57,76.75c1.83-5.99,3.04-12.24,2.64-18.57-.13-2.15-3.04-4.18.62-6.16l89.28,2.47c-.29,3.92.8,21.64-2.41,23.23l-90.14-.96M860.8,69.03l-.98,1.56M838.69,62.95s-5-.49-6.66-1.36-6.38-.06-6.38-.06c-3.17,1.92-3.04,4.29-6.33,5.24l-.05,1.49,10.2-.94c4.09.89,7.91.71,11.76,2.3l.09-2.5c-3.75,2.62-4.08-1.96.06-1.5l-.69-1.51-2.01-1.16ZM860.73,59.86l-.27-1.5-5.12-1.2.91,2.53c1.35-1.4,4.31.34,4.49.17ZM812.27,69.95c1.17-1.23-.52-2.87-2.27-1.41-.49.41-.34,2.33-1.97,2.28l-2.67-2.35,3.54-1.12-6.51.24c-.13,1.75,2.57.93,3.44,2.5.45.81.21,1.36-.12,2.12,2.95.59,3.12-.99,4.59-2.07.49-.36,1.83-.06,1.97-.21ZM793.66,60.26l.62-2.97-3.99-.16-.08,1.99,3.45,1.15Z"/>
      <path d="M445.95,90.5c23.72-.98,55.61.3,79.52-.09,63.52-1.04,127.03-2.94,190.46-4.04,14.1,1.39,41.09-2.27,55.28-1.32v-15.6c-.7-3.65-.7-7.48,0-11.2v-11.93c-103.94,3.47-225.21,3.87-329.29,6.1l.73,35.9v2.14l3.29.04ZM548.38,85.32l-104.68,2.07c3.44-7.93,4.65-15.02,3.43-23.68-.35-2.46-1.66-4.34-1.42-6.81l104-2.51-1.32,30.93ZM655.7,82.89l-100.15,2.42-1.09-.92.31-29.68,101.4-2.79-.47,30.97ZM770,80.42l-108.98,2.4-.74-30.6,108.1-2.75.76,1.07c-2.92,7.67-3.08,15.37-1.08,23.26.4,1.57,1.94,3.47,2.06,4.97.05.55.27,1.15-.11,1.65Z"/>
      <path d="M890.17,51.76c8.5-.03,17.13-.24,25.66-.11,11.22.17,22.33,1.25,33.4,1.63,7.4.25,25.18-1.24,31.36.63,1.02.31,1.69.38,1.91,1.6.29,1.56-.47,20.49-.96,21.88-.3.84-.88,1.13-1.71,1.27-2,.35-8.8.09-11.48.09-8.98,0-18.01-1.3-26.93-1.51-15.36-.36-32.93,1.02-48.08-.9-1.36-.17-3.87-.25-4.58-1.55-1.05-1.92-.12-22.07,1.4-23.03ZM977.34,63.4c.45.5,1.15.77,1.82.73.48-.44-4.66-8.28-7.26-6.28,1.19,2.04-.33,4.31-2.05,2.1l.55-2.15-4.04,1.09c2.76.16,2.62,2.37,3.52,3.24,1.43,1.38,4.91,1.83,3.15,5.27,2.2-.78,4.8.56,3.88,3.16l1.49.05.13-3.49c-3.08,1.63-2.37-1.93-3-2.52-.24-.22-6.3-2.48-2.61-4.37,2.87-1.47,3.63,2.31,4.41,3.18ZM964.65,64.07c-1.05-4.73-5.01-2.6-4.25-6.67l-3.52.36-.05,1.5c3.84-1.43,4.38,4.09,7.82,4.81.15.69-.46,2.85.14,3.02,2.6.03,2.61-2.32,4.39-3.83-1.69.5-2.56,1.23-4.53.82ZM964.77,74.08l3.01-.65.58-1.71-3.49-.13-.1,2.49ZM958.54,66.83c1-1.51-3.18-3.33-3.37-3.13l.38,3.02,2.99.11ZM938.06,66.04c.98-.26,1.99-.44,3.01-.39-.42-2.09-5.85-3.38-3.76-5.88,2.32-2.79,6.59.2,4.86,3.43l3.03-.89c-.38-2.36-4.6-2.77-2.78-5.6-4.92.01-8.91-.65-14.03.45l-.09,2.49c1.79.11,8.43-4.23,9.07-1.89l-.54,1.5-3-.39c.72,1.86-.68,4.53-2.93,4.44-2.56-.1-2.59-4.16-5.61-3.77.82,1.6-3.43,4.19-4.5,4.2-3.19.04-2.04-5.17-5.99-4.62l.59-2.47c-3.18,1.24-5.31-1.06-8.55-1.04-1.32,0-7.05.84-6.27,2.46l2.02-.92,6.93,7.43-1,1.3c4.93-1.7,5.18,3.35,9.07,4.86-.22-2.4-.23-3.25,1.95-4.67l3.93,1.4c-3.14-2.88.34-4.49,2.71-6.18l3.4,3.16c0,1.4-3.04,4.41-4.65,4.09l1.68,2.05c1.42.15-.13-.77.78-2.23,2.2-3.5,6.64-2.76,6.5,1.52,2.12-1.98,4.08.31,4.14,2.66l1.98-.88.34-1.02c-.67.42-3.09-1.83-3.21-2.12-.38-.9.77-1.57.89-2.48-5.08,1.34-5.3.44-2.58-4.1,1.76.75,2.84,2.18,2.58,4.1ZM928.28,73.16l5-.05-1.15-2.29-3.79.84-.05,1.5ZM920.34,58.35c1.96-.6,4.63.86,5.55-1.28-3.41.21-5.28-2.8-8.95-1.35l3.48.62-.08,2.01ZM923.74,73.98c-.81-1.47-1.09-1.71.12-2.99-1.81,1.29-3.76.15-4.69.27-.5.07-.33,1.25-1.62,1.49-1.09.2-2.59-.27-3.76-.15,2.79,2.9,6.39-1.51,9.95,1.38ZM912.79,72.56l.07-1.99c-2.36,1.35-3.24-.95-5.18-1.71l1.1,3.55-5.5-.45.91-3.73c-.97,1.63-4.21,1.07-4.74,1.4-.2.13-1.56,2.84-3.2,3.29,4.52-2.37,6.73.26,10.27.42,2.09.1,4.03-1.31,6.26-.78Z"/>
      <path d="M913.67,62.59c1.19-.22,1.63-1.11,3.04-.69,4.07,1.2,1.82,5.42-1.38,5.71l-2.8-2.38c.06-1.02.7-1.79,1.14-2.63-1.3.24-2.17,1.08-3.54.67-.67-.2-6.47-5.04-6.27-5.79l6.52-.5-1.63,3.44c1.34-.36,3.15-2,4.57-1.62,3.43.9,1,2.56.34,3.82Z"/>
      <path d="M1001.69,81l-6.15-6.36c-.95-2.03-5.58-12.51-.9-23.7,2.17-5.19,5.53-8.57,7.74-10.43-38.76,1.35-77.57,1.57-116.31,3.57-32.12,1.66-64.23,3.17-116.23,2.64l.28,11.93c.78,3.7.87,7.53.26,11.2l.36,15.6c14.16-1.28,41.23,1.75,55.29.04,63.44-.37,87.82.22,151.35-.21l30.67-.54-6.36-3.73ZM884.98,49.65l101.44.43,1,29.67-1.07.94-100.18-.1-1.19-30.95ZM771.69,79.14c.09-1.51,1.59-3.44,1.95-5.02,1.82-7.93,1.48-15.62-1.62-23.22l.73-1.09,108.13.24-.03,30.61-109,.13c-.4-.49-.19-1.1-.15-1.65Z"/>
      <path d="M887.46,750.11c-.73,1.28-3.25,1.31-4.61,1.45-15.18,1.61-32.73-.13-48.09-.09-8.92.03-17.97,1.13-26.95.95-2.68-.05-9.48.06-11.47-.33-.83-.16-1.41-.46-1.69-1.31-.46-1.4-.83-20.34-.51-21.9.25-1.22.92-1.27,1.95-1.56,6.22-1.74,23.96.12,31.36.02,11.08-.15,22.21-1,33.43-.94,8.53.04,17.15.44,25.65.64,1.5.99,2.01,21.16.92,23.05ZM803.63,733.81c3.65,1.96-2.46,4.1-2.7,4.32-.64.58,0,4.15-3.06,2.46l.06,3.5,1.5-.02c-.87-2.61,1.76-3.91,3.94-3.08-1.69-3.48,1.8-3.85,3.26-5.2.93-.86.83-3.07,3.59-3.17l-4.02-1.17.51,2.17c-1.76,2.18-3.24-.13-2.01-2.14-2.56-2.06-7.86,5.68-7.39,6.12.67.06,1.38-.2,1.83-.69.8-.85,1.64-4.61,4.48-3.08ZM807.3,736.92c1.75,1.55,1.72,3.9,4.32,3.92.6-.16.03-2.33.2-3.01,3.45-.65,4.1-6.16,7.91-4.65l-.02-1.5-3.51-.43c.68,4.08-3.24,1.87-4.38,6.58-1.98.37-2.83-.38-4.52-.91ZM811.45,745.34l-3.49.06.54,1.72,2.99.71-.05-2.5ZM820.87,740.67l.45-3.01c-.19-.2-4.41,1.53-3.44,3.06l2.99-.05ZM841.04,736.3c2.62,4.59,2.38,5.49-2.67,4.05.1.9,1.24,1.6.84,2.49-.13.29-2.59,2.49-3.26,2.05l.32,1.02,1.97.93c.11-2.35,2.11-4.59,4.19-2.57-.05-4.28,4.4-4.92,6.53-1.38.89,1.48-.69,2.37.74,2.24l1.72-2.02c-1.61.29-4.6-2.79-4.56-4.18l3.46-3.09c2.34,1.74,5.78,3.42,2.58,6.24l3.96-1.32c2.14,1.46,2.11,2.32,1.85,4.71,3.92-1.43,4.28-6.47,9.17-4.67l-.97-1.32,7.08-7.29,2,.96c.81-1.6-4.9-2.56-6.22-2.59-3.23-.08-5.41,2.17-8.57.87l.54,2.48c-3.94-.63-2.89,4.61-6.08,4.5-1.07-.04-5.27-2.72-4.41-4.3-3.01-.46-3.12,3.6-5.68,3.65-2.25.04-3.59-2.66-2.84-4.5l-3.01.32-.51-1.51c.69-2.32,7.24,2.16,9.03,2.08l-.04-2.49c-5.1-1.21-9.1-.63-14.02-.74,1.76,2.87-2.47,3.19-2.9,5.54l3.01.95c-1.66-3.26,2.67-6.16,4.93-3.33,2.03,2.55-3.41,3.72-3.88,5.81,1.03-.03,2.03.17,3.01.45-.21-1.92.89-3.33,2.67-4.05ZM847.98,746.17l-3.77-.92-1.2,2.27,4.99.15-.02-1.5ZM856.2,731.01l3.49-.55c-3.64-1.53-5.57,1.45-8.98,1.16.88,2.16,3.58.75,5.52,1.4l-.04-2.01ZM862.5,747.41c-1.17-.15-2.68.29-3.77.07-1.28-.26-1.09-1.44-1.59-1.52-.93-.15-2.9.96-4.68-.37,1.18,1.31.89,1.54.05,2.99,3.63-2.81,7.13,1.67,9.98-1.17ZM869.74,748.29c3.54-.09,5.8-2.67,10.27-.21-1.63-.48-2.93-3.22-3.14-3.35-.52-.34-3.77.16-4.71-1.49l.83,3.74-5.5.34,1.18-3.52c-1.95.71-2.88,3-5.21,1.6l.03,2c2.24-.49,4.15.96,6.24.9Z"/>
      <path d="M692.2,733.27c-.09-1.65-2.22-6.4-.3-7.19,29.35-.39,58.65-.03,87.94.84,1.06.13,1.56.7,1.78,1.72.53,2.37.79,18.84.38,20.96-.22,1.15-1.08,2.03-2.24,2.27-13.51,1.08-26.98-.69-40.48-.71-14.25-.02-32.03,2.24-46.02.36-3-.4-2.24-2.3-2.16-4.58.17-4.79,1.38-8.33,1.08-13.66ZM697.41,735.97l1.91,2.16-3.9,5.82,2.14-1.5c3.46,5.31,4.33,2.79,9.16,2.86,1.28.02,4.62,2.29,2.33-.36l.86-1.26-2.68.51c-2.55-3.25.02-2.63,2.11-4l-5.99.34-6.37-6.59c-1.47.64-1.98,1.33-1.7,2.99l2.12-.98ZM709.72,733.19l-.62-1.9-4.89.03-.74,2.49c-4.4-4.42-1.92-1.05-1.2,2.03,3.3-1.94,2.79-5.07,7.44-2.64ZM724.51,733.42l-2.59,1.43-1.65-.62c-2.9-3.33,1.46-2.79,3.92-2.8-4-2.87-5.16,2.24-9,.17l.62,1.9,3.43.77-1.45,2.27c3.2-1.34,5.56.21,8.25.35,1.96.11,7.73-1.65,7.79,1.61.06,3.12-4.91.61-6.48,1.62l3.01.7-.46,2c6.47-3.34,3.71,5.92-.67,2.96-1.2-.81-.07-1.75-.31-1.94-.26-.2-5.26,1.86-2.56-3.45l-6-.39,1.53,2.21c-1.53,1.26-4.44,2.73-6.26,1.41l-.72-1.73,4.45-1.87c-3.57-.58-5.86,2.7-8.99.66l.55,2.49c3.74-1.82,4.06,1.96,4.62,2.33.17.12,3.95.6,4.15.54.27-.07,1.08-3.95,3.9-3.49,1.8.3,1.61,2.92,2.22,3.37,1.09.81,6.11,1.21,7.56.51,2.72-1.29-1.17-7.09,1.73-7.22,1.79-.08,2.75,2.99,2.34,4.48l2.12-.99c1.35,1.16,3.7,2.31,2.44,4.4,2.94-1.59,6.15,2.6,8-.14l-4.01-1.2c-.45-1.29,1.17-2.12,2.21-2.25,2.98.4,2.1,3.31,2.29,3.44,2.1,1.35,11.65-1.37,14.51.23l-1.53-1.71c.8-.97,1.81-1.85,3.17-1.8,4.6.16-1.12,5.37,5.84,2.64-1.16-2.29-6.05-1.2-4.09-5.17l-5,.09.32,2.49-2.48,1.05-2.26-1.79.93-1.69c-.4-.28-4.33,1.01-4.94,1.37-.94.56-1.42,3.63-3.79,1.83-3.32-2.52,2.79-2.57,2.74-2.84-3.45-1.78-8.01,2.01-8.86-4.09,1.06-2.29,5.35-.16,7.08-.19,2.34-.05,4.56-1.5,7.19-.58-3.65-4.23,6.03-3.58,4.98-.84l-2.97,1.31,6.72.42.85,3.45c1.45-1.37,2.21-1.02,3.98-.58-1.89-3.29,7.65-3.7,1.41-5.52-.22,3.05-4.14,5.05-5.95,1.82-.16-1.29,4.16-3.33,5.43-2.31l-.05-2.49c-1.22,1.27-3.34.43-3.48.55-.07.06.13,1.23-.47,1.75-3.32,2.85-3.92.17-6.96-.66l.4-2.45c-2.27.21-3.94,1.17-6-.4l1.55,2.71c-3.99,3.59-5.05-2.7-9.8-3.06-1.57-.12.17,1.09-.65,2.29-.26.39-2.24,1.63-2.53,1.28-.07-1.79-.5-2.43.93-3.51l-7.99.13,3.02,1.19c-3.46,2.03-7.18,9.43-9.47,1.93-2.11,2.42-5.01,3.81-7.96,1.88.08-2.59,2.38-2.79,4.45-2.56l-.84-1.77c-1.23.03-2.46.09-3.69.1l.32,1.99ZM715.23,734.59c-2.28.96-2.19.36-4-.42l-.45,2.5c2.3-.94,3.36-.3,5.51.4l-1.06-2.48Z"/>
      <path d="M991.56,751.99l-90.14-.89c-3.17-1.66-1.72-19.35-1.93-23.28l89.32-.63c3.62,2.06.67,4.03.5,6.18-.53,6.33.55,12.6,2.26,18.62M903.48,745.66l.04,2.5c3.88-1.5,7.7-1.25,11.81-2.05l10.18,1.15-.02-1.49c-3.27-1.02-4.85,1.6-7.98-.39l1.9-3.5c-2.67-.09-3.03,3.78-5.96,2.36l-.95-1.58.89-1.67c-4.68,1.23-3.38,6.97-9.22,1.67l-.72,1.5c4.15-.37,3.72,4.2.03,1.5ZM917.25,733.4l.96-2.51-5.14,1.09-.31,1.5c.17.17,3.17-1.51,4.49-.08ZM962.97,744.82c1.45,1.11,1.58,2.7,4.55,2.16-.31-.77-.54-1.32-.07-2.12.9-1.56,3.58-.68,3.49-2.43l-6.51-.38,3.52,1.19-2.71,2.29c-1.63.02-1.44-1.9-1.93-2.32-1.72-1.5-3.44.1-2.3,1.36.14.15,1.48-.12,1.96.25ZM983.28,734.19l-.04-1.99-3.99.08.56,2.98,3.47-1.07Z"/>
      <path d="M862.82,737.4c-1.19-.25-1.61-1.14-3.02-.76-4.1,1.11-1.93,5.38,1.26,5.74l2.85-2.32c-.03-1.02-.66-1.8-1.09-2.66,1.29.27,2.14,1.12,3.52.74.67-.19,6.57-4.9,6.39-5.66l-6.51-.64,1.56,3.47c-1.33-.39-3.11-2.06-4.54-1.72-3.45.83-1.05,2.54-.42,3.81Z"/>
      <path d="M739.92,740.49c-.37,1.73,3.13,2.22,3.83,4.05l3.13-2.28-4.41-3.61c-.87-.31-2.39,1.11-2.54,1.84Z"/>
      <path d="M736.87,737.55c-.47,2.02,1.25,3.26,3.2,1.58,3.41-2.94-2.59-4.18-3.2-1.58Z"/>
      <path d="M753.77,735.89c.38-2.57-4.24-4.57-4.96-1.58-.61,2.49,3.74,1.47,4.96,1.58Z"/>
      <path d="M745.16,733.62c-.89-1.63-4.65-.74-4.36,1.18.48,3.13,5.58,1.07,4.36-1.18Z"/>
      <path d="M759.47,746.28c.2-2.96-3.56-3.35-5.02-1.14.79,2.47,3.23,1.28,5.02,1.14Z"/>
      <path d="M694.39,756.77c.19.05,2.17,3.39,2.34-.12-2.52-.45-4.29-7.71-6.78-2.7.44,3.82,3.23,2.49,4.45,2.82Z"/>
      <path d="M1078.41,794.23c8.68-7.81,12.3-16.75,11.97-28.49,21.12,4.43,38.24-16.05,33.09-36.11-4.47-17.41-20.31-25.89-37.67-22.32,3.42-18.38-7.36-38.37-27.49-39.49-24.85-1.38-35.51,21.11-27.97,42.5-2.23-.35-3.9-1.23-6.26-1.4-10.87-.77-19.22,5.04-27.29,11.04-104.1-.33-208.35,1.18-312.33-.39l.22,11.93c.76,3.7.84,7.53.2,11.2l.28,15.6c14.17-1.21,31.22,2.14,45.28.49,63.44-.06,126.97.68,190.5.56,23.92-.04,48.78-1.78,72.51-1.23,9.71.22,6.39.77,12.69,5.07,7.64,5.22,15.29,5.18,24.24,4.66,1.05,6.26,1.65,14,5.15,19.37,1.42,2.17,5.48,5.04,5.87,7.15,19.47,8.21,36.99-.14,36.99-.14ZM1056.89,712.35l.05,2.99c-13.52-.46-19.88-18.99-7.83-26.46.78-.48,5.8-2.97,5.82-1.25l1.42,22.23c-1.36.03-2.11-.52-2.41-1.8-.6-2.61-.17-15.06-1.91-15.9l-1.49.04c-8.67,6.38-3.74,19.49,6.35,20.16ZM1050.35,695.97l.94,10.98c-3.18-2.6-3.49-8-.94-10.98ZM1029.42,734.23c6.03-1.1,12.3-4.18,17.73-6.99l1.03.53c-.37.91-.25,2.3-.95,3-.54.54-10.84,4.46-12.31,4.83-8.62,2.21-18.65,1.77-27.55,2.65.82-15.04,19.18-20.44,26.87-6.99-4.3,1.59-4.72-2.36-8.61-3.54-5.88-1.79-12.12.63-13.86,6.7.13.96.44,1.04,1.3,1.23,2.08.45,13.65-.92,16.35-1.42ZM1020,732.48c-1.43.15-2.83,1.73-4.72,1.13-.3-4.82,11.17-5.72,11.95-2.46.54,2.23-6.28,1.24-7.24,1.33ZM1032.81,737.99l3.04-.76c1.92,18.18-23.44,20.48-27.9,3.8l22.44-2.47-.8,2.7c-2.75.74-15.94-.75-16.93,1.4,3.92,11.04,20.9,7.53,20.15-4.67ZM1015.96,743.6l12.74-.24.27.99c-3.91,3.9-9.92,3.84-13.01-.75ZM1057.63,778.63l-.33-17.28,1.49-.03.91,22.49c-12.08-.25-18.03-15.76-9.94-24.57,2.35-2.55,10.49-7.75,8.92-.49-10.08,1.72-12,17.83-1.05,19.87ZM1053.36,764.43l1.48-.04.7,10.99c-3.7-2.59-3.56-7.1-2.18-10.95ZM1057.16,752.62l-1.96.19-3.21-7.86c2.67-1.17,6.14,6.96,5.16,7.67ZM1038.12,739.72c-.36-.52-.33-1.12-.21-1.71.29-.82.89-.83,1.63-.83,4.84-.02,14.67,4.97,20.37,4.64l-.16,2.01c-.4.56-.87.47-1.45.48-1.34.03-19.59-3.74-20.18-4.59ZM1061.34,763.01c-.09-2.89-1.25-6.5-1.2-9.43.15-7.46,4.5-15.56,2.08-23.32l2.66-.07c3.77,8.46-1.1,17.48-2.69,25.82l1.49,21.89,1.16.81c4.77-3.53,7.02-8.79,4.04-14.35-1.7-3.17-5.89-3.93-4.69-8.63,14.9,3.56,13.16,26.96-2.49,28.05-.21-6.91-.15-13.85-.36-20.77ZM1065.55,775.2l-.47-12c3.77,2.38,5.06,9.91.47,12ZM1064.44,728.21l-9.75.18,1.27-2.95c3.84-1.29,22.29,2.43,23.29,5.76.1.34.24,1.62-.22,1.76-.74.2-11.47-4.8-14.58-4.74ZM1076.79,733.99c.34,1.15-1.62,1.55-2.39,1.86-.68.28-5.78,1.95-6.03,1.77l-.64-6.47,9.05,2.84ZM1052.31,737.62l-2.95.37-.14-7.75c-.02-1.33,3.4-15.6,6.26-12.86-1,6.71-4.94,13.24-3.17,20.24ZM1057.98,730.29c3.97.12,2.42,5.38,2.26,8.38-6.79,3.35-8.93-8.59-2.26-8.38ZM1047.33,736.53l-5.02-1.15,4.96-1.84.05,3ZM1063.68,713.73c-3.15-3.67,1.65-4.45,3.05-7.36.91-1.88,1.22-4.88.89-6.93-.44-2.74-7.03-11.52-8.48-6.77-.53,1.73.36,13.4.7,15.87.68,4.97,2.78,9.68,3.25,14.7-2.5.4-3.06-1.14-3.51-3.23-.77-3.54-3.8-31.95-2.65-33.16,14.67.06,20.04,20.4,6.75,26.89ZM1062.83,695.25c3.02,2.21,3.61,7.25,1.57,10.32-.31.47.05.9-1.11.66-.29-1.65-2.58-10.93-.46-10.98ZM1080.98,693.57c-.57,2.51-3.24.69-2.94-.84.23-1.15,3.43-1.33,2.94.84ZM1100.18,714.58c-5.83-.17-9.15-.72-15.35.88-2.78.72-5.45,3.52-8.27,2.47-.55-.75,2.48-11.18,2.7-13.24.28-2.72-.35-5.96-.16-8.75,4.43,1.39,3.11,7.36,2.66,11.16-.19,1.58-2.41,5.01-.88,6.09,1.33.94,5.35-1.14,7.27-1.4,2.38-.33,8.47-1.14,10.49-.71,1.54.32.91,1.35,1.61,2.04.17.17,4.35,1.6-.07,1.47ZM1105.9,713.48c.17,3.56-3.51,1.91-2.99-.97l2.99.97ZM1108.81,734.41l-21.5.39.7-2.51,16.25-.3c-3.14-10.74-18.55-8-20.03,2.79l-2.93.13c-.26-17.69,26.06-17.5,27.5-.5ZM1099.72,729.56l-10-.06c2.5-2.92,7.62-3.1,10,.06ZM1109.39,737.66c-1.5,14.61-20.34,17.53-26.44,4.49l3.13-.73c4.66,8.3,15.86,7.53,19.24-1.29l-1.25-1.51c-6.45,1.19-13.43.04-19.86.81-6.03.72-11.31,4.14-17.22,5.24-.25-.24.36-3.78.92-4.27.37-.32,8.36-3.05,9.32-3.29,4.2-1.04,13.34-1.05,17.88-.98,2.77.04,11.11-.12,12.99.28.82.18,1.23.29,1.3,1.24ZM1101.44,741.54c-1.71,4.81-9.88,4.23-12,.22l12-.22ZM1008.45,715.98c8.03-4.53,17-5.89,25.36-1.28,3.86-.59.5-4.19.04-5.69-3.07-10.02-3.67-19.62,3.21-28.3,1.99-2.51,13.02-11.92,15.88-8.3,1.91,2.42-4.24,3.19-4.67,3.38-10.45,4.72-13.63,15.57-12.55,26.19.29,2.84,4.21,15.65,3.56,16.72-2.49.42-5.94-1.83-8.62-2.3-41.91-7.35-36.85,52.95-.51,42.6,1.93-.55,9.7-5.2,10.53-4.61,1,.69-2.29,13.35-2.17,16.01.91,19.34,25.53,28,38.41,13.56,7.31-8.19,5.9-20.4,2.74-30.01,9,3.65,15.92,6.44,25.77,3.12l1.29,2.08c-5.96,5.25-13.68,2.16-20.45,1.9-.01,8.92,2.18,13.87-3.37,21.79-8.13,11.61-25.22,16.17-37.31,7.73-4.6-3.21-11.5-13.5-11.6-19.04l-.16-8.75c-15.7,4.96-29.19-.58-35.63-15.77-4.82-11.38-.61-24.91,10.26-31.03ZM896.07,723.78l97.02.74c.28,2.47-1,4.37-1.3,6.84-1.06,8.68.27,15.75,3.86,23.61l-97.7-.28-1.89-30.9ZM789.58,723.26l101.43.93.85,29.67-1.08.94-100.18-.59-1.04-30.95ZM686.15,752.01c.1-1.51,1.6-3.43,1.97-5.01,1.86-7.92,1.55-15.62-1.51-23.23l.74-1.09,98.13.95-.19,30.61-99-.59c-.39-.49-.18-1.1-.14-1.65Z"/>
      <path d="M675.9,749.16c-.72,1.29-3.23,1.34-4.59,1.5-15.17,1.75-32.73.18-48.09.38-8.92.11-17.96,1.3-26.94,1.21-2.68-.03-9.48.15-11.47-.22-.83-.15-1.41-.45-1.7-1.29-.48-1.4-1.03-20.33-.72-21.89.24-1.22.91-1.28,1.93-1.58,6.2-1.8,23.96-.11,31.36-.28,11.07-.25,22.2-1.22,33.42-1.27,8.53-.04,17.16.27,25.66.39,1.51.98,2.21,21.14,1.15,23.04ZM591.91,733.68c3.67,1.93-2.42,4.12-2.66,4.34-.64.58.03,4.15-3.03,2.49l.1,3.49,1.5-.03c-.9-2.6,1.72-3.92,3.91-3.12-1.72-3.46,1.76-3.87,3.21-5.24.92-.87.8-3.08,3.56-3.2l-4.03-1.14.53,2.16c-1.74,2.19-3.24-.1-2.03-2.12-2.58-2.03-7.8,5.76-7.33,6.2.67.05,1.37-.22,1.83-.71.79-.86,1.59-4.62,4.45-3.13ZM595.62,736.75c1.77,1.53,1.76,3.89,4.35,3.88.6-.16.01-2.33.17-3.01,3.45-.68,4.04-6.2,7.87-4.72l-.03-1.5-3.52-.4c.72,4.07-3.22,1.9-4.32,6.62-1.98.39-2.84-.35-4.53-.87ZM599.85,745.13l-3.49.1.56,1.72,3,.68-.07-2.5ZM609.22,740.37l.42-3.01c-.19-.2-4.4,1.57-3.41,3.09l2.99-.08ZM629.35,735.81c2.67,4.57,2.44,5.47-2.63,4.07.11.9,1.26,1.59.87,2.49-.13.29-2.57,2.52-3.24,2.09l.33,1.02,1.97.91c.09-2.35,2.07-4.61,4.17-2.61-.09-4.28,4.35-4.96,6.51-1.45.9,1.47-.67,2.37.76,2.24l1.71-2.03c-1.61.31-4.63-2.74-4.6-4.14l3.43-3.12c2.35,1.72,5.81,3.37,2.64,6.21l3.95-1.36c2.16,1.44,2.14,2.3,1.9,4.7,3.91-1.46,4.22-6.51,9.12-4.76l-.98-1.31,7.01-7.36,2.01.94c.79-1.61-4.92-2.51-6.24-2.53-3.23-.05-5.39,2.22-8.56.95l.57,2.48c-3.95-.59-2.85,4.64-6.04,4.56-1.07-.03-5.29-2.66-4.45-4.25-3.02-.43-3.09,3.63-5.65,3.7-2.25.06-3.62-2.62-2.88-4.47l-3,.35-.52-1.5c.67-2.33,7.26,2.08,9.05,1.99l-.06-2.49c-5.11-1.16-9.1-.54-14.02-.61,1.79,2.85-2.44,3.22-2.84,5.57l3.02.92c-1.69-3.25,2.61-6.19,4.9-3.37,2.06,2.53-3.38,3.75-3.82,5.84,1.03-.04,2.03.15,3.01.42-.23-1.92.86-3.34,2.63-4.07ZM636.38,745.61l-3.78-.88-1.18,2.28,4.99.1-.03-1.5ZM644.45,730.37l3.48-.59c-3.65-1.5-5.55,1.5-8.96,1.25.9,2.15,3.59.72,5.54,1.34l-.06-2.01ZM650.92,746.71c-1.17-.13-2.68.32-3.77.11-1.28-.25-1.11-1.43-1.6-1.5-.93-.14-2.89.99-4.68-.33,1.19,1.29.91,1.53.08,2.99,3.6-2.84,7.15,1.6,9.97-1.27ZM658.17,747.52c3.54-.12,5.78-2.73,10.27-.31-1.64-.47-2.97-3.2-3.17-3.32-.53-.33-3.76.2-4.72-1.45l.87,3.74-5.5.39,1.14-3.54c-1.94.73-2.85,3.03-5.19,1.65l.05,2c2.24-.51,4.16.92,6.25.84Z"/>
      <path d="M368.11,735.3c-.11-1.65-2.28-6.38-.37-7.18,29.34-.67,58.65-.6,87.94-.01,1.06.12,1.56.69,1.8,1.7.56,2.37.98,18.83.58,20.96-.21,1.15-1.06,2.04-2.21,2.29-13.5,1.21-26.99-.43-40.48-.32-14.25.12-32.01,2.55-46.02.8-3-.38-2.26-2.28-2.2-4.56.13-4.8,1.3-8.35.95-13.67ZM373.34,737.94l1.93,2.14-3.84,5.86,2.13-1.52c3.51,5.27,4.36,2.75,9.18,2.77,1.28,0,4.64,2.25,2.33-.39l.85-1.27-2.67.54c-2.58-3.22,0-2.63,2.07-4.02l-5.98.4-6.43-6.53c-1.47.65-1.97,1.35-1.67,3.01l2.11-1ZM385.62,735.04l-.64-1.9-4.89.08-.71,2.49c-4.45-4.38-1.93-1.03-1.18,2.04,3.28-1.97,2.74-5.1,7.42-2.71ZM400.41,735.13l-2.57,1.46-1.65-.61c-2.93-3.3,1.43-2.8,3.89-2.84-4.03-2.83-5.14,2.29-8.99.25l.63,1.9,3.43.74-1.43,2.28c3.19-1.37,5.56.15,8.25.27,1.96.09,7.71-1.73,7.81,1.53s-4.9.66-6.46,1.68l3.02.67-.44,2.01c6.43-3.4,3.77,5.88-.65,2.97-1.21-.8-.08-1.75-.33-1.93-.26-.2-5.24,1.91-2.59-3.43l-6.01-.33,1.55,2.2c-1.52,1.28-4.42,2.77-6.25,1.47l-.74-1.73,4.43-1.91c-3.57-.54-5.84,2.76-8.98.75l.57,2.48c3.73-1.85,4.08,1.92,4.64,2.28.17.11,3.95.56,4.15.5.27-.08,1.04-3.96,3.87-3.53,1.81.28,1.64,2.91,2.25,3.35,1.1.8,6.12,1.16,7.57.43,2.71-1.31-1.24-7.08,1.66-7.24,1.79-.1,2.78,2.97,2.39,4.45l2.11-1.01c1.36,1.15,3.72,2.28,2.48,4.38,2.92-1.61,6.18,2.54,8-.21l-4.02-1.17c-.47-1.28,1.15-2.13,2.19-2.27,2.98.37,2.13,3.29,2.33,3.42,2.11,1.33,11.63-1.49,14.51.09l-1.54-1.69c.79-.98,1.79-1.87,3.15-1.83,4.6.11-1.07,5.38,5.86,2.58-1.18-2.28-6.06-1.14-4.14-5.13l-5,.14.34,2.49-2.47,1.08-2.28-1.77.91-1.7c-.4-.28-4.32,1.05-4.93,1.42-.93.57-1.38,3.64-3.77,1.86-3.35-2.49,2.76-2.59,2.71-2.87-3.47-1.75-7.99,2.09-8.9-4,1.03-2.3,5.34-.21,7.08-.26,2.34-.07,4.55-1.54,7.18-.65-3.69-4.19,6-3.64,4.97-.89l-2.96,1.33,6.73.35.89,3.44c1.43-1.38,2.2-1.04,3.98-.62-1.92-3.27,7.62-3.77,1.35-5.54-.19,3.05-4.09,5.09-5.93,1.88-.17-1.28,4.13-3.37,5.41-2.37l-.07-2.49c-1.21,1.28-3.34.46-3.48.59-.07.06.14,1.23-.46,1.76-3.29,2.88-3.92.21-6.97-.6l.38-2.46c-2.27.23-3.93,1.21-6.01-.34l1.57,2.69c-3.95,3.63-5.08-2.65-9.83-2.97-1.57-.11.18,1.09-.63,2.29-.26.39-2.22,1.66-2.52,1.3-.09-1.79-.53-2.43.9-3.52l-7.99.21,3.03,1.16c-3.44,2.06-7.09,9.49-9.45,2.02-2.08,2.44-4.97,3.86-7.94,1.96.05-2.59,2.35-2.82,4.42-2.6l-.85-1.76c-1.23.04-2.46.12-3.69.13l.34,1.99ZM391.15,736.39c-2.27.98-2.19.38-4-.38l-.43,2.5c2.29-.97,3.36-.33,5.51.35l-1.08-2.46Z"/>
      <path d="M565.77,751.07l-90.14-.02c-3.19-1.63-1.91-19.33-2.16-23.26l89.31-1.5c3.64,2.03.71,4.02.56,6.17-.47,6.33.67,12.59,2.44,18.6M477.64,745.58l.07,2.5c3.87-1.54,7.69-1.32,11.79-2.17l10.19,1.05-.04-1.49c-3.28-.99-4.83,1.64-7.98-.31l1.87-3.51c-2.67-.07-2.99,3.81-5.93,2.42l-.96-1.57.87-1.68c-4.67,1.27-3.31,7-9.2,1.76l-.71,1.51c4.15-.41,3.76,4.16.05,1.5ZM491.28,733.2l.94-2.52-5.13,1.14-.29,1.5c.17.17,3.15-1.54,4.49-.12ZM537.11,744.17c1.46,1.09,1.61,2.68,4.57,2.12-.32-.76-.55-1.32-.09-2.12.89-1.57,3.58-.72,3.47-2.47l-6.51-.31,3.53,1.15-2.69,2.32c-1.63.04-1.46-1.88-1.95-2.3-1.73-1.48-3.44.14-2.28,1.38.14.15,1.48-.13,1.97.23ZM557.32,733.34l-.06-1.99-3.99.12.59,2.98,3.46-1.11Z"/>
      <path d="M344.6,753.59l-90.14.96c-3.21-1.6-2.12-19.31-2.41-23.23l89.28-2.47c3.67,1.99.76,4.02.62,6.16-.4,6.34.81,12.58,2.64,18.57M266.35,747.43l-.98-1.56M285.47,740.94l-.69,1.51c4.14-.46,3.81,4.12.06,1.5l.09,2.5c3.85-1.58,7.68-1.41,11.76-2.3l10.2.94-.05-1.49c-3.29-.95-3.16-3.32-6.33-5.24,0,0-4.72-.81-6.38.06s-6.66,1.36-6.66,1.36l-2.01,1.16ZM269.92,736.53l.91-2.53-5.12,1.2-.27,1.5c.17.17,3.14-1.57,4.49-.17ZM315.86,747c1.47,1.08,1.64,2.66,4.59,2.07-.33-.76-.56-1.31-.12-2.12.87-1.58,3.57-.76,3.44-2.5l-6.51-.24,3.54,1.12-2.67,2.35c-1.63.05-1.48-1.87-1.97-2.28-1.75-1.46-3.44.18-2.27,1.41.14.15,1.48-.15,1.97.21ZM335.95,735.95l-.08-1.99-3.99.16.62,2.97,3.45-1.15Z"/>
      <path d="M683.98,756.58l-.06-2.14-.27-35.9c-104.1.68-225.33,3.67-329.33,3.11l.33,11.92c.8,3.7.91,7.52.31,11.19l.44,15.6c14.16-1.35,41.24,1.55,55.29-.23,63.43-.67,126.97-.56,190.5-1.29,23.91-.28,55.76-2.45,79.5-2.13l3.29-.14ZM575.96,723.52l104.03-.4c.3,2.47-.95,4.38-1.23,6.85-.98,8.68.42,15.74,4.09,23.57l-104.7.86-2.19-30.88ZM469.47,724.03l101.44-.05,1.14,29.66-1.07.95-100.18.38-1.34-30.94ZM356.32,754.05c.09-1.51,1.57-3.45,1.92-5.03,1.78-7.94,1.4-15.63-1.73-23.22l.73-1.09,108.13-.28.11,30.61-109,.65c-.4-.49-.19-1.1-.16-1.65Z"/>
      <path d="M1037.89,390.23l2.14-.05,35.9-.23c-.68-87.69-2.81-188.99-2.25-276.59l-7.21,8.33c-8.09,4.25-20.08,3.16-25.09.61l-10.06-6.81c1.35,11.92,1.22,42.71,3,54.54.67,53.43.56,106.96,1.29,160.47.28,20.14,2.45,36.96,2.13,56.96l.14,2.77ZM1070.95,309.25l.4,77.62c-2.47.25-4.49.2-6.85.96-4.71,1.52-13.53.44-23.57.44l-.86-77.18,30.88-1.84ZM1070.44,219.55l.05,85.45-29.66.96-.95-.9-.38-84.38,30.94-1.13ZM1040.41,124.23c1.51.07,3.45,1.32,5.03,1.62,7.94,1.5,15.63,1.18,23.22-1.46l1.09.61.28,91.09-30.61.09-.65-91.82c.49-.34,1.1-.16,1.65-.13Z"/>
      <path d="M231.19,751.96c-.71,1.3-3.22,1.37-4.58,1.55-15.15,1.92-32.72.54-48.08.9-8.91.21-17.94,1.5-26.93,1.51-2.68,0-9.48.26-11.48-.09-.83-.14-1.42-.43-1.71-1.27-.49-1.39-1.25-20.32-.96-21.88.23-1.22.9-1.29,1.91-1.6,6.18-1.87,23.96-.37,31.36-.63,11.07-.37,22.19-1.46,33.4-1.63,8.53-.13,17.16.09,25.66.11,1.52.96,2.44,21.11,1.4,23.03ZM147.04,737.4c3.69,1.89-2.37,4.15-2.61,4.37-.56.52-.06,3.41-2.13,2.88-.43-.11-.86.21-.84.66l.07,1.82c.01.36.32.65.68.64l.84-.03c-.78-2.18.93-3.47,2.8-3.37.45.02.78-.39.68-.83-.61-2.51,2.28-3,3.55-4.23.64-.61.76-1.88,1.72-2.64.43-.33.28-1.01-.24-1.15l-.9-.24c-.49-.13-.94.31-.81.8l.27,1.06c-1.56,2.01-2.95.33-2.32-1.52.14-.4-.11-.85-.53-.89-2.72-.27-6.9,6.2-6.47,6.59.67.04,1.37-.23,1.82-.73.78-.87,1.54-4.64,4.41-3.18ZM152.18,742.16c.63,1,1.17,1.91,2.5,2.07.4.05.76-.24.77-.64.01-.52-.11-1.24-.14-1.78-.02-.3.15-.59.43-.68,3.07-1.05,3.72-6.07,7.4-4.69l-.03-.92c-.01-.33-.26-.6-.59-.64l-2.14-.22c-.4-.04-.73.29-.71.7.12,2.92-3.14,1.59-4.23,5.46-.07.25-.27.46-.53.49-.78.11-1.38.02-1.96-.14s-1.09.46-.76.99ZM154.44,748.79l-1.94.07c-.44.02-.74.45-.6.87l.17.51c.07.22.26.39.49.44l1.8.39c.42.09.82-.24.8-.67l-.04-.98c-.01-.37-.32-.65-.69-.64ZM164.49,743.34l.18-1.44c.07-.52-.47-.9-.94-.68-.88.41-2.04,1.14-2.37,1.9-.19.43.19.89.65.88l1.84-.07c.32-.01.59-.26.63-.58ZM184.81,739.65c2.12,3.64,2.02,4.65-1.51,3.9-.57-.12-1.01.5-.7.99.23.36.38.73.2,1.15-.13.29-2.54,2.54-3.21,2.12l.34,1.02,1.17.52c.39.18.83-.07.92-.49.37-1.68,1.66-3.04,3.17-2.39.39.17.86-.04.93-.46.56-3.33,4.42-3.66,6.43-.47.92,1.46-.64,2.38.78,2.23l.94-1.15c.28-.35.15-.87-.27-1.03-1.44-.54-3.2-2.34-3.57-3.54-.07-.24,0-.5.19-.67l2.75-2.55c.23-.21.57-.23.83-.06,1.84,1.25,4.03,2.51,3.42,4.31-.18.53.3,1.05.84.86l1.63-.58c.2-.07.43-.04.6.08,1.53,1.06,1.8,1.84,1.75,3.32-.02.55.59.88,1.05.57,2.87-1.92,3.54-5.78,7.94-4.27l-.65-.85c-.2-.26-.18-.62.04-.86l6.22-6.68c.19-.21.5-.27.76-.15l1.59.72c.78-1.62-4.95-2.45-6.27-2.46-2.87-.01-4.88,1.8-7.52,1.33-.47-.08-.88.31-.77.78l.13.55c.09.39-.17.79-.57.82-3.04.21-2.25,4.7-5.22,4.66-.96-.01-4.43-2.07-4.6-3.65-.04-.36-.41-.61-.77-.54-2.19.41-2.45,3.66-4.74,3.75-1.93.08-3.23-1.87-3.11-3.6.03-.42-.29-.77-.71-.72l-1.58.2c-.31.04-.6-.14-.71-.43l-.26-.73c-.08-.21-.06-.46.09-.63,1.1-1.26,5.73,1.46,8.03,2.12.43.12.84-.22.83-.67l-.04-1.16c-.01-.31-.24-.57-.54-.63-4.52-.89-8.19-.42-12.49-.35-.44,0-.74.42-.63.84.5,1.85-2.05,2.5-2.92,4.05-.2.35.03.8.42.91l1.16.34c.47.14.9-.27.83-.75-.39-2.74,3.19-4.79,5.24-2.32,1.7,2.04-1.59,3.27-3.09,4.79-.39.4-.12,1.06.44,1.12.37.03.73.09,1.1.17.4.08.76-.22.79-.62.09-1.3.84-2.32,2-2.98.32-.19.74-.09.93.23ZM191.14,748.73l-2.79-.62c-.3-.07-.6.08-.74.35l-.44.88c-.22.44.09.96.59.96l3.24.03c.38,0,.68-.31.67-.68v-.29c-.02-.3-.23-.56-.53-.62ZM199.57,734.1c-.01-.33.22-.62.54-.68l2.91-.52c-3.06-1.21-4.86.68-7.36,1.22-.73.16-.73,1.21.01,1.31.95.13,2.12-.13,3.18-.04.4.03.75-.28.73-.68l-.02-.61ZM206.19,749.78c-1.17-.12-2.68.35-3.76.15-1.29-.23-1.12-1.42-1.62-1.49-.67-.09-1.85.47-3.13.32-.41-.05-.8.26-.75.67,0,.05,0,.1,0,.15-.02.49.38.87.85.73,3.05-.93,6.02,1.94,8.41-.54ZM213.44,750.51c3.54-.16,5.75-2.79,10.27-.42-1.64-.45-3-3.16-3.2-3.29-.38-.23-2.13-.01-3.46-.46-.5-.17-.98.27-.86.78l.31,1.26c.1.4-.18.78-.59.82l-3.74.31c-.47.04-.83-.41-.69-.86l.28-.9c.19-.62-.53-1.12-1.04-.72-.85.68-1.63,1.34-2.76,1.06-.42-.1-.82.23-.81.66v.24c.02.38.35.66.72.63,1.95-.15,3.7.97,5.58.88Z"/>
      <path d="M211.27,737.69c.28.5-.12,1.13-.67.99-.32-.08-.68-.08-1.14.05-3.94,1.16-1.96,5.15,1.08,5.67.19.03.38-.03.53-.16l2.3-1.95c.17-.15.27-.37.23-.6-.06-.3-.16-.57-.29-.84-.25-.53.3-1.08.85-.88.58.21,1.16.33,1.88.12.52-.16,4.14-3.11,5.63-4.77.37-.41.11-1.06-.44-1.1l-4.3-.33c-.51-.04-.87.48-.65.94l.35.75c.27.58-.35,1.17-.91.87-.97-.53-2-1.06-2.88-.83-1.96.52-2.01,1.28-1.56,2.07Z"/>
      <path d="M119.43,758.73c33.85,1.07,68.31,1.82,103.37,2.22,32.24.36,63.99.41,95.22.17,14.06,1.71,28.12-1.32,42.28-.04l.36-15.6c-.62-3.67-.52-7.5.26-11.2l.28-11.93c-103.99,1.06-107.07-1.44-211.17-1.62-9.65,1.38-19.29,2.75-28.94,4.13,1.5,2.3,4.53,7.67,4.71,15.08.24,9.93-4.81,16.82-6.37,18.79ZM240,757.44l-110.19.1-1.07-.94,1-29.67,111.45-.43-1.19,30.95ZM354.33,757.62l-109-.13-.03-30.61,108.13-.24.73,1.09c-3.1,7.6-3.44,15.29-1.62,23.22.36,1.58,1.85,3.51,1.95,5.02.03.55.24,1.15-.15,1.65Z"/>
      <path d="M1075.94,389.95l-2.14.05-35.9.23c.68,87.69-.18,197.32-.75,284.92l7.21-8.33c8.09-4.25,20.08-3.16,25.09-.61l10.06,6.81c-1.35-11.92-1.22-42.71-3-54.54-.67-53.43-.56-106.96-1.29-160.47-.28-20.14.54-45.28.86-65.28l-.14-2.77ZM1041.88,481.26l.59-87.95c2.47-.25,4.49-.2,6.85-.96,4.71-1.52,13.53-.44,23.57-.44l-2.13,87.51-28.88,1.84ZM1040.39,572.97l-.05-87.45,29.66-.96.95.9.38,86.39-30.94,1.13ZM1070.42,664.28c-1.51-.07-3.45-1.32-5.03-1.62-7.94-1.5-15.63-1.18-23.22,1.46l-1.09-.61-.28-87.08,30.61-.09.65,87.82c-.49.34-1.1.16-1.65.13Z"/>
      <path d="M52.6,671.57l.54-75.32c.36-1.15.86-2.05,2.15-2.35,1.39-.32,19.94-.32,20.92.06l.75,75.61-22.7,2.85-1.66-.85ZM59.02,620.9c-.14,2.1-.25,3.5-.99,5.5l2.24-1.49c1.83.92.15,5.36-2.24,3.5.84,2.93-.61,5.15-.53,8.26.04,1.62.96,3.22.94,4.5-.02,2-1.87,5.06-1.96,7.49-.1,2.57,1.62,5.88,1.59,7.5s-2.72,4.57-1.54,7.24l1.76-5.5c1.06-.22,4.64,4.52,3.01,6.02-1.06.97-3.79.07-2.78,1.24l7.01-1.75c-2.88.18-1.88-2.44-2.01-4.51l-1.72,1c-2.13-2.07-1.83-2.92-1.27-5.5-.5-.14-1.33.23-2-.24-2.03-1.43-.77-9.59.51-11.76,3.89.87,2.9,7.11,2.46,10.23-.12.85-.9,1.43-.97,1.77.48.14,1.34-.2,1.78.47l.72,2.53c.01-2.93-1.37-7.53,3.03-7.28l.48,5.28,1.74-1.99c3.37,2.59,2.05,5-.5,7.49l-1.24-.99c-.89,3.29,1.57,5.35,4.65,5.42l.84-.93c-6.1.15-3.84-2.46-1.22-5.52l1.27.31-.05,5.21.99-62.5-1.72,1-2.03-4.03-1.74.03c1.39,1.69-.84,6.25-2.54,4.69l-3.22-4.68-1.49,2.98-1.74-.99c.93,2.61.06,4.04-.5,6.5l2.23-1.99c2.92,2.36,1.63,4.24-.51,6.47l-1.23-.23-.99-2.24c1.04,2.08-.99,11.01,1.5,11.5.09-1.44-.61-2.48-.38-4.09.09-.65,2.11-4.99,2.64-5.4l1.4-.46c1.99.47,1.46,4.66.9,6.16l-1.75.23-1.8-1.43,1.95,3.64-2.95,1.35Z"/>
      <path d="M51.09,502.47l23.32.29c.37,1.98.95,4.47,1.05,6.44.79,14.87-.3,30.08-.46,44.97-.09,7.79.98,17.36.54,24.95-.35,6.11-11.4,3.44-15.77,3.23-2.02-.09-8.32,1.3-9.15-1.32l.47-78.57ZM55.52,564.9c3.88-.81,4.02,4.14,1.25,5.99-2.07-1.39-1-3.94-1.25-5.99-1.84.39-.42,9.18,1.75,10-.75-3.13.89-4.51,2.74-6.75,4.38-.07,6.16-1.25,8.74,2.78.41.64.07,1.64.28,2.09.39.87,3.21,2.07.68,4.35l-1.98-.45.28-2c-5.89.23.23,4.46,2.29,3.03,2.55-1.77.2-4.09.22-5.33.04-3.46-.53-7.58-.47-9.95.02-1.11,1.92-2.53,1.4-4.39-.77-2.7-4.83-.59-6.42-.86.4,5.23-5.92,4.42-4.73.02,1.06-3.88,3.64-.21,4.73-.02-.12-1.55-2.14-3.47-.28-5.06,1.73-1.48,3.53,3.17,6.08,1.11l.71-1.33c.31-2.12-1.52-3.98-1.54-5.47-.02-1.26,1.08-2.35,1.09-4.01,0-1.84-1.31-3.11-1.33-4.5-.02-1.21,1.22-3.08,1.19-4.51-.09-5.49-1.61-8.44-.42-14.74l-1.68.96c-2.17-1.24-1.37-3.39-.04-4.98l1.64.86.08,3.17c.76-4.02-.19-3.81,0-6.71.11-1.52,2.78-5.04-1.01-5.05,1.62.92,1.22,4.51-.75,4.76-.72.09-1.69-.59-2.47-.48-1.09.16-2.12.91-3.09.95-2.13.1-4.44-1.11-6.88-.02l-1.06-3.96-.99,10.98,2.01,1.53,3.87-.95c4.8,3.9-1.27,4.05-1.64,4.44-.19.19.55,1.35.45,1.77-.2.81-.76,1.39-.94,2.22.64-.24,1.1-1.21,2.15-.95,4.73,1.16-2.98,10.1-3.16,4.15-.02-.74.76-2.06,1.01-3.2-1.13.43-1.11,1.09-2.26,1.04l-1.24-1.04.51,11.22c-.13,2.73-1.65,8.75-1.55,11.01.07,1.7,1.36,2.38,1.54,3.56.36,2.47.08,7.31.5,10.71ZM58.02,575.4v1.49s5,1,5,1l-2-1,1-2.99-4,1.5Z"/>
      <path d="M64.52,620.9c.09-2.5.22-11.38-.51-13.12-.28-.68-3.83-3.11-2.95-5.55l1.21-.85c1.95,1.12,3.27,3.8,2.25,6.02l4-4.78,2.27.78c1.36,2.57-3.24,4-3.31,4.28-.17.64.47,5.5,2.02,3.93,1.58,1.58,2.41,4.28-.23,5.28l-1.76-3.5v7c0,.38,5.49,2.88,1.7,5.97-2.07.62-3.24-4.06-2.2-5.46-1.04.63-1.83.03-2.5,0-.29,8.28-6.53,2.86-1.63-.42.85-.23,1.34.41,1.63.42Z"/>
      <path d="M64.02,634.4c.47,0,1.57-.86,2.37.13-.56,4.24,5.09,5.19,2.92,8.91l-1.82.24-.97-4.77c-.54,1.65,1.87,10.82-1.79,8.03-2.08-1.59-.56-4.14-.7-6.27-.23-3.58-1-1.97-.02-6.26-.56,0-1.34.7-2,.28l-2.27-4.77c1.33-3.32,4.88.2,5.21,1.84.18.88-.72,1.68-.94,2.64Z"/>
      <path d="M70.95,644.47c1.45.74,1.95,10.51-.66,9.92-3.49-.79-3.37-11.99.66-9.92Z"/>
      <path d="M67.02,629.9c1.71.23,2.11.12,3.49,1.5-.76-2.26-1.6-3.21.08-5.42l1.69.41c1.89,2.23-3.36,9.2-5.23,7.99-1.05-1.68-.07-3.12-.03-4.48-.21-.03-.86.78-1.97.27-2.79-1.28-2.19-4.87.24-6.26,2.7,1.36,1.8,4.07,1.74,5.99Z"/>
      <path d="M59.03,632.9c1.3-.87,4.19,5.46.73,6.49-1.75.48-1.33-5.56-.73-6.49Z"/>
      <path d="M72.02,621.89l-1.75-.5c-1.49-1.83.12-3.22,1.51-4.49,1.47,1.28.62,3.39.24,4.99Z"/>
      <path d="M72.02,607.39l.51,3.76-1.25,1.24-1.69-3.64c.44-1.05,1.3-1.51,2.43-1.36Z"/>
      <path d="M69.13,637.53c-1.35-4.5,3.97-4.09,2.16.88l-1.28.25c-.36-.31-.74-.64-.88-1.12Z"/>
      <path d="M61.07,639.43c1.6-1.3,2.81,2.96,1.2,3.46-2.16.67-1.96-2.84-1.2-3.46Z"/>
      <path d="M74.96,420.13l-.54,70.31c-.36,1.15-.86,2.05-2.15,2.35-1.39.32-19.94.32-20.92-.06l-.75-73.61,22.7.15,1.66.85ZM68.54,467.81c.14-2.1.25-3.5.99-5.5l-2.24,1.49c-1.83-.92-.15-5.36,2.24-3.5-.84-2.93.61-5.15.53-8.26-.04-1.62-.96-3.22-.94-4.5.02-2,1.87-5.06,1.96-7.49.1-2.57-1.62-5.88-1.59-7.5s2.72-4.57,1.54-7.24l-1.76,5.5c-1.06.22-4.64-4.52-3.01-6.02,1.06-.97,3.79-.07,2.78-1.24l-7.01,1.75c2.88-.18,1.88,2.44,2.01,4.51l1.72-1c2.13,2.07,1.83,2.92,1.27,5.5.5.14,1.33-.23,2,.24,2.03,1.43.77,9.59-.51,11.76-3.89-.87-2.9-7.11-2.46-10.23.12-.85.9-1.43.97-1.77-.48-.14-1.34.2-1.78-.47l-.72-2.53c-.01,2.93,1.37,7.53-3.03,7.28l-.48-5.28-1.74,1.99c-3.37-2.59-2.05-5,.5-7.49l1.24.99c.89-3.29-1.57-5.35-4.65-5.42l-.84.93c6.1-.15,3.84,2.46,1.22,5.52l-1.27-.31.05-5.21-.99,62.5,1.72-1,2.03,4.03,1.74-.03c-1.39-1.69.84-6.25,2.54-4.69l3.22,4.68,1.49-2.98,1.74.99c-.93-2.61-.06-4.04.5-6.5l-2.23,1.99c-2.92-2.36-1.63-4.24.51-6.47l1.23.23.99,2.24c-1.04-2.08.99-11.01-1.5-11.5-.09,1.44.61,2.48.38,4.09-.09.65-2.11,4.99-2.64,5.4l-1.4.46c-1.99-.47-1.46-4.66-.9-6.16l1.75-.23,1.8,1.43-1.95-3.64,2.95-1.35Z"/>
      <path d="M63.04,467.81c-.09,2.5-.22,11.38.51,13.12.28.68,3.83,3.11,2.95,5.55l-1.21.85c-1.95-1.12-3.27-3.8-2.25-6.02l-4,4.78-2.27-.78c-1.36-2.57,3.24-4,3.31-4.28.17-.64-.47-5.5-2.02-3.93-1.58-1.58-2.41-4.28.23-5.28l1.76,3.5v-7c0-.38-5.49-2.88-1.7-5.97,2.07-.62,3.24,4.06,2.2,5.46,1.04-.63,1.83-.03,2.5,0,.29-8.28,6.53-2.86,1.63.42-.85.23-1.34-.41-1.63-.42Z"/>
      <path d="M63.54,454.31c-.47,0-1.57.86-2.37-.13.56-4.24-5.09-5.19-2.92-8.91l1.82-.24.97,4.77c.54-1.65-1.87-10.82,1.79-8.03,2.08,1.59.56,4.14.7,6.27.23,3.58,1,1.97.02,6.26.56,0,1.34-.7,2-.28l2.27,4.77c-1.33,3.32-4.88-.2-5.21-1.84-.18-.88.72-1.68.94-2.64Z"/>
      <path d="M56.61,444.23c-1.45-.74-1.95-10.51.66-9.92,3.49.79,3.37,11.99-.66,9.92Z"/>
      <path d="M60.54,458.81c-1.71-.23-2.11-.12-3.49-1.5.76,2.26,1.6,3.21-.08,5.42l-1.69-.41c-1.89-2.23,3.36-9.2,5.23-7.99,1.05,1.68.07,3.12.03,4.48.21.03.86-.78,1.97-.27,2.79,1.28,2.19,4.87-.24,6.26-2.7-1.36-1.8-4.07-1.74-5.99Z"/>
      <path d="M68.53,455.8c-1.3.87-4.19-5.46-.73-6.49,1.75-.48,1.33,5.56.73,6.49Z"/>
      <path d="M55.55,466.81l1.75.5c1.49,1.83-.12,3.22-1.51,4.49-1.47-1.28-.62-3.39-.24-4.99Z"/>
      <path d="M55.54,481.31l-.51-3.76,1.25-1.24,1.69,3.64c-.44,1.05-1.3,1.51-2.43,1.36Z"/>
      <path d="M58.43,451.17c1.35,4.5-3.97,4.09-2.16-.88l1.28-.25c.36.31.74.64.88,1.12Z"/>
      <path d="M66.5,449.27c-1.6,1.3-2.81-2.96-1.2-3.46,2.16-.67,1.96,2.84,1.2,3.46Z"/>
      <path d="M57.53,541.39c.19-.18-1.53-3.89,1.36-4.44,1.03-.2,1.57,1.02,3.24.87,2.14-.2,2.21-2.13,4.1-2.45.85,1.41,2.32,2.22,1.55,4.02-2.1,4.93-6.59.9-9.88,2.52-.88.43-1.02,3.3-2.87,2.99l.21-3.03,2.29-.47Z"/>
      <path d="M59.53,535.89l2.26-4.48c.85-1.44,2.85,1.2,3.03,1.97.64,2.75-3.3,3.64-5.29,2.51Z"/>
      <path d="M58.12,560l1.9.15,1.93,3.08-2.17,2.56c-2.63-1.42-3.66-3.19-1.66-5.79Z"/>
      <path d="M56.1,546.56c-.07-2.06,3.35-3.85,4.67-.13,1.51,4.26-4.56,3.31-4.67.13Z"/>
      <path d="M65.13,560.01c1.68-1.01,4.52,2.41,2.67,4.41-3.22,3.47-4.88-3.08-2.67-4.41Z"/>
      <path d="M66.51,526.9l1.97,3.66-3.2,2.35c-1.18-1.83-2.13-4.01-.03-5.54l1.26-.48Z"/>
      <path d="M61.1,519.03c-.85-2.98,3.68-5.55,3.91-1.35.17,3.09-3.26,3.63-3.91,1.35Z"/>
      <path d="M60.57,526.55c-.9-3.63,8.3-4.55,2.46,1.61-.74.24-2.3-.95-2.46-1.61Z"/>
      <path d="M55.03,514.9c.9-.61,6.75,5.05,1.73,5-2.19-.02-2.7-3.44-1.73-5Z"/>
      <path d="M60.74,516.13c-.49.46-.3,1.23-1.64.66l-2.07-3.15c.18-1.44,7.61-1.18,3.71,2.49Z"/>
      <path d="M62.95,548.47c.13.07,1.56,2.44,1.54,2.6l-2.21,2.3-1.76-3.19c.09-1.06,1.42-2.24,2.44-1.71Z"/>
      <path d="M67.08,567.04c-.26-1.1,1.11-2.45,2.18-2.64,1.4,1.21,1.62,3.32,1.03,5.01-.58,1.04-3.12-1.99-3.2-2.36Z"/>
      <path d="M57.09,555.53c-.77-2.75,3.27-4.22,3.87-1.28.4,1.97-3.12,3.93-3.87,1.28Z"/>
      <path d="M64.59,544.97c2.22-1.17,4.52,4.03.66,4.45-1.6.18-2.09-3.7-.66-4.45Z"/>
      <path d="M65.09,523.82c-1.65-.86-.82-4.63,1.1-4.38,3.13.42,1.17,5.56-1.1,4.38Z"/>
      <path d="M64.08,514.06c-.08-2.36,7.98-2.81,2.14,2.31-.79.13-2.12-1.71-2.14-2.31Z"/>
      <path d="M66.6,544.32c-1.55-2.51,4.34-7.1,2.7.1l-2.7-.1Z"/>
      <path d="M54.62,550.51c-.4-4.52,4.27-.35,2.67,1.9l-1.79.26c-.32-.22-.83-1.7-.87-2.16Z"/>
      <path d="M67.08,551.56c-.64-1.88,1.96-3.33,2.71-2.18,1.82,2.79-1.8,4.85-2.71,2.18Z"/>
      <path d="M60.6,544.03c-.29-2.67,3.11-1.41,3.37-.33.46,1.89-3.03,3.5-3.37.33Z"/>
      <path d="M68.59,560.81c-1.17-.62-1.66-4.49,1.12-3.37,1.67.67.83,4.41-1.12,3.37Z"/>
      <path d="M55.6,559.56c-.29-.83-.27-3.4,1.16-3.17l1.18,1.36-1.18,2.63-1.16-.83Z"/>
      <path d="M69.52,531.9v3.74c-3.38.73-3.08-3.31,0-3.74Z"/>
      <path d="M55.53,533.9c2.24-1.44,3.13,3.5.74,3.49-1.15,0-1.46-3.03-.74-3.49Z"/>
      <path d="M61.53,566.63c-.5-1.77,2.34-3.22,2.92-.89.52,2.11-2.58,2.11-2.92.89Z"/>
      <path d="M69.02,527.39l-1.95-1.33,1.21-2.66c1.68,1.15,1.3,2.31.74,3.99Z"/>
      <path d="M49.31,330.6c.82-2.62,7.13-1.22,9.15-1.32,4.36-.2,15.42-2.88,15.77,3.23.44,7.59-.63,17.16-.54,24.95.16,14.89,1.25,30.1.46,44.97-.1,1.97-.68,4.46-1.05,6.44l-23.32.29-.47-78.57ZM53.71,357.45c-.17,1.18-1.47,1.85-1.54,3.56-.09,2.26,1.42,8.28,1.55,11.01l-.51,11.22,1.24-1.04c1.15-.05,1.13.61,2.26,1.04-.25-1.14-1.03-2.46-1.01-3.2.17-5.94,7.89,2.99,3.16,4.15-1.05.26-1.51-.71-2.15-.95.18.83.74,1.41.94,2.22.11.42-.63,1.58-.45,1.77.37.39,6.45.53,1.64,4.44l-3.87-.95-2.01,1.53.99,10.98,1.06-3.96c2.44,1.09,4.74-.12,6.88-.02.97.05,2,.8,3.09.95.78.11,1.75-.57,2.47-.48,1.97.25,2.37,3.84.75,4.76,3.79,0,1.11-3.53,1.01-5.05-.2-2.9.75-2.69,0-6.71l-.08,3.17-1.64.86c-1.33-1.59-2.12-3.74.04-4.98l1.68.96c-1.19-6.3.33-9.24.42-14.74.02-1.43-1.21-3.3-1.19-4.51.02-1.39,1.34-2.66,1.33-4.5,0-1.66-1.11-2.74-1.09-4.01.02-1.48,1.85-3.35,1.54-5.47l-.71-1.33c-2.55-2.07-4.35,2.59-6.08,1.11-1.86-1.59.16-3.51.28-5.06-1.08.19-3.67,3.86-4.73-.02-1.2-4.4,5.13-5.21,4.73.02,1.59-.28,5.65,1.84,6.42-.86.53-1.86-1.37-3.28-1.4-4.39-.05-2.37.51-6.49.47-9.95-.01-1.25,2.33-3.56-.22-5.33-2.06-1.43-8.18,2.8-2.29,3.03l-.28-2,1.98-.45c2.53,2.28-.29,3.47-.68,4.35-.2.45.13,1.45-.28,2.09-2.59,4.02-4.36,2.84-8.74,2.78-1.85-2.24-3.49-3.63-2.74-6.75-2.17.82-3.59,9.61-1.75,10,.25-2.05-.82-4.59,1.25-5.99,2.77,1.85,2.63,6.8-1.25,5.99-.42,3.39-.14,8.24-.5,10.71ZM60.71,337.74l-1-2.99,2-1-5,1v1.49s4,1.5,4,1.5Z"/>
      <path d="M56.21,370.25c.19.18-1.53,3.89,1.36,4.44,1.03.2,1.57-1.02,3.24-.87,2.14.2,2.21,2.13,4.1,2.45.85-1.41,2.32-2.22,1.55-4.02-2.1-4.93-6.59-.9-9.88-2.52-.88-.43-1.02-3.3-2.87-2.99l.21,3.03,2.29.47Z"/>
      <path d="M58.21,375.75l2.26,4.48c.85,1.44,2.85-1.2,3.03-1.97.64-2.75-3.3-3.64-5.29-2.51Z"/>
      <path d="M56.8,351.64l1.9-.15,1.93-3.08-2.17-2.56c-2.63,1.42-3.66,3.19-1.66,5.79Z"/>
      <path d="M54.78,365.08c-.07,2.06,3.35,3.85,4.67.13,1.51-4.26-4.56-3.31-4.67-.13Z"/>
      <path d="M63.82,351.62c1.68,1.01,4.52-2.41,2.67-4.41-3.22-3.47-4.88,3.08-2.67,4.41Z"/>
      <path d="M65.2,384.74l1.97-3.66-3.2-2.35c-1.18,1.83-2.13,4.01-.03,5.54l1.26.48Z"/>
      <path d="M59.78,392.61c-.85,2.98,3.68,5.55,3.91,1.35.17-3.09-3.26-3.63-3.91-1.35Z"/>
      <path d="M59.26,385.09c-.9,3.63,8.3,4.55,2.46-1.61-.74-.24-2.3.95-2.46,1.61Z"/>
      <path d="M53.72,396.74c.9.61,6.75-5.05,1.73-5-2.19.02-2.7,3.44-1.73,5Z"/>
      <path d="M59.43,395.51c-.49-.46-.3-1.23-1.64-.66l-2.07,3.15c.18,1.44,7.61,1.18,3.71-2.49Z"/>
      <path d="M61.64,363.16c.13-.07,1.56-2.44,1.54-2.6l-2.21-2.3-1.76,3.19c.09,1.06,1.42,2.24,2.44,1.71Z"/>
      <path d="M65.76,344.6c-.26,1.1,1.11,2.45,2.18,2.64,1.4-1.21,1.62-3.32,1.03-5.01-.58-1.04-3.12,1.99-3.2,2.36Z"/>
      <path d="M55.78,356.11c-.77,2.75,3.27,4.22,3.87,1.28.4-1.97-3.12-3.93-3.87-1.28Z"/>
      <path d="M63.28,366.67c2.22,1.17,4.52-4.03.66-4.45-1.6-.18-2.09,3.7-.66,4.45Z"/>
      <path d="M63.78,387.82c-1.65.86-.82,4.63,1.1,4.38,3.13-.42,1.17-5.56-1.1-4.38Z"/>
      <path d="M62.77,397.58c-.08,2.36,7.98,2.81,2.14-2.31-.79-.13-2.12,1.71-2.14,2.31Z"/>
      <path d="M65.28,367.32c-1.55,2.51,4.34,7.1,2.7-.1l-2.7.1Z"/>
      <path d="M53.31,361.13c-.4,4.52,4.27.35,2.67-1.9l-1.79-.26c-.32.22-.83,1.7-.87,2.16Z"/>
      <path d="M65.77,360.07c-.64,1.88,1.96,3.33,2.71,2.18,1.82-2.79-1.8-4.85-2.71-2.18Z"/>
      <path d="M59.29,367.61c-.29,2.67,3.11,1.41,3.37.33.46-1.89-3.03-3.5-3.37-.33Z"/>
      <path d="M67.28,350.82c-1.17.62-1.66,4.49,1.12,3.37,1.67-.67.83-4.41-1.12-3.37Z"/>
      <path d="M54.29,352.07c-.29.83-.27,3.4,1.16,3.17l1.18-1.36-1.18-2.63-1.16.83Z"/>
      <path d="M68.21,379.74v-3.74c-3.38-.73-3.08,3.31,0,3.74Z"/>
      <path d="M54.22,377.74c2.24,1.44,3.13-3.5.74-3.49-1.15,0-1.46,3.03-.74,3.49Z"/>
      <path d="M60.21,345.01c-.5,1.77,2.34,3.22,2.92.89.52-2.11-2.58-2.11-2.92-.89Z"/>
      <path d="M67.7,384.24l-1.95,1.33,1.21,2.66c1.68-1.15,1.3-2.31.74-3.99Z"/>
      <path d="M49.75,235.77l23.32.29c.37,1.98.95,4.47,1.05,6.44.79,14.87-.3,30.08-.46,44.97-.09,7.79.98,17.36.54,24.95-.35,6.11-11.4,3.44-15.77,3.23-2.02-.09-8.32,1.3-9.15-1.32l.47-78.57ZM54.18,298.19c3.88-.81,4.02,4.14,1.25,5.99-2.07-1.39-1-3.94-1.25-5.99-1.84.39-.42,9.18,1.75,10-.75-3.13.89-4.51,2.74-6.75,4.38-.07,6.16-1.25,8.74,2.78.41.64.07,1.64.28,2.09.39.87,3.21,2.07.68,4.35l-1.98-.45.28-2c-5.89.23.23,4.46,2.29,3.03,2.55-1.77.2-4.09.22-5.33.04-3.46-.53-7.58-.47-9.95.02-1.11,1.92-2.53,1.4-4.39-.77-2.7-4.83-.59-6.42-.86.4,5.23-5.92,4.42-4.73.02,1.06-3.88,3.64-.21,4.73-.02-.12-1.55-2.14-3.47-.28-5.06,1.73-1.48,3.53,3.17,6.08,1.11l.71-1.33c.31-2.12-1.52-3.98-1.54-5.47-.02-1.26,1.08-2.35,1.09-4.01,0-1.84-1.31-3.11-1.33-4.5-.02-1.21,1.22-3.08,1.19-4.51-.09-5.49-1.61-8.44-.42-14.74l-1.68.96c-2.17-1.24-1.37-3.39-.04-4.98l1.64.86.08,3.17c.76-4.02-.19-3.81,0-6.71.11-1.52,2.78-5.04-1.01-5.05,1.62.92,1.22,4.51-.75,4.76-.72.09-1.69-.59-2.47-.48-1.09.16-2.12.91-3.09.95-2.13.1-4.44-1.11-6.88-.02l-1.06-3.96-.99,10.98,2.01,1.53,3.87-.95c4.8,3.9-1.27,4.05-1.64,4.44-.19.19.55,1.35.45,1.77-.2.81-.76,1.39-.94,2.22.64-.24,1.1-1.21,2.15-.95,4.73,1.16-2.98,10.1-3.16,4.15-.02-.74.76-2.06,1.01-3.2-1.13.43-1.11,1.09-2.26,1.04l-1.24-1.04.51,11.22c-.13,2.73-1.65,8.75-1.55,11.01.07,1.7,1.36,2.38,1.54,3.56.36,2.47.08,7.31.5,10.71ZM56.68,308.7v1.49s5,1,5,1l-2-1,1-2.99-4,1.5Z"/>
      <path d="M73.62,144.57l-.54,75.32c-.36,1.15-.86,2.05-2.15,2.35-1.39.32-19.94.32-20.92-.06l-.75-75.61,22.7-2.85,1.66.85ZM67.19,195.24c.14-2.1.25-3.5.99-5.5l-2.24,1.49c-1.83-.92-.15-5.36,2.24-3.5-.84-2.93.61-5.15.53-8.26-.04-1.62-.96-3.22-.94-4.5.02-2,1.87-5.06,1.96-7.49.1-2.57-1.62-5.88-1.59-7.5s2.72-4.57,1.54-7.24l-1.76,5.5c-1.06.22-4.64-4.52-3.01-6.02,1.06-.97,3.79-.07,2.78-1.24l-7.01,1.75c2.88-.18,1.88,2.44,2.01,4.51l1.72-1c2.13,2.07,1.83,2.92,1.27,5.5.5.14,1.33-.23,2,.24,2.03,1.43.77,9.59-.51,11.76-3.89-.87-2.9-7.11-2.46-10.23.12-.85.9-1.43.97-1.77-.48-.14-1.34.2-1.78-.47l-.72-2.53c-.01,2.93,1.37,7.53-3.03,7.28l-.48-5.28-1.74,1.99c-3.37-2.59-2.05-5,.5-7.49l1.24.99c.89-3.29-1.57-5.35-4.65-5.42l-.84.93c6.1-.15,3.84,2.46,1.22,5.52l-1.27-.31.05-5.21-.99,62.5,1.72-1,2.03,4.03,1.74-.03c-1.39-1.69.84-6.25,2.54-4.69l3.22,4.68,1.49-2.98,1.74.99c-.93-2.61-.06-4.04.5-6.5l-2.23,1.99c-2.92-2.36-1.63-4.24.51-6.47l1.23.23.99,2.24c-1.04-2.08.99-11.01-1.5-11.5-.09,1.44.61,2.48.38,4.09-.09.65-2.11,4.99-2.64,5.4l-1.4.46c-1.99-.47-1.46-4.66-.9-6.16l1.75-.23,1.8,1.43-1.95-3.64,2.95-1.35Z"/>
      <path d="M61.69,195.24c-.09,2.5-.22,11.38.51,13.12.28.68,3.83,3.11,2.95,5.55l-1.21.85c-1.95-1.12-3.27-3.8-2.25-6.02l-4,4.78-2.27-.78c-1.36-2.57,3.24-4,3.31-4.28.17-.64-.47-5.5-2.02-3.93-1.58-1.58-2.41-4.28.23-5.28l1.76,3.5v-7c0-.38-5.49-2.88-1.7-5.97,2.07-.62,3.24,4.06,2.2,5.46,1.04-.63,1.83-.03,2.5,0,.29-8.28,6.53-2.86,1.63.42-.85.23-1.34-.41-1.63-.42Z"/>
      <path d="M62.19,181.74c-.47,0-1.57.86-2.37-.13.56-4.24-5.09-5.19-2.92-8.91l1.82-.24.97,4.77c.54-1.65-1.87-10.82,1.79-8.03,2.08,1.59.56,4.14.7,6.27.23,3.58,1,1.97.02,6.26.56,0,1.34-.7,2-.28l2.27,4.77c-1.33,3.32-4.88-.2-5.21-1.84-.18-.88.72-1.68.94-2.64Z"/>
      <path d="M55.26,171.67c-1.45-.74-1.95-10.51.66-9.92,3.49.79,3.37,11.99-.66,9.92Z"/>
      <path d="M59.19,186.24c-1.71-.23-2.11-.12-3.49-1.5.76,2.26,1.6,3.21-.08,5.42l-1.69-.41c-1.89-2.23,3.36-9.2,5.23-7.99,1.05,1.68.07,3.12.03,4.48.21.03.86-.78,1.97-.27,2.79,1.28,2.19,4.87-.24,6.26-2.7-1.36-1.8-4.07-1.74-5.99Z"/>
      <path d="M67.19,183.24c-1.3.87-4.19-5.46-.73-6.49,1.75-.48,1.33,5.56.73,6.49Z"/>
      <path d="M54.2,194.24l1.75.5c1.49,1.83-.12,3.22-1.51,4.49-1.47-1.28-.62-3.39-.24-4.99Z"/>
      <path d="M54.19,208.74l-.51-3.76,1.25-1.24,1.69,3.64c-.44,1.05-1.3,1.51-2.43,1.36Z"/>
      <path d="M57.09,178.6c1.35,4.5-3.97,4.09-2.16-.88l1.28-.25c.36.31.74.64.88,1.12Z"/>
      <path d="M65.15,176.7c-1.6,1.3-2.81-2.96-1.2-3.46,2.16-.67,1.96,2.84,1.2,3.46Z"/>
      <path d="M56.18,274.69c.19-.18-1.53-3.89,1.36-4.44,1.03-.2,1.57,1.02,3.24.87,2.14-.2,2.21-2.13,4.1-2.45.85,1.41,2.32,2.22,1.55,4.02-2.1,4.93-6.59.9-9.88,2.52-.88.43-1.02,3.3-2.87,2.99l.21-3.03,2.29-.47Z"/>
      <path d="M58.18,269.18l2.26-4.48c.85-1.44,2.85,1.2,3.03,1.97.64,2.75-3.3,3.64-5.29,2.51Z"/>
      <path d="M56.77,293.3l1.9.15,1.93,3.08-2.17,2.56c-2.63-1.42-3.66-3.19-1.66-5.79Z"/>
      <path d="M54.75,279.85c-.07-2.06,3.35-3.85,4.67-.13,1.51,4.26-4.56,3.31-4.67.13Z"/>
      <path d="M63.79,293.31c1.68-1.01,4.52,2.41,2.67,4.41-3.22,3.47-4.88-3.08-2.67-4.41Z"/>
      <path d="M65.17,260.19l1.97,3.66-3.2,2.35c-1.18-1.83-2.13-4.01-.03-5.54l1.26-.48Z"/>
      <path d="M59.75,252.33c-.85-2.98,3.68-5.55,3.91-1.35.17,3.09-3.26,3.63-3.91,1.35Z"/>
      <path d="M59.23,259.84c-.9-3.63,8.3-4.55,2.46,1.61-.74.24-2.3-.95-2.46-1.61Z"/>
      <path d="M53.68,248.19c.9-.61,6.75,5.05,1.73,5-2.19-.02-2.7-3.44-1.73-5Z"/>
      <path d="M59.4,249.42c-.49.46-.3,1.23-1.64.66l-2.07-3.15c.18-1.44,7.61-1.18,3.71,2.49Z"/>
      <path d="M61.61,281.77c.13.07,1.56,2.44,1.54,2.6l-2.21,2.3-1.76-3.19c.09-1.06,1.42-2.24,2.44-1.71Z"/>
      <path d="M65.73,300.33c-.26-1.1,1.11-2.45,2.18-2.64,1.4,1.21,1.62,3.32,1.03,5.01-.58,1.04-3.12-1.99-3.2-2.36Z"/>
      <path d="M55.75,288.83c-.77-2.75,3.27-4.22,3.87-1.28.4,1.97-3.12,3.93-3.87,1.28Z"/>
      <path d="M63.25,278.27c2.22-1.17,4.52,4.03.66,4.45-1.6.18-2.09-3.7-.66-4.45Z"/>
      <path d="M63.75,257.11c-1.65-.86-.82-4.63,1.1-4.38,3.13.42,1.17,5.56-1.1,4.38Z"/>
      <path d="M62.73,247.35c-.08-2.36,7.98-2.81,2.14,2.31-.79.13-2.12-1.71-2.14-2.31Z"/>
      <path d="M65.25,277.62c-1.55-2.51,4.34-7.1,2.7.1l-2.7-.1Z"/>
      <path d="M53.27,283.81c-.4-4.52,4.27-.35,2.67,1.9l-1.79.26c-.32-.22-.83-1.7-.87-2.16Z"/>
      <path d="M65.73,284.86c-.64-1.88,1.96-3.33,2.71-2.18,1.82,2.79-1.8,4.85-2.71,2.18Z"/>
      <path d="M59.26,277.32c-.29-2.67,3.11-1.41,3.37-.33.46,1.89-3.03,3.5-3.37.33Z"/>
      <path d="M67.25,294.11c-1.17-.62-1.66-4.49,1.12-3.37,1.67.67.83,4.41-1.12,3.37Z"/>
      <path d="M54.26,292.86c-.29-.83-.27-3.4,1.16-3.17l1.18,1.36-1.18,2.63-1.16-.83Z"/>
      <path d="M68.17,265.19v3.74c-3.38.73-3.08-3.31,0-3.74Z"/>
      <path d="M54.19,267.19c2.24-1.44,3.13,3.5.74,3.49-1.15,0-1.46-3.03-.74-3.49Z"/>
      <path d="M60.18,299.92c-.5-1.77,2.34-3.22,2.92-.89.52,2.11-2.58,2.11-2.92.89Z"/>
      <path d="M67.67,260.69l-1.95-1.33,1.21-2.66c1.68,1.15,1.3,2.31.74,3.99Z"/>
      <path d="M81.11,414.36l-2.14.05-35.9.23c.68,87.69,2.81,188.99,2.25,276.59l7.21-8.33c8.09-4.25,20.08-3.16,25.09-.61l10.06,6.81c-1.35-11.92-1.22-42.71-3-54.54-.67-53.43-.56-106.96-1.29-160.47-.28-20.14-2.45-36.96-2.13-56.96l-.14-2.77ZM48.04,495.34l-.4-77.62c2.47-.25,4.49-.2,6.85-.96,4.71-1.52,13.53-.44,23.57-.44l.86,77.18-30.88,1.84ZM48.56,585.04l-.05-85.45,29.66-.96.95.9.38,84.38-30.94,1.13ZM78.58,680.35c-1.51-.07-3.45-1.32-5.03-1.62-7.94-1.5-15.63-1.18-23.22,1.46l-1.09-.61-.28-91.09,30.61-.09.65,91.82c-.49.34-1.1.16-1.65.13Z"/>
      <path d="M43.06,414.64l2.14-.05,35.9-.23c-.68-87.69,7.45-196.37,8.01-283.98l-7.21,8.33c-8.09,4.25-27.35,2.21-32.36-.33l-10.06-6.81c1.35,11.92,1.22,42.71,3,54.54.67,53.43.56,106.96,1.29,160.47.28,20.14-.54,45.28-.86,65.28l.14,2.77ZM77.11,323.33l-.59,87.95c-2.47.25-4.49.2-6.85.96-4.71,1.52-13.53.44-23.57.44l2.13-87.51,28.88-1.84ZM78.6,231.62l.05,87.45-29.66.96-.95-.9-.38-86.39,30.94-1.13ZM48.58,140.31c1.51.07,3.45,1.32,5.03,1.62,7.94,1.5,15.91,2.69,23.49.05l1.09.61v85.57l-30.61.09-.65-87.82c.49-.34,1.1-.16,1.65-.13Z"/>
      <path d="M1017.87,60.83l-.74,1c-4.31-.92-7.75,2.31-11.76.49l2.51-1.74-2.51-2.75c3.85,2.8,7.76,3.36,12.5,3Z"/>
      <path d="M1012.37,73.83v-1.5s-1.87.39-1.87.39l-.63-.88,6.99-3.51c-.57,1.04-3.13,6.72-4.49,5.5Z"/>
      <path d="M1093.43,35.55c-3.3,0-21.4,6.26-22.27,5.5,6.38-10.88,9.46-24.39-.49-34.26-9.98-9.91-26.7-9-34.72,2.81-6.74,9.94-4.35,20.8-1.01,31.48-1.31,1.76-13.94-3.46-17.08-3.54-27.81-.71-32.26,44.15-2.97,46.51,6.89.55,11.73-2.55,18.02-3.02-.17,4.3-3.27,10.38-3.31,14.78-.24,30.45,40.68,36.65,48.01,8.47,3.23-12.41-1.77-13.85-4.58-23.37-.2-.66-.76-1.01.11-1.62,12.8,3.57,27.68,7.13,37.76-4.24,13.26-14.96,2.25-39.54-17.48-39.51ZM1048.83,32.47c2.24-5.2-9.3-8.01-11.73-11.24-.33-1.3,1.48-.33,1.93-1.55.33-.9-.17-3.97.06-4.19l5.17-.89c3.07.25,3.71,9.88,8.08,6.39,3.39-2.7-1.27-7.28-3.51-8.99-.8-.61-5.75-2.06-3.76-3.27,1.86-1.38,6.25.94,7.17.71,1.24-.31,1.59-4,4.6-3.99,2.08,0,2.81,2.65,4.11,2.97,1.54.38,4.43-1.21,6.63.58.88,1.36-4.17,2.71-4.97,3.27-7.58,5.24-3.23,17.56,1.97,3.46,2.39.78,6.98-1.99,7.9.62,3.7,10.52-10.7,8.44-11.82,17.3,1.87,7.38,11.28-11.78,13.68-6.64,1.3,2.77-2.29,2.93-3.5,4.5-1.89,2.46-3.1,8.65-5.92,11.83-1.87,2.11-6.11,3.95-7.59,7.16-.74-9.12-1.86-16.94,4.73-24.27,1.29-1.44,4.96-1.6,4.02-5.22-1.29-1.44-8.6,8.9-8.5,10.5l-1.99-1v1.51s-2-.5-2-.5c-.36.37,1.99,5.35,1.99,6.25v14.25c-1.66-1.57-2.96-3.55-4.75-5-1.71-1.39-4.3-2.06-6.18-4.32-2.31-2.77-4.8-11.76-5.31-12.19-1.25-1.07-3.19.21-4.27-1.24,2.43-9.3,10.56,10.62,13.74,3.25ZM1066.86,53c0,6.29-4.69,6.79-9.77,5.98-.99-5.56,5.48-11.86,9.77-5.98ZM1045.69,70.89c-2.08-3.62,5.22-10.03,8.91-8.91v4.01s-2,.26-2,.26c3.83,3.3-5.36,7.35-6.91,4.65ZM1025.98,77.35c-1.07,1.25.21,3.19-1.24,4.27-9.3-2.43,10.62-10.56,3.25-13.74-5.2-2.24-8.01,9.3-11.24,11.73-1.3.33-.33-1.48-1.55-1.93-.9-.33-3.97.17-4.19-.06l-.89-5.17c.25-3.07,9.88-3.71,6.39-8.08-2.7-3.39-7.28,1.27-8.99,3.51-.61.8-2.06,5.75-3.27,3.76-1.38-1.86.94-6.25.71-7.17-.31-1.24-4-1.59-3.99-4.6,0-2.08,2.65-2.81,2.97-4.11.38-1.54-1.21-4.43.58-6.63,1.36-.88,2.71,4.17,3.27,4.97,5.24,7.58,17.56,3.23,3.46-1.97.78-2.39-1.99-6.98.62-7.9,10.52-3.7,8.44,10.7,17.3,11.82,7.38-1.87-11.78-11.28-6.64-13.68,2.77-1.3,2.93,2.29,4.5,3.5,2.46,1.89,8.65,3.1,11.83,5.92,2.11,1.87,3.95,6.11,7.16,7.59-9.12.74-16.94,1.86-24.27-4.73-1.44-1.29-1.6-4.96-5.22-4.02-1.44,1.29,8.9,8.6,10.5,8.5l-1,1.99h1.51s-.5,2-.5,2c.37.36,5.35-1.99,6.25-1.99h14.25c-1.57,1.66-3.55,2.96-5,4.75-1.39,1.71-2.06,4.3-4.32,6.18-2.77,2.31-11.76,4.8-12.19,5.31ZM1074.59,93.98l-.7,3.05c-6.71,2.99-6.81-14.22-12.44-12.46-1.84.58-1.51,3.52-1.24,5.05,1.47,8.33,16.02,10.06,10.63,20.85-3.47-2.61-8.56-.43-7.75-6.98l1.98,2.5c3.69-5.07-.07-4.59-1.88-7.36-1.13-1.73-6.61-13.4-6.61-14.89v-12.25c-2.42,2.96-1.35,6.85-1.51,10.24-.15,3.31.04,4.78.03,7.48,0,2.9.45,16.26-.27,17.78-.11.23-.65.63-.75.49l-.63-5.37-2.4-.41c-3.05.89-1.73,9.79-6.11,9.22-.34-.04-6.12-2.44-6.34-2.71-.33-.4-1.45-3.48-1.51-4.03-.4-3.9,4.74-4.48,7.45-6.48,1.92-1.42,8.67-9.13,5.46-11.14-4.46-2.78-7.97,11.67-13.07,10.34-.92-.24-1.4-1.27-1.4-2.17.02-3.33,2.54-.86,3.39-.83,3.18.1,4.87-11.78,6.23-14.1.46-.78,8.56-9.57,9.17-9.87l1.26-.25c2.15.26,2.03,2.15,2.99,3.04,7.54,7.05,10.99,10.72,12.54,21.73l3.46-.48ZM1064.1,73.48c1.67.05,3.03-1.02,4.02-2.24.58-.71.46-3.45,1.74-2.28,2.07,3.72-3.96,8.72-5.76,4.51ZM1107.67,67.63c-.38,1.54,1.21,4.43-.58,6.63-1.36.88-2.71-4.17-3.27-4.97-5.24-7.58-17.56-3.23-3.46,1.97-.78,2.39,1.99,6.98-.62,7.9-10.52,3.7-8.44-10.7-17.3-11.82-7.38,1.87,11.78,11.28,6.64,13.68-2.77,1.3-2.93-2.29-4.5-3.5-2.46-1.89-8.65-3.1-11.83-5.92-2.11-1.87-3.95-6.11-7.16-7.59,9.12-.74,16.94-1.86,24.27,4.73,1.44,1.29,1.6,4.96,5.22,4.02,1.44-1.29-8.9-8.6-10.5-8.5l1-1.99h-1.51s.5-2,.5-2c-.37-.36-5.35,1.99-6.25,1.99h-14.25c1.57-1.66,3.55-2.96,5-4.75,1.39-1.71,2.06-4.3,4.32-6.18,2.77-2.31,11.76-4.8,12.19-5.31,1.07-1.25-.21-3.19,1.24-4.27,9.3,2.43-10.62,10.56-3.25,13.74,5.2,2.24,8.01-9.3,11.24-11.73,1.3-.33.33,1.48,1.55,1.93.9.33,3.97-.17,4.19.06l.89,5.17c-.25,3.07-9.88,3.71-6.39,8.08,2.7,3.39,7.28-1.27,8.99-3.51.61-.8,2.06-5.75,3.27-3.76,1.38,1.86-.94,6.25-.71,7.17.31,1.24,4,1.59,3.99,4.6,0,2.08-2.65,2.81-2.97,4.11Z"/>
      <path d="M92.27,780.03c0-3.3-6.26-21.4-5.5-22.27,10.88,6.38,24.39,9.46,34.26-.49,9.91-9.98,9-26.7-2.81-34.72-9.94-6.74-20.8-4.35-31.48-1.01-1.76-1.31,3.46-13.94,3.54-17.08.71-27.81-44.15-32.26-46.51-2.97-.55,6.89,2.55,11.73,3.02,18.02-4.3-.17-10.38-3.27-14.78-3.31-30.45-.24-36.65,40.68-8.47,48.01,12.41,3.23,13.85-1.77,23.37-4.58.66-.2,1.01-.76,1.62.11-3.57,12.8-7.13,27.68,4.24,37.76,14.96,13.26,39.54,2.25,39.51-17.48ZM95.35,735.43c5.2,2.24,8.01-9.3,11.24-11.73,1.3-.33.33,1.48,1.55,1.93.9.33,3.97-.17,4.19.06l.89,5.17c-.25,3.07-9.88,3.71-6.39,8.08,2.7,3.39,7.28-1.27,8.99-3.51.61-.8,2.06-5.75,3.27-3.76,1.38,1.86-.94,6.25-.71,7.17.31,1.24,4,1.59,3.99,4.6,0,2.08-2.65,2.81-2.97,4.11-.38,1.54,1.21,4.43-.58,6.63-1.36.88-2.71-4.17-3.27-4.97-5.24-7.58-17.56-3.23-3.46,1.97-.78,2.39,1.99,6.98-.62,7.9-10.52,3.7-8.44-10.7-17.3-11.82-7.38,1.87,11.78,11.28,6.64,13.68-2.77,1.3-2.93-2.29-4.5-3.5-2.46-1.89-8.65-3.1-11.83-5.92-2.11-1.87-3.95-6.11-7.16-7.59,9.12-.74,16.94-1.86,24.27,4.73,1.44,1.29,1.6,4.96,5.22,4.02,1.44-1.29-8.9-8.6-10.5-8.5l1-1.99h-1.51s.5-2,.5-2c-.37-.36-5.35,1.99-6.25,1.99h-14.25c1.57-1.66,3.55-2.96,5-4.75,1.39-1.71,2.06-4.3,4.32-6.18,2.77-2.31,11.76-4.8,12.19-5.31,1.07-1.25-.21-3.19,1.24-4.27,9.3,2.43-10.62,10.56-3.25,13.74ZM74.82,753.46c-6.29,0-6.79-4.69-5.98-9.77,5.56-.99,11.86,5.48,5.98,9.77ZM56.93,732.29c3.62-2.08,10.03,5.22,8.91,8.91h-4.01s-.26-2-.26-2c-3.3,3.83-7.35-5.36-4.65-6.91ZM50.47,712.58c-1.25-1.07-3.19.21-4.27-1.24,2.43-9.3,10.56,10.62,13.74,3.25,2.24-5.2-9.3-8.01-11.73-11.24-.33-1.3,1.48-.33,1.93-1.55.33-.9-.17-3.97.06-4.19l5.17-.89c3.07.25,3.71,9.88,8.08,6.39,3.39-2.7-1.27-7.28-3.51-8.99-.8-.61-5.75-2.06-3.76-3.27,1.86-1.38,6.25.94,7.17.71,1.24-.31,1.59-4,4.6-3.99,2.08,0,2.81,2.65,4.11,2.97,1.54.38,4.43-1.21,6.63.58.88,1.36-4.17,2.71-4.97,3.27-7.58,5.24-3.23,17.56,1.97,3.46,2.39.78,6.98-1.99,7.9.62,3.7,10.52-10.7,8.44-11.82,17.3,1.87,7.38,11.28-11.78,13.68-6.64,1.3,2.77-2.29,2.93-3.5,4.5-1.89,2.46-3.1,8.65-5.92,11.83-1.87,2.11-6.11,3.95-7.59,7.16-.74-9.12-1.86-16.94,4.73-24.27,1.29-1.44,4.96-1.6,4.02-5.22-1.29-1.44-8.6,8.9-8.5,10.5l-1.99-1v1.51s-2-.5-2-.5c-.36.37,1.99,5.35,1.99,6.25v14.25c-1.66-1.57-2.96-3.55-4.75-5-1.71-1.39-4.3-2.06-6.18-4.32-2.31-2.77-4.8-11.76-5.31-12.19ZM33.84,761.19l-3.05-.7c-2.99-6.71,14.22-6.81,12.46-12.44-.58-1.84-3.52-1.51-5.05-1.24-8.33,1.47-10.06,16.02-20.85,10.63,2.61-3.47.43-8.56,6.98-7.75l-2.5,1.98c5.07,3.69,4.59-.07,7.36-1.88,1.73-1.13,13.4-6.61,14.89-6.61h12.25c-2.96-2.42-6.85-1.35-10.24-1.51-3.31-.15-4.78.04-7.48.03-2.9,0-16.26.45-17.78-.27-.23-.11-.63-.65-.49-.75l5.37-.63.41-2.4c-.89-3.05-9.79-1.73-9.22-6.11.04-.34,2.44-6.12,2.71-6.34.4-.33,3.48-1.45,4.03-1.51,3.9-.4,4.48,4.74,6.48,7.45,1.42,1.92,9.13,8.67,11.14,5.46,2.78-4.46-11.67-7.97-10.34-13.07.24-.92,1.27-1.4,2.17-1.4,3.33.02.86,2.54.83,3.39-.1,3.18,11.78,4.87,14.1,6.23.78.46,9.57,8.56,9.87,9.17l.25,1.26c-.26,2.15-2.15,2.03-3.04,2.99-7.05,7.54-10.72,10.99-21.73,12.54l.48,3.46ZM54.34,750.7c-.05,1.67,1.02,3.03,2.24,4.02.71.58,3.45.46,2.28,1.74-3.72,2.07-8.72-3.96-4.51-5.76ZM60.19,794.27c-1.54-.38-4.43,1.21-6.63-.58-.88-1.36,4.17-2.71,4.97-3.27,7.58-5.24,3.23-17.56-1.97-3.46-2.39-.78-6.98,1.99-7.9-.62-3.7-10.52,10.7-8.44,11.82-17.3-1.87-7.38-11.28,11.78-13.68,6.64-1.3-2.77,2.29-2.93,3.5-4.5,1.89-2.46,3.1-8.65,5.92-11.83,1.87-2.11,6.11-3.95,7.59-7.16.74,9.12,1.86,16.94-4.73,24.27-1.29,1.44-4.96,1.6-4.02,5.22,1.29,1.44,8.6-8.9,8.5-10.5l1.99,1v-1.51s2,.5,2,.5c.36-.37-1.99-5.35-1.99-6.25v-14.25c1.66,1.57,2.96,3.55,4.75,5,1.71,1.39,4.3,2.06,6.18,4.32,2.31,2.77,4.8,11.76,5.31,12.19,1.25,1.07,3.19-.21,4.27,1.24-2.43,9.3-10.56-10.62-13.74-3.25-2.24,5.2,9.3,8.01,11.73,11.24.33,1.3-1.48.33-1.93,1.55-.33.9.17,3.97-.06,4.19l-5.17.89c-3.07-.25-3.71-9.88-8.08-6.39-3.39,2.7,1.27,7.28,3.51,8.99.8.61,5.75,2.06,3.76,3.27-1.86,1.38-6.25-.94-7.17-.71-1.24.31-1.59,4-4.6,3.99-2.08,0-2.81-2.65-4.11-2.97Z"/>
    </g>
  </g>
</svg>